SplineFontDB: 3.2
FontName: Sulive
FullName: Sulive
FamilyName: Sulive
Weight: Regular
Copyright: Copyright (c) 2025, W.F.Turnip
UComments: "2025-1-29: Created with FontForge (http://fontforge.org)"
Version: 001.000
ItalicAngle: 0
UnderlinePosition: -65
UnderlineWidth: 32
Ascent: 550
Descent: 100
InvalidEm: 0
LayerCount: 2
Layer: 0 1 "+gMyXYgAA" 1
Layer: 1 1 "+Uk2XYgAA" 0
XUID: [1021 352 -730677569 10509752]
OS2Version: 0
OS2_WeightWidthSlopeOnly: 0
OS2_UseTypoMetrics: 1
CreationTime: 1738142398
ModificationTime: 1740901530
OS2TypoAscent: 0
OS2TypoAOffset: 1
OS2TypoDescent: 0
OS2TypoDOffset: 1
OS2TypoLinegap: 0
OS2WinAscent: 0
OS2WinAOffset: 1
OS2WinDescent: 0
OS2WinDOffset: 1
HheadAscent: 0
HheadAOffset: 1
HheadDescent: 0
HheadDOffset: 1
OS2Vendor: 'PfEd'
Lookup: 1 8 0 "init" { "init-1" ("init") } ['init' ('DFLT' <'dflt' > 'latn' <'dflt' > ) ]
Lookup: 1 8 0 "medi" { "medi-1" ("medi") } ['medi' ('DFLT' <'dflt' > 'latn' <'dflt' > ) ]
Lookup: 1 8 0 "fina" { "fina-1" ("fina") } ['fina' ('DFLT' <'dflt' > 'latn' <'dflt' > ) ]
Lookup: 1 8 0 "isol" { "isol-1" ("isol") } ['isol' ('DFLT' <'dflt' > 'latn' <'dflt' > ) ]
Lookup: 6 8 0 "calt" { "calt-1"  } ['calt' ('DFLT' <'dflt' > 'latn' <'dflt' > ) ]
MarkAttachClasses: 1
DEI: 91125
ChainSub2: class "calt-1" 4 4 4 6
  Class: 79 B C D F G H J K L M N P Q R S T V X Y Z b c d f g h j k l m n p q r s t v x y z
  Class: 519 uni0042.init uni0043.init uni0044.init uni0046.init uni0047.init uni0048.init uni004A.init uni004B.init uni004C.init uni004D.init uni004E.init uni0050.init uni0051.init uni0052.init uni0053.init uni0054.init uni0056.init uni0058.init uni0059.init uni005A.init uni0062.init uni0063.init uni0064.init uni0066.init uni0067.init uni0068.init uni006A.init uni006B.init uni006C.init uni006D.init uni006E.init uni0070.init uni0071.init uni0072.init uni0073.init uni0074.init uni0076.init uni0078.init uni0079.init uni007A.init

StartChar: nine
Encoding: 57 57 0
Width: 500
VWidth: 1000
Flags: W
LayerCount: 2
Fore
SplineSet
150 450 m 2,0,-1
 450 450 l 1,1,-1
 450 449.369140625 l 0,2,-1
 450.0078125 449.358398438 l 0,3,4
 460.183429602 449.358398438 460.183429602 449.358398438 467.463750849 442.248625 c 128,-1,5
 474.744072096 435.138851562 474.744072096 435.138851562 475 425 c 0,6,7
 474.744045252 414.860084966 474.744045252 414.860084966 467.463210557 407.74547217 c 128,-1,8
 460.182375862 400.630859375 460.182375862 400.630859375 450.0078125 400.630859375 c 0,9,-1
 450 400.630859375 l 1,10,-1
 450 400 l 1,11,-1
 150 400 l 2,12,13
 119 400 119 400 97 378 c 128,-1,14
 75 356 75 356 75 325 c 2,15,-1
 75 -25 l 2,16,17
 75 -35 75 -35 67.5 -42.5 c 128,-1,18
 60 -50 60 -50 50 -50 c 128,-1,19
 40 -50 40 -50 32.5 -42.5 c 128,-1,20
 25 -35 25 -35 25 -25 c 2,21,-1
 25 325 l 2,22,23
 25 377 25 377 61.5 413.5 c 128,-1,24
 98 450 98 450 150 450 c 2,0,-1
250 350 m 0,25,26
 258.843559896 349.964097272 258.843559896 349.964097272 267.59765625 348.681640625 c 0,27,28
 269.553792689 348.317606265 269.553792689 348.317606265 271.51953125 347.88671875 c 0,29,30
 278.28762869 346.752842685 278.28762869 346.752842685 284.88671875 344.88671875 c 0,31,32
 287.113870411 344.163483654 287.113870411 344.163483654 289.314453125 343.35546875 c 0,33,34
 295.532163782 341.335740265 295.532163782 341.335740265 301.513671875 338.673828125 c 0,35,36
 303.705356277 337.623769089 303.705356277 337.623769089 305.828125 336.50390625 c 0,37,38
 311.659255256 333.611033193 311.659255256 333.611033193 317.15234375 330.1328125 c 0,39,40
 336.248355783 318.030408684 336.248355783 318.030408684 349.8984375 300 c 1,41,-1
 349.6015625 300 l 0,42,43
 353.167661103 295.136473398 353.167661103 295.136473398 356.2578125 289.935546875 c 0,44,45
 360.431883635 283.15341927 360.431883635 283.15341927 363.708984375 275.904296875 c 0,46,47
 365.158841385 272.770112632 365.158841385 272.770112632 366.421875 269.58984375 c 0,48,49
 369.656108836 261.142663168 369.656108836 261.142663168 371.640625 252.322265625 c 0,50,51
 372.359375348 249.160944792 372.359375348 249.160944792 372.916015625 245.94921875 c 0,52,53
 373.760433909 241.292391913 373.760433909 241.292391913 374.251953125 236.55859375 c 0,54,55
 374.89335549 230.797714387 374.89335549 230.797714387 375 225 c 0,56,57
 374.89335549 219.202285613 374.89335549 219.202285613 374.251953125 213.44140625 c 0,58,59
 373.760433909 208.707608087 373.760433909 208.707608087 372.916015625 204.05078125 c 0,60,61
 372.359375348 200.839055208 372.359375348 200.839055208 371.640625 197.677734375 c 0,62,63
 369.656108836 188.857336832 369.656108836 188.857336832 366.421875 180.41015625 c 0,64,65
 365.158841385 177.229887368 365.158841385 177.229887368 363.708984375 174.095703125 c 0,66,67
 360.431883635 166.84658073 360.431883635 166.84658073 356.2578125 160.064453125 c 0,68,69
 353.167661103 154.863526602 353.167661103 154.863526602 349.6015625 150 c 1,70,-1
 349.8984375 150 l 0,71,72
 336.247076133 131.968373189 336.247076133 131.968373189 317.1484375 119.865234375 c 0,73,74
 311.646146877 116.381727403 311.646146877 116.381727403 305.828125 113.49609375 c 0,75,76
 303.705356277 112.376230911 303.705356277 112.376230911 301.513671875 111.326171875 c 0,77,78
 295.532163782 108.664259735 295.532163782 108.664259735 289.314453125 106.64453125 c 0,79,80
 287.113870411 105.836516346 287.113870411 105.836516346 284.88671875 105.11328125 c 0,81,82
 278.28762869 103.247157315 278.28762869 103.247157315 271.51953125 102.11328125 c 0,83,84
 269.553792689 101.682393735 269.553792689 101.682393735 267.59765625 101.318359375 c 0,85,86
 258.843559896 100.035902728 258.843559896 100.035902728 250 100 c 0,87,88
 241.431295533 100.047452131 241.431295533 100.047452131 232.9609375 101.26171875 c 0,89,90
 227.517651788 102.144492995 227.517651788 102.144492995 222.181640625 103.5 c 0,91,92
 219.222934784 104.086741367 219.222934784 104.086741367 216.296875 104.81640625 c 0,93,94
 210.269608781 106.606508726 210.269608781 106.606508726 204.453125 108.9921875 c 0,95,96
 202.409778835 109.734554272 202.409778835 109.734554272 200.384765625 110.55078125 c 0,97,98
 194.245450999 113.283757026 194.245450999 113.283757026 188.42578125 116.666015625 c 0,99,100
 186.941527143 117.472044029 186.941527143 117.472044029 185.453125 118.333984375 c 0,101,102
 164.158653843 131.288231238 164.158653843 131.288231238 149.4609375 151.41796875 c 0,103,104
 148.201993072 153.251455034 148.201993072 153.251455034 147.04296875 155.07421875 c 0,105,106
 145.132074337 157.802185257 145.132074337 157.802185257 143.373046875 160.623046875 c 0,107,108
 140.149661771 166.029254722 140.149661771 166.029254722 137.486328125 171.732421875 c 0,109,110
 135.090618285 176.643775113 135.090618285 176.643775113 133.13671875 181.732421875 c 0,111,112
 130.265219358 189.402661433 130.265219358 189.402661433 128.419921875 197.380859375 c 0,113,114
 127.634862714 200.803064339 127.634862714 200.803064339 127.044921875 204.24609375 c 0,115,116
 126.101229534 209.384631669 126.101229534 209.384631669 125.58984375 214.580078125 c 128,-1,117
 125.077864783 219.770082049 125.077864783 219.770082049 125 225 c 128,-1,118
 125.077864783 230.229917951 125.077864783 230.229917951 125.58984375 235.419921875 c 128,-1,119
 126.101229534 240.615368331 126.101229534 240.615368331 127.044921875 245.75390625 c 0,120,121
 127.634862714 249.196935661 127.634862714 249.196935661 128.419921875 252.619140625 c 0,122,123
 130.265219358 260.597338567 130.265219358 260.597338567 133.13671875 268.267578125 c 0,124,125
 135.090618285 273.356224887 135.090618285 273.356224887 137.486328125 278.267578125 c 0,126,127
 140.148303462 283.967836643 140.148303462 283.967836643 143.37109375 289.373046875 c 0,128,129
 145.136471215 292.204091666 145.136471215 292.204091666 147.04296875 294.92578125 c 0,130,131
 148.209657057 296.760597892 148.209657057 296.760597892 149.458984375 298.580078125 c 0,132,133
 164.157705605 318.711191912 164.157705605 318.711191912 185.453125 331.666015625 c 0,134,135
 186.941527143 332.527955971 186.941527143 332.527955971 188.42578125 333.333984375 c 0,136,137
 194.245450999 336.716242974 194.245450999 336.716242974 200.384765625 339.44921875 c 0,138,139
 202.409778835 340.265445728 202.409778835 340.265445728 204.453125 341.0078125 c 0,140,141
 210.269608781 343.393491274 210.269608781 343.393491274 216.296875 345.18359375 c 0,142,143
 219.222934784 345.913258633 219.222934784 345.913258633 222.181640625 346.5 c 0,144,145
 227.517651788 347.855507005 227.517651788 347.855507005 232.9609375 348.73828125 c 0,146,147
 241.431295533 349.952547869 241.431295533 349.952547869 250 350 c 0,25,26
250 300 m 0,148,149
 242.345148103 299.919498271 242.345148103 299.919498271 234.865234375 298.294921875 c 0,150,151
 234.479651734 298.193040283 234.479651734 298.193040283 234.130859375 298.09765625 c 0,152,153
 232.391003212 297.676273365 232.391003212 297.676273365 230.6640625 297.169921875 c 0,154,-1
 230.375 297.091796875 l 0,155,156
 225.149415272 295.675708905 225.149415272 295.675708905 220.18359375 293.525390625 c 0,157,-1
 220.107421875 293.498046875 l 0,158,-1
 220.095703125 293.494140625 l 0,159,160
 218.880615072 293.094557879 218.880615072 293.094557879 217.69921875 292.66015625 c 1,161,-1
 217.892578125 292.466796875 l 1,162,163
 216.74347713 291.955446932 216.74347713 291.955446932 215.5546875 291.376953125 c 0,164,165
 212.077404855 289.44123659 212.077404855 289.44123659 208.8203125 287.14453125 c 0,166,167
 207.655289013 286.440786098 207.655289013 286.440786098 206.541015625 285.712890625 c 0,168,169
 206.047909426 285.407781165 206.047909426 285.407781165 205.609375 285.126953125 c 0,170,171
 204.088804984 284.114229736 204.088804984 284.114229736 202.669921875 283.068359375 c 0,172,173
 196.75445788 278.24554212 196.75445788 278.24554212 191.931640625 272.330078125 c 0,174,175
 190.885770264 270.911195016 190.885770264 270.911195016 189.873046875 269.390625 c 0,176,177
 189.592218835 268.952090574 189.592218835 268.952090574 189.287109375 268.458984375 c 0,178,179
 188.559213902 267.344710987 188.559213902 267.344710987 187.85546875 266.1796875 c 0,180,181
 185.55876341 262.922595145 185.55876341 262.922595145 183.623046875 259.4453125 c 0,182,183
 183.059737531 258.287726545 183.059737531 258.287726545 182.537109375 257.11328125 c 1,184,-1
 182.33984375 257.30078125 l 1,185,186
 181.905442121 256.119384928 181.905442121 256.119384928 181.505859375 254.904296875 c 0,187,-1
 181.501953125 254.892578125 l 0,188,-1
 181.474609375 254.81640625 l 0,189,190
 179.324291095 249.850584728 179.324291095 249.850584728 177.908203125 244.625 c 0,191,-1
 177.83203125 244.34375 l 0,192,193
 177.325329245 242.615613838 177.325329245 242.615613838 176.90234375 240.869140625 c 0,194,195
 176.803670613 240.508320944 176.803670613 240.508320944 176.70703125 240.142578125 c 0,196,197
 175.080488687 232.653611722 175.080488687 232.653611722 175 225 c 128,-1,198
 175.080501729 217.345148103 175.080501729 217.345148103 176.705078125 209.865234375 c 0,199,200
 176.806959717 209.479651734 176.806959717 209.479651734 176.90234375 209.130859375 c 0,201,202
 177.323726635 207.391003212 177.323726635 207.391003212 177.830078125 205.6640625 c 0,203,-1
 177.908203125 205.375 l 0,204,205
 179.324291095 200.149415272 179.324291095 200.149415272 181.474609375 195.18359375 c 0,206,-1
 181.501953125 195.107421875 l 0,207,-1
 181.505859375 195.095703125 l 0,208,209
 181.905442121 193.880615072 181.905442121 193.880615072 182.33984375 192.69921875 c 1,210,-1
 182.533203125 192.892578125 l 1,211,212
 183.044553068 191.74347713 183.044553068 191.74347713 183.623046875 190.5546875 c 0,213,214
 185.55876341 187.077404855 185.55876341 187.077404855 187.85546875 183.8203125 c 0,215,216
 188.559213902 182.655289013 188.559213902 182.655289013 189.287109375 181.541015625 c 0,217,218
 189.592218835 181.047909426 189.592218835 181.047909426 189.873046875 180.609375 c 0,219,220
 190.885770264 179.088804984 190.885770264 179.088804984 191.931640625 177.669921875 c 0,221,222
 196.75445788 171.75445788 196.75445788 171.75445788 202.669921875 166.931640625 c 0,223,224
 204.088804984 165.885770264 204.088804984 165.885770264 205.609375 164.873046875 c 0,225,226
 206.047909426 164.592218835 206.047909426 164.592218835 206.541015625 164.287109375 c 0,227,228
 207.655289013 163.559213902 207.655289013 163.559213902 208.8203125 162.85546875 c 0,229,230
 212.077404855 160.55876341 212.077404855 160.55876341 215.5546875 158.623046875 c 0,231,232
 216.712273455 158.059737531 216.712273455 158.059737531 217.88671875 157.537109375 c 1,233,-1
 217.69921875 157.33984375 l 1,234,235
 218.880615072 156.905442121 218.880615072 156.905442121 220.095703125 156.505859375 c 0,236,-1
 220.107421875 156.501953125 l 0,237,-1
 220.18359375 156.474609375 l 0,238,239
 225.149415272 154.324291095 225.149415272 154.324291095 230.375 152.908203125 c 0,240,-1
 230.65625 152.83203125 l 0,241,242
 232.384386162 152.325329245 232.384386162 152.325329245 234.130859375 151.90234375 c 0,243,244
 234.491679056 151.803670613 234.491679056 151.803670613 234.857421875 151.70703125 c 0,245,246
 242.346388278 150.080488687 242.346388278 150.080488687 250 150 c 0,247,248
 252.792309765 150.011496901 252.792309765 150.011496901 255.576171875 150.23046875 c 0,249,250
 256.385490725 150.296988108 256.385490725 150.296988108 257.27734375 150.390625 c 0,251,252
 259.311478325 150.58950516 259.311478325 150.58950516 261.322265625 150.896484375 c 0,253,254
 262.160654211 151.019990492 262.160654211 151.019990492 263.01171875 151.1640625 c 0,255,256
 265.480103928 151.595516271 265.480103928 151.595516271 267.9140625 152.19140625 c 0,257,258
 268.28515625 152.273046875 268.28515625 152.273046875 268.50390625 152.322265625 c 0,259,260
 271.229708267 153.025460629 271.229708267 153.025460629 273.884765625 153.92578125 c 0,261,262
 274.565017884 154.162151732 274.565017884 154.162151732 275.337890625 154.44921875 c 0,263,264
 277.274812583 155.143808656 277.274812583 155.143808656 279.1796875 155.947265625 c 0,265,266
 279.990116017 156.285655076 279.990116017 156.285655076 280.84765625 156.66796875 c 0,267,268
 282.905559277 157.599239641 282.905559277 157.599239641 284.900390625 158.650390625 c 0,269,270
 285.341145833 158.870768229 285.341145833 158.870768229 285.884765625 159.15234375 c 0,271,272
 288.332519531 160.491699219 288.332519531 160.491699219 290.666015625 162.001953125 c 0,273,274
 291.315197797 162.434228458 291.315197797 162.434228458 291.890625 162.833984375 c 0,275,276
 293.616901099 163.994481803 293.616901099 163.994481803 295.302734375 165.26953125 c 0,277,278
 296.003047157 165.799382503 296.003047157 165.799382503 296.724609375 166.373046875 c 0,279,280
 298.431298837 167.73633509 298.431298837 167.73633509 300.015625 169.158203125 c 0,281,282
 300.524115875 169.598605479 300.524115875 169.598605479 301.02734375 170.05078125 c 0,283,284
 303.06101632 171.93898368 303.06101632 171.93898368 304.94921875 173.97265625 c 0,285,286
 305.401394521 174.475884125 305.401394521 174.475884125 305.841796875 174.984375 c 0,287,288
 307.26366491 176.568701163 307.26366491 176.568701163 308.626953125 178.275390625 c 0,289,290
 309.200617497 178.996952843 309.200617497 178.996952843 309.73046875 179.697265625 c 0,291,292
 311.005518197 181.383098901 311.005518197 181.383098901 312.166015625 183.109375 c 0,293,294
 312.565771542 183.684802203 312.565771542 183.684802203 312.998046875 184.333984375 c 0,295,296
 314.508789062 186.667480469 314.508789062 186.667480469 315.84765625 189.115234375 c 0,297,298
 316.129231771 189.658854167 316.129231771 189.658854167 316.349609375 190.099609375 c 0,299,300
 317.400760359 192.094440723 317.400760359 192.094440723 318.33203125 194.15234375 c 0,301,302
 318.714344924 195.009883983 318.714344924 195.009883983 319.052734375 195.8203125 c 0,303,304
 319.856191344 197.725187417 319.856191344 197.725187417 320.55078125 199.662109375 c 0,305,306
 320.837848268 200.434982116 320.837848268 200.434982116 321.07421875 201.115234375 c 0,307,308
 321.974539371 203.770291733 321.974539371 203.770291733 322.677734375 206.49609375 c 0,309,310
 322.726953125 206.71484375 322.726953125 206.71484375 322.80859375 207.0859375 c 0,311,312
 323.404483729 209.519896072 323.404483729 209.519896072 323.8359375 211.98828125 c 0,313,314
 323.980009508 212.839345789 323.980009508 212.839345789 324.103515625 213.677734375 c 0,315,316
 324.41049484 215.688521675 324.41049484 215.688521675 324.609375 217.72265625 c 0,317,318
 324.703011892 218.614509275 324.703011892 218.614509275 324.76953125 219.423828125 c 0,319,320
 324.988503099 222.207690235 324.988503099 222.207690235 325 225 c 128,-1,321
 324.988503099 227.792309765 324.988503099 227.792309765 324.76953125 230.576171875 c 0,322,323
 324.703011892 231.385490725 324.703011892 231.385490725 324.609375 232.27734375 c 0,324,325
 324.41049484 234.311478325 324.41049484 234.311478325 324.103515625 236.322265625 c 0,326,327
 323.980009508 237.160654211 323.980009508 237.160654211 323.8359375 238.01171875 c 0,328,329
 323.404483729 240.480103928 323.404483729 240.480103928 322.80859375 242.9140625 c 0,330,331
 322.726953125 243.28515625 322.726953125 243.28515625 322.677734375 243.50390625 c 0,332,333
 321.974539371 246.229708267 321.974539371 246.229708267 321.07421875 248.884765625 c 0,334,335
 320.837848268 249.565017884 320.837848268 249.565017884 320.55078125 250.337890625 c 0,336,337
 319.856191344 252.274812583 319.856191344 252.274812583 319.052734375 254.1796875 c 0,338,339
 318.714344924 254.990116017 318.714344924 254.990116017 318.33203125 255.84765625 c 0,340,341
 317.400760359 257.905559277 317.400760359 257.905559277 316.349609375 259.900390625 c 0,342,343
 316.129231771 260.341145833 316.129231771 260.341145833 315.84765625 260.884765625 c 0,344,345
 314.508300781 263.332519531 314.508300781 263.332519531 312.998046875 265.666015625 c 0,346,347
 312.565771542 266.315197797 312.565771542 266.315197797 312.166015625 266.890625 c 0,348,349
 311.005518197 268.616901099 311.005518197 268.616901099 309.73046875 270.302734375 c 0,350,351
 309.200617497 271.003047157 309.200617497 271.003047157 308.626953125 271.724609375 c 0,352,353
 307.26366491 273.431298837 307.26366491 273.431298837 305.841796875 275.015625 c 0,354,355
 305.401394521 275.524115875 305.401394521 275.524115875 304.94921875 276.02734375 c 0,356,357
 303.06101632 278.06101632 303.06101632 278.06101632 301.02734375 279.94921875 c 0,358,359
 300.524115875 280.401394521 300.524115875 280.401394521 300.015625 280.841796875 c 0,360,361
 298.431298837 282.26366491 298.431298837 282.26366491 296.724609375 283.626953125 c 0,362,363
 296.003047157 284.200617497 296.003047157 284.200617497 295.302734375 284.73046875 c 0,364,365
 293.616901099 286.005518197 293.616901099 286.005518197 291.890625 287.166015625 c 0,366,367
 291.315197797 287.565771542 291.315197797 287.565771542 290.666015625 287.998046875 c 0,368,369
 288.332519531 289.508789062 288.332519531 289.508789062 285.884765625 290.84765625 c 0,370,371
 285.341145833 291.129231771 285.341145833 291.129231771 284.900390625 291.349609375 c 0,372,373
 282.905559277 292.400760359 282.905559277 292.400760359 280.84765625 293.33203125 c 0,374,375
 279.990116017 293.714344924 279.990116017 293.714344924 279.1796875 294.052734375 c 0,376,377
 277.274812583 294.856191344 277.274812583 294.856191344 275.337890625 295.55078125 c 0,378,379
 274.565017884 295.837848268 274.565017884 295.837848268 273.884765625 296.07421875 c 0,380,381
 271.229708267 296.974539371 271.229708267 296.974539371 268.50390625 297.677734375 c 0,382,383
 268.28515625 297.726953125 268.28515625 297.726953125 267.9140625 297.80859375 c 0,384,385
 265.480103928 298.404483729 265.480103928 298.404483729 263.01171875 298.8359375 c 0,386,387
 262.160654211 298.980009508 262.160654211 298.980009508 261.322265625 299.103515625 c 0,388,389
 259.311478325 299.41049484 259.311478325 299.41049484 257.27734375 299.609375 c 0,390,391
 256.385490725 299.703011892 256.385490725 299.703011892 255.576171875 299.76953125 c 0,392,393
 252.792309765 299.988503099 252.792309765 299.988503099 250 300 c 0,148,149
EndSplineSet
EndChar

StartChar: eight
Encoding: 56 56 1
Width: 500
VWidth: 1000
Flags: W
LayerCount: 2
Fore
SplineSet
150 450 m 2,0,-1
 350 450 l 2,1,2
 402 450 402 450 438.5 413.5 c 128,-1,3
 475 377 475 377 475 325 c 2,4,-1
 475 -25 l 2,5,6
 475 -35 475 -35 467.5 -42.5 c 128,-1,7
 460 -50 460 -50 450 -50 c 128,-1,8
 440 -50 440 -50 432.5 -42.5 c 128,-1,9
 425 -35 425 -35 425 -25 c 2,10,-1
 425 325 l 2,11,12
 425 356 425 356 403 378 c 128,-1,13
 381 400 381 400 350 400 c 2,14,-1
 150 400 l 2,15,16
 119 400 119 400 97 378 c 128,-1,17
 75 356 75 356 75 325 c 2,18,-1
 75 -25 l 2,19,20
 75 -35 75 -35 67.5 -42.5 c 128,-1,21
 60 -50 60 -50 50 -50 c 128,-1,22
 40 -50 40 -50 32.5 -42.5 c 128,-1,23
 25 -35 25 -35 25 -25 c 2,24,-1
 25 325 l 2,25,26
 25 377 25 377 61.5 413.5 c 128,-1,27
 98 450 98 450 150 450 c 2,0,-1
250 350 m 0,28,29
 258.843559896 349.964097272 258.843559896 349.964097272 267.59765625 348.681640625 c 0,30,31
 269.553792689 348.317606265 269.553792689 348.317606265 271.51953125 347.88671875 c 0,32,33
 278.28762869 346.752842685 278.28762869 346.752842685 284.88671875 344.88671875 c 0,34,35
 287.113870411 344.163483654 287.113870411 344.163483654 289.314453125 343.35546875 c 0,36,37
 295.532163782 341.335740265 295.532163782 341.335740265 301.513671875 338.673828125 c 0,38,39
 303.705356277 337.623769089 303.705356277 337.623769089 305.828125 336.50390625 c 0,40,41
 311.659255256 333.611033193 311.659255256 333.611033193 317.15234375 330.1328125 c 0,42,43
 336.248355783 318.030408684 336.248355783 318.030408684 349.8984375 300 c 1,44,-1
 349.6015625 300 l 0,45,46
 353.167661103 295.136473398 353.167661103 295.136473398 356.2578125 289.935546875 c 0,47,48
 360.431883635 283.15341927 360.431883635 283.15341927 363.708984375 275.904296875 c 0,49,50
 365.158841385 272.770112632 365.158841385 272.770112632 366.421875 269.58984375 c 0,51,52
 369.656108836 261.142663168 369.656108836 261.142663168 371.640625 252.322265625 c 0,53,54
 372.359375348 249.160944792 372.359375348 249.160944792 372.916015625 245.94921875 c 0,55,56
 373.760433909 241.292391913 373.760433909 241.292391913 374.251953125 236.55859375 c 0,57,58
 374.89335549 230.797714387 374.89335549 230.797714387 375 225 c 0,59,60
 374.89335549 219.202285613 374.89335549 219.202285613 374.251953125 213.44140625 c 0,61,62
 373.760433909 208.707608087 373.760433909 208.707608087 372.916015625 204.05078125 c 0,63,64
 372.359375348 200.839055208 372.359375348 200.839055208 371.640625 197.677734375 c 0,65,66
 369.656108836 188.857336832 369.656108836 188.857336832 366.421875 180.41015625 c 0,67,68
 365.158841385 177.229887368 365.158841385 177.229887368 363.708984375 174.095703125 c 0,69,70
 360.431883635 166.84658073 360.431883635 166.84658073 356.2578125 160.064453125 c 0,71,72
 353.167661103 154.863526602 353.167661103 154.863526602 349.6015625 150 c 1,73,-1
 349.8984375 150 l 0,74,75
 336.247076133 131.968373189 336.247076133 131.968373189 317.1484375 119.865234375 c 0,76,77
 311.646146877 116.381727403 311.646146877 116.381727403 305.828125 113.49609375 c 0,78,79
 303.705356277 112.376230911 303.705356277 112.376230911 301.513671875 111.326171875 c 0,80,81
 295.532163782 108.664259735 295.532163782 108.664259735 289.314453125 106.64453125 c 0,82,83
 287.113870411 105.836516346 287.113870411 105.836516346 284.88671875 105.11328125 c 0,84,85
 278.28762869 103.247157315 278.28762869 103.247157315 271.51953125 102.11328125 c 0,86,87
 269.553792689 101.682393735 269.553792689 101.682393735 267.59765625 101.318359375 c 0,88,89
 258.843559896 100.035902728 258.843559896 100.035902728 250 100 c 0,90,91
 241.431295533 100.047452131 241.431295533 100.047452131 232.9609375 101.26171875 c 0,92,93
 227.517651788 102.144492995 227.517651788 102.144492995 222.181640625 103.5 c 0,94,95
 219.222934784 104.086741367 219.222934784 104.086741367 216.296875 104.81640625 c 0,96,97
 210.269608781 106.606508726 210.269608781 106.606508726 204.453125 108.9921875 c 0,98,99
 202.409778835 109.734554272 202.409778835 109.734554272 200.384765625 110.55078125 c 0,100,101
 194.245450999 113.283757026 194.245450999 113.283757026 188.42578125 116.666015625 c 0,102,103
 186.941527143 117.472044029 186.941527143 117.472044029 185.453125 118.333984375 c 0,104,105
 164.158653843 131.288231238 164.158653843 131.288231238 149.4609375 151.41796875 c 0,106,107
 148.201993072 153.251455034 148.201993072 153.251455034 147.04296875 155.07421875 c 0,108,109
 145.132074337 157.802185257 145.132074337 157.802185257 143.373046875 160.623046875 c 0,110,111
 140.149661771 166.029254722 140.149661771 166.029254722 137.486328125 171.732421875 c 0,112,113
 135.090618285 176.643775113 135.090618285 176.643775113 133.13671875 181.732421875 c 0,114,115
 130.265219358 189.402661433 130.265219358 189.402661433 128.419921875 197.380859375 c 0,116,117
 127.634862714 200.803064339 127.634862714 200.803064339 127.044921875 204.24609375 c 0,118,119
 126.101229534 209.384631669 126.101229534 209.384631669 125.58984375 214.580078125 c 128,-1,120
 125.077864783 219.770082049 125.077864783 219.770082049 125 225 c 128,-1,121
 125.077864783 230.229917951 125.077864783 230.229917951 125.58984375 235.419921875 c 128,-1,122
 126.101229534 240.615368331 126.101229534 240.615368331 127.044921875 245.75390625 c 0,123,124
 127.634862714 249.196935661 127.634862714 249.196935661 128.419921875 252.619140625 c 0,125,126
 130.265219358 260.597338567 130.265219358 260.597338567 133.13671875 268.267578125 c 0,127,128
 135.090618285 273.356224887 135.090618285 273.356224887 137.486328125 278.267578125 c 0,129,130
 140.148303462 283.967836643 140.148303462 283.967836643 143.37109375 289.373046875 c 0,131,132
 145.136471215 292.204091666 145.136471215 292.204091666 147.04296875 294.92578125 c 0,133,134
 148.209657057 296.760597892 148.209657057 296.760597892 149.458984375 298.580078125 c 0,135,136
 164.157705605 318.711191912 164.157705605 318.711191912 185.453125 331.666015625 c 0,137,138
 186.941527143 332.527955971 186.941527143 332.527955971 188.42578125 333.333984375 c 0,139,140
 194.245450999 336.716242974 194.245450999 336.716242974 200.384765625 339.44921875 c 0,141,142
 202.409778835 340.265445728 202.409778835 340.265445728 204.453125 341.0078125 c 0,143,144
 210.269608781 343.393491274 210.269608781 343.393491274 216.296875 345.18359375 c 0,145,146
 219.222934784 345.913258633 219.222934784 345.913258633 222.181640625 346.5 c 0,147,148
 227.517651788 347.855507005 227.517651788 347.855507005 232.9609375 348.73828125 c 0,149,150
 241.431295533 349.952547869 241.431295533 349.952547869 250 350 c 0,28,29
250 300 m 0,151,152
 242.345148103 299.919498271 242.345148103 299.919498271 234.865234375 298.294921875 c 0,153,154
 234.479651734 298.193040283 234.479651734 298.193040283 234.130859375 298.09765625 c 0,155,156
 232.391003212 297.676273365 232.391003212 297.676273365 230.6640625 297.169921875 c 0,157,-1
 230.375 297.091796875 l 0,158,159
 225.149415272 295.675708905 225.149415272 295.675708905 220.18359375 293.525390625 c 0,160,-1
 220.107421875 293.498046875 l 0,161,-1
 220.095703125 293.494140625 l 0,162,163
 218.880615072 293.094557879 218.880615072 293.094557879 217.69921875 292.66015625 c 1,164,-1
 217.892578125 292.466796875 l 1,165,166
 216.74347713 291.955446932 216.74347713 291.955446932 215.5546875 291.376953125 c 0,167,168
 212.077404855 289.44123659 212.077404855 289.44123659 208.8203125 287.14453125 c 0,169,170
 207.655289013 286.440786098 207.655289013 286.440786098 206.541015625 285.712890625 c 0,171,172
 206.047909426 285.407781165 206.047909426 285.407781165 205.609375 285.126953125 c 0,173,174
 204.088804984 284.114229736 204.088804984 284.114229736 202.669921875 283.068359375 c 0,175,176
 196.75445788 278.24554212 196.75445788 278.24554212 191.931640625 272.330078125 c 0,177,178
 190.885770264 270.911195016 190.885770264 270.911195016 189.873046875 269.390625 c 0,179,180
 189.592218835 268.952090574 189.592218835 268.952090574 189.287109375 268.458984375 c 0,181,182
 188.559213902 267.344710987 188.559213902 267.344710987 187.85546875 266.1796875 c 0,183,184
 185.55876341 262.922595145 185.55876341 262.922595145 183.623046875 259.4453125 c 0,185,186
 183.059737531 258.287726545 183.059737531 258.287726545 182.537109375 257.11328125 c 1,187,-1
 182.33984375 257.30078125 l 1,188,189
 181.905442121 256.119384928 181.905442121 256.119384928 181.505859375 254.904296875 c 0,190,-1
 181.501953125 254.892578125 l 0,191,-1
 181.474609375 254.81640625 l 0,192,193
 179.324291095 249.850584728 179.324291095 249.850584728 177.908203125 244.625 c 0,194,-1
 177.83203125 244.34375 l 0,195,196
 177.325329245 242.615613838 177.325329245 242.615613838 176.90234375 240.869140625 c 0,197,198
 176.803670613 240.508320944 176.803670613 240.508320944 176.70703125 240.142578125 c 0,199,200
 175.080488687 232.653611722 175.080488687 232.653611722 175 225 c 128,-1,201
 175.080501729 217.345148103 175.080501729 217.345148103 176.705078125 209.865234375 c 0,202,203
 176.806959717 209.479651734 176.806959717 209.479651734 176.90234375 209.130859375 c 0,204,205
 177.323726635 207.391003212 177.323726635 207.391003212 177.830078125 205.6640625 c 0,206,-1
 177.908203125 205.375 l 0,207,208
 179.324291095 200.149415272 179.324291095 200.149415272 181.474609375 195.18359375 c 0,209,-1
 181.501953125 195.107421875 l 0,210,-1
 181.505859375 195.095703125 l 0,211,212
 181.905442121 193.880615072 181.905442121 193.880615072 182.33984375 192.69921875 c 1,213,-1
 182.533203125 192.892578125 l 1,214,215
 183.044553068 191.74347713 183.044553068 191.74347713 183.623046875 190.5546875 c 0,216,217
 185.55876341 187.077404855 185.55876341 187.077404855 187.85546875 183.8203125 c 0,218,219
 188.559213902 182.655289013 188.559213902 182.655289013 189.287109375 181.541015625 c 0,220,221
 189.592218835 181.047909426 189.592218835 181.047909426 189.873046875 180.609375 c 0,222,223
 190.885770264 179.088804984 190.885770264 179.088804984 191.931640625 177.669921875 c 0,224,225
 196.75445788 171.75445788 196.75445788 171.75445788 202.669921875 166.931640625 c 0,226,227
 204.088804984 165.885770264 204.088804984 165.885770264 205.609375 164.873046875 c 0,228,229
 206.047909426 164.592218835 206.047909426 164.592218835 206.541015625 164.287109375 c 0,230,231
 207.655289013 163.559213902 207.655289013 163.559213902 208.8203125 162.85546875 c 0,232,233
 212.077404855 160.55876341 212.077404855 160.55876341 215.5546875 158.623046875 c 0,234,235
 216.712273455 158.059737531 216.712273455 158.059737531 217.88671875 157.537109375 c 1,236,-1
 217.69921875 157.33984375 l 1,237,238
 218.880615072 156.905442121 218.880615072 156.905442121 220.095703125 156.505859375 c 0,239,-1
 220.107421875 156.501953125 l 0,240,-1
 220.18359375 156.474609375 l 0,241,242
 225.149415272 154.324291095 225.149415272 154.324291095 230.375 152.908203125 c 0,243,-1
 230.65625 152.83203125 l 0,244,245
 232.384386162 152.325329245 232.384386162 152.325329245 234.130859375 151.90234375 c 0,246,247
 234.491679056 151.803670613 234.491679056 151.803670613 234.857421875 151.70703125 c 0,248,249
 242.346388278 150.080488687 242.346388278 150.080488687 250 150 c 0,250,251
 252.792309765 150.011496901 252.792309765 150.011496901 255.576171875 150.23046875 c 0,252,253
 256.385490725 150.296988108 256.385490725 150.296988108 257.27734375 150.390625 c 0,254,255
 259.311478325 150.58950516 259.311478325 150.58950516 261.322265625 150.896484375 c 0,256,257
 262.160654211 151.019990492 262.160654211 151.019990492 263.01171875 151.1640625 c 0,258,259
 265.480103928 151.595516271 265.480103928 151.595516271 267.9140625 152.19140625 c 0,260,261
 268.28515625 152.273046875 268.28515625 152.273046875 268.50390625 152.322265625 c 0,262,263
 271.229708267 153.025460629 271.229708267 153.025460629 273.884765625 153.92578125 c 0,264,265
 274.565017884 154.162151732 274.565017884 154.162151732 275.337890625 154.44921875 c 0,266,267
 277.274812583 155.143808656 277.274812583 155.143808656 279.1796875 155.947265625 c 0,268,269
 279.990116017 156.285655076 279.990116017 156.285655076 280.84765625 156.66796875 c 0,270,271
 282.905559277 157.599239641 282.905559277 157.599239641 284.900390625 158.650390625 c 0,272,273
 285.341145833 158.870768229 285.341145833 158.870768229 285.884765625 159.15234375 c 0,274,275
 288.332519531 160.491699219 288.332519531 160.491699219 290.666015625 162.001953125 c 0,276,277
 291.315197797 162.434228458 291.315197797 162.434228458 291.890625 162.833984375 c 0,278,279
 293.616901099 163.994481803 293.616901099 163.994481803 295.302734375 165.26953125 c 0,280,281
 296.003047157 165.799382503 296.003047157 165.799382503 296.724609375 166.373046875 c 0,282,283
 298.431298837 167.73633509 298.431298837 167.73633509 300.015625 169.158203125 c 0,284,285
 300.524115875 169.598605479 300.524115875 169.598605479 301.02734375 170.05078125 c 0,286,287
 303.06101632 171.93898368 303.06101632 171.93898368 304.94921875 173.97265625 c 0,288,289
 305.401394521 174.475884125 305.401394521 174.475884125 305.841796875 174.984375 c 0,290,291
 307.26366491 176.568701163 307.26366491 176.568701163 308.626953125 178.275390625 c 0,292,293
 309.200617497 178.996952843 309.200617497 178.996952843 309.73046875 179.697265625 c 0,294,295
 311.005518197 181.383098901 311.005518197 181.383098901 312.166015625 183.109375 c 0,296,297
 312.565771542 183.684802203 312.565771542 183.684802203 312.998046875 184.333984375 c 0,298,299
 314.508789062 186.667480469 314.508789062 186.667480469 315.84765625 189.115234375 c 0,300,301
 316.129231771 189.658854167 316.129231771 189.658854167 316.349609375 190.099609375 c 0,302,303
 317.400760359 192.094440723 317.400760359 192.094440723 318.33203125 194.15234375 c 0,304,305
 318.714344924 195.009883983 318.714344924 195.009883983 319.052734375 195.8203125 c 0,306,307
 319.856191344 197.725187417 319.856191344 197.725187417 320.55078125 199.662109375 c 0,308,309
 320.837848268 200.434982116 320.837848268 200.434982116 321.07421875 201.115234375 c 0,310,311
 321.974539371 203.770291733 321.974539371 203.770291733 322.677734375 206.49609375 c 0,312,313
 322.726953125 206.71484375 322.726953125 206.71484375 322.80859375 207.0859375 c 0,314,315
 323.404483729 209.519896072 323.404483729 209.519896072 323.8359375 211.98828125 c 0,316,317
 323.980009508 212.839345789 323.980009508 212.839345789 324.103515625 213.677734375 c 0,318,319
 324.41049484 215.688521675 324.41049484 215.688521675 324.609375 217.72265625 c 0,320,321
 324.703011892 218.614509275 324.703011892 218.614509275 324.76953125 219.423828125 c 0,322,323
 324.988503099 222.207690235 324.988503099 222.207690235 325 225 c 128,-1,324
 324.988503099 227.792309765 324.988503099 227.792309765 324.76953125 230.576171875 c 0,325,326
 324.703011892 231.385490725 324.703011892 231.385490725 324.609375 232.27734375 c 0,327,328
 324.41049484 234.311478325 324.41049484 234.311478325 324.103515625 236.322265625 c 0,329,330
 323.980009508 237.160654211 323.980009508 237.160654211 323.8359375 238.01171875 c 0,331,332
 323.404483729 240.480103928 323.404483729 240.480103928 322.80859375 242.9140625 c 0,333,334
 322.726953125 243.28515625 322.726953125 243.28515625 322.677734375 243.50390625 c 0,335,336
 321.974539371 246.229708267 321.974539371 246.229708267 321.07421875 248.884765625 c 0,337,338
 320.837848268 249.565017884 320.837848268 249.565017884 320.55078125 250.337890625 c 0,339,340
 319.856191344 252.274812583 319.856191344 252.274812583 319.052734375 254.1796875 c 0,341,342
 318.714344924 254.990116017 318.714344924 254.990116017 318.33203125 255.84765625 c 0,343,344
 317.400760359 257.905559277 317.400760359 257.905559277 316.349609375 259.900390625 c 0,345,346
 316.129231771 260.341145833 316.129231771 260.341145833 315.84765625 260.884765625 c 0,347,348
 314.508300781 263.332519531 314.508300781 263.332519531 312.998046875 265.666015625 c 0,349,350
 312.565771542 266.315197797 312.565771542 266.315197797 312.166015625 266.890625 c 0,351,352
 311.005518197 268.616901099 311.005518197 268.616901099 309.73046875 270.302734375 c 0,353,354
 309.200617497 271.003047157 309.200617497 271.003047157 308.626953125 271.724609375 c 0,355,356
 307.26366491 273.431298837 307.26366491 273.431298837 305.841796875 275.015625 c 0,357,358
 305.401394521 275.524115875 305.401394521 275.524115875 304.94921875 276.02734375 c 0,359,360
 303.06101632 278.06101632 303.06101632 278.06101632 301.02734375 279.94921875 c 0,361,362
 300.524115875 280.401394521 300.524115875 280.401394521 300.015625 280.841796875 c 0,363,364
 298.431298837 282.26366491 298.431298837 282.26366491 296.724609375 283.626953125 c 0,365,366
 296.003047157 284.200617497 296.003047157 284.200617497 295.302734375 284.73046875 c 0,367,368
 293.616901099 286.005518197 293.616901099 286.005518197 291.890625 287.166015625 c 0,369,370
 291.315197797 287.565771542 291.315197797 287.565771542 290.666015625 287.998046875 c 0,371,372
 288.332519531 289.508789062 288.332519531 289.508789062 285.884765625 290.84765625 c 0,373,374
 285.341145833 291.129231771 285.341145833 291.129231771 284.900390625 291.349609375 c 0,375,376
 282.905559277 292.400760359 282.905559277 292.400760359 280.84765625 293.33203125 c 0,377,378
 279.990116017 293.714344924 279.990116017 293.714344924 279.1796875 294.052734375 c 0,379,380
 277.274812583 294.856191344 277.274812583 294.856191344 275.337890625 295.55078125 c 0,381,382
 274.565017884 295.837848268 274.565017884 295.837848268 273.884765625 296.07421875 c 0,383,384
 271.229708267 296.974539371 271.229708267 296.974539371 268.50390625 297.677734375 c 0,385,386
 268.28515625 297.726953125 268.28515625 297.726953125 267.9140625 297.80859375 c 0,387,388
 265.480103928 298.404483729 265.480103928 298.404483729 263.01171875 298.8359375 c 0,389,390
 262.160654211 298.980009508 262.160654211 298.980009508 261.322265625 299.103515625 c 0,391,392
 259.311478325 299.41049484 259.311478325 299.41049484 257.27734375 299.609375 c 0,393,394
 256.385490725 299.703011892 256.385490725 299.703011892 255.576171875 299.76953125 c 0,395,396
 252.792309765 299.988503099 252.792309765 299.988503099 250 300 c 0,151,152
EndSplineSet
EndChar

StartChar: parenleft
Encoding: 40 40 2
Width: 500
VWidth: 1000
Flags: W
LayerCount: 2
Fore
SplineSet
350 500 m 0,0,1
 360 500 360 500 367.5 492.5 c 128,-1,2
 375 485 375 485 375 475 c 128,-1,3
 375 465 375 465 367.5 457.5 c 128,-1,4
 360 450 360 450 350 450 c 0,5,6
 319 450 319 450 297 428 c 128,-1,7
 275 406 275 406 275 375 c 2,8,-1
 275 75 l 2,9,10
 275 44 275 44 297 22 c 128,-1,11
 319 0 319 0 350 0 c 0,12,13
 360 0 360 0 367.5 -7.5 c 128,-1,14
 375 -15 375 -15 375 -25 c 128,-1,15
 375 -35 375 -35 367.5 -42.5 c 128,-1,16
 360 -50 360 -50 350 -50 c 0,17,18
 298 -50 298 -50 261.5 -13.5 c 128,-1,19
 225 23 225 23 225 75 c 2,20,-1
 225 375 l 2,21,22
 225 427 225 427 261.5 463.5 c 128,-1,23
 298 500 298 500 350 500 c 0,0,1
EndSplineSet
EndChar

StartChar: parenright
Encoding: 41 41 3
Width: 500
VWidth: 1000
Flags: W
LayerCount: 2
Fore
SplineSet
150 500 m 0,0,1
 202 500 202 500 238.5 463.5 c 128,-1,2
 275 427 275 427 275 375 c 2,3,-1
 275 75 l 2,4,5
 275 23 275 23 238.5 -13.5 c 128,-1,6
 202 -50 202 -50 150 -50 c 0,7,8
 140 -50 140 -50 132.5 -42.5 c 128,-1,9
 125 -35 125 -35 125 -25 c 128,-1,10
 125 -15 125 -15 132.5 -7.5 c 128,-1,11
 140 0 140 0 150 0 c 0,12,13
 181 0 181 0 203 22 c 128,-1,14
 225 44 225 44 225 75 c 2,15,-1
 225 375 l 2,16,17
 225 406 225 406 203 428 c 128,-1,18
 181 450 181 450 150 450 c 0,19,20
 140 450 140 450 132.5 457.5 c 128,-1,21
 125 465 125 465 125 475 c 128,-1,22
 125 485 125 485 132.5 492.5 c 128,-1,23
 140 500 140 500 150 500 c 0,0,1
EndSplineSet
EndChar

StartChar: l
Encoding: 108 108 4
Width: 500
VWidth: 1000
Flags: W
LayerCount: 2
Fore
SplineSet
150 450 m 2,0,-1
 350 450 l 2,1,2
 402 450 402 450 438.5 413.5 c 128,-1,3
 475 377 475 377 475 325 c 2,4,-1
 475 275 l 0,5,6
 475 225 475 225 475 175 c 0,7,-1
 475 125 l 1,8,9
 474.965335157 87.4406422221 474.965335157 87.4406422221 454.236328125 56.123046875 c 1,10,-1
 467.6796875 42.6796875 l 1,11,-1
 467.6796875 42.6796875 l 0,12,-1
 467.080078125 42.6796875 l 1,13,14
 474.755604306 35.5031257857 474.755604306 35.5031257857 475 25 c 0,15,16
 474.699240084 14.8981346404 474.699240084 14.8981346404 467.425046769 7.81967278895 c 128,-1,17
 460.150853453 0.7412109375 460.150853453 0.7412109375 450.0078125 0.7412109375 c 0,18,19
 439.648112891 0.7412109375 439.648112891 0.7412109375 432.3203125 8.080078125 c 1,20,-1
 432.3203125 7.3203125 l 1,21,-1
 428.930609809 10.6644422743 l 0,22,23
 425.540907118 14.0085720486 425.540907118 14.0085720486 422.180067274 17.3694118924 c 128,-1,24
 418.819227431 20.7302517361 418.819227431 20.7302517361 418.876953125 20.763671875 c 1,25,26
 387.559357778 0.0346648433576 387.559357778 0.0346648433576 350 0 c 2,27,-1
 150 0 l 2,28,29
 98 0 98 0 61.5 36.5 c 128,-1,30
 25 73 25 73 25 125 c 2,31,-1
 25 175 l 0,32,33
 25 225 25 225 25 275 c 0,34,-1
 25 325 l 1,35,36
 25.0346648434 362.559357778 25.0346648434 362.559357778 45.763671875 393.876953125 c 1,37,-1
 32.3203125 407.3203125 l 1,38,-1
 32.3203125 407.3203125 l 0,39,-1
 32.919921875 407.3203125 l 1,40,41
 25.2443956939 414.496874214 25.2443956939 414.496874214 25 425 c 0,42,43
 25.002197587 435.348437012 25.002197587 435.348437012 32.3207024319 442.671288819 c 128,-1,44
 39.6392072769 449.994140625 39.6392072769 449.994140625 49.9853515625 449.994140625 c 0,45,46
 52.8218833905 449.994140625 52.8218833905 449.994140625 55.560546875 449.369140625 c 0,47,48
 62.7228539456 447.446898377 62.7228539456 447.446898377 67.6796875 441.9296875 c 1,49,-1
 67.6796875 442.6796875 l 1,50,-1
 71.069390191 439.335557726 l 0,51,52
 74.4590928819 435.991427951 74.4590928819 435.991427951 77.8199327257 432.630588108 c 128,-1,53
 81.1807725694 429.269748264 81.1807725694 429.269748264 81.123046875 429.236328125 c 1,54,55
 112.440642222 449.965335157 112.440642222 449.965335157 150 450 c 2,0,-1
150 400 m 2,56,57
 133.019357904 399.985624245 133.019357904 399.985624245 117.701171875 392.658203125 c 1,58,-1
 417.658203125 92.701171875 l 1,59,60
 424.985624245 108.019357904 424.985624245 108.019357904 425 125 c 2,61,-1
 425 325 l 2,62,63
 425 356 425 356 403 378 c 128,-1,64
 381 400 381 400 350 400 c 2,65,-1
 150 400 l 2,56,57
82.341796875 357.298828125 m 1,66,67
 75.0143757552 341.980642096 75.0143757552 341.980642096 75 325 c 2,68,-1
 75 125 l 2,69,70
 75 94 75 94 97 72 c 128,-1,71
 119 50 119 50 150 50 c 2,72,-1
 200 50 l 0,73,74
 250 50 250 50 300 50 c 0,75,-1
 350 50 l 1,76,77
 366.980642096 50.0143757552 366.980642096 50.0143757552 382.298828125 57.341796875 c 1,78,-1
 82.341796875 357.298828125 l 1,66,67
EndSplineSet
Substitution2: "isol-1" uni006C.isol
Substitution2: "fina-1" uni006C.fina
Substitution2: "medi-1" uni006C.medi
Substitution2: "init-1" uni006C.init
EndChar

StartChar: Y
Encoding: 89 89 5
Width: 500
VWidth: 1000
Flags: W
LayerCount: 2
Fore
SplineSet
150 450 m 2,0,-1
 350 450 l 2,1,2
 402 450 402 450 438.5 413.5 c 128,-1,3
 475 377 475 377 475 325 c 2,4,-1
 475 275 l 0,5,6
 475 225 475 225 475 175 c 0,7,-1
 475 125 l 1,8,9
 474.965335157 87.4406422221 474.965335157 87.4406422221 454.236328125 56.123046875 c 1,10,-1
 467.6796875 42.6796875 l 1,11,-1
 467.6796875 42.6796875 l 0,12,-1
 467.080078125 42.6796875 l 1,13,14
 474.755604306 35.5031257857 474.755604306 35.5031257857 475 25 c 0,15,16
 474.699240084 14.8981346404 474.699240084 14.8981346404 467.425046769 7.81967278895 c 128,-1,17
 460.150853453 0.7412109375 460.150853453 0.7412109375 450.0078125 0.7412109375 c 0,18,19
 439.648112891 0.7412109375 439.648112891 0.7412109375 432.3203125 8.080078125 c 1,20,-1
 432.3203125 7.3203125 l 1,21,-1
 428.930609809 10.6644422743 l 0,22,23
 425.540907118 14.0085720486 425.540907118 14.0085720486 422.180067274 17.3694118924 c 128,-1,24
 418.819227431 20.7302517361 418.819227431 20.7302517361 418.876953125 20.763671875 c 1,25,26
 387.559357778 0.0346648433576 387.559357778 0.0346648433576 350 0 c 2,27,-1
 150 0 l 2,28,29
 98 0 98 0 61.5 36.5 c 128,-1,30
 25 73 25 73 25 125 c 0,31,32
 25 135 25 135 32.5 142.5 c 128,-1,33
 40 150 40 150 50 150 c 128,-1,34
 60 150 60 150 67.5 142.5 c 128,-1,35
 75 135 75 135 75 125 c 0,36,37
 75 94 75 94 97 72 c 128,-1,38
 119 50 119 50 150 50 c 2,39,-1
 200 50 l 0,40,41
 250 50 250 50 300 50 c 0,42,-1
 350 50 l 1,43,44
 366.980642096 50.0143757552 366.980642096 50.0143757552 382.298828125 57.341796875 c 1,45,-1
 318.67578125 120.96484375 l 0,46,47
 317.929814214 120.419328508 317.929814214 120.419328508 317.1484375 119.865234375 c 0,48,49
 311.646146877 116.381727403 311.646146877 116.381727403 305.828125 113.49609375 c 0,50,51
 303.705356277 112.376230911 303.705356277 112.376230911 301.513671875 111.326171875 c 0,52,53
 295.532163782 108.664259735 295.532163782 108.664259735 289.314453125 106.64453125 c 0,54,55
 287.113870411 105.836516346 287.113870411 105.836516346 284.88671875 105.11328125 c 0,56,57
 278.28762869 103.247157315 278.28762869 103.247157315 271.51953125 102.11328125 c 0,58,59
 269.553792689 101.682393735 269.553792689 101.682393735 267.59765625 101.318359375 c 0,60,61
 258.843559896 100.035902728 258.843559896 100.035902728 250 100 c 0,62,63
 241.431295533 100.047452131 241.431295533 100.047452131 232.9609375 101.26171875 c 0,64,65
 227.517651788 102.144492995 227.517651788 102.144492995 222.181640625 103.5 c 0,66,67
 219.222934784 104.086741367 219.222934784 104.086741367 216.296875 104.81640625 c 0,68,69
 210.269608781 106.606508726 210.269608781 106.606508726 204.453125 108.9921875 c 0,70,71
 202.409778835 109.734554272 202.409778835 109.734554272 200.384765625 110.55078125 c 0,72,73
 194.245450999 113.283757026 194.245450999 113.283757026 188.42578125 116.666015625 c 0,74,75
 186.941527143 117.472044029 186.941527143 117.472044029 185.453125 118.333984375 c 0,76,77
 164.158653843 131.288231238 164.158653843 131.288231238 149.4609375 151.41796875 c 0,78,79
 148.201993072 153.251455034 148.201993072 153.251455034 147.04296875 155.07421875 c 0,80,81
 145.132074337 157.802185257 145.132074337 157.802185257 143.373046875 160.623046875 c 0,82,83
 140.149661771 166.029254722 140.149661771 166.029254722 137.486328125 171.732421875 c 0,84,85
 135.090618285 176.643775113 135.090618285 176.643775113 133.13671875 181.732421875 c 0,86,87
 130.265219358 189.402661433 130.265219358 189.402661433 128.419921875 197.380859375 c 0,88,89
 127.634862714 200.803064339 127.634862714 200.803064339 127.044921875 204.24609375 c 0,90,91
 126.101229534 209.384631669 126.101229534 209.384631669 125.58984375 214.580078125 c 128,-1,92
 125.077864783 219.770082049 125.077864783 219.770082049 125 225 c 128,-1,93
 125.077864783 230.229917951 125.077864783 230.229917951 125.58984375 235.419921875 c 128,-1,94
 126.101229534 240.615368331 126.101229534 240.615368331 127.044921875 245.75390625 c 0,95,96
 127.634862714 249.196935661 127.634862714 249.196935661 128.419921875 252.619140625 c 0,97,98
 130.265219358 260.597338567 130.265219358 260.597338567 133.13671875 268.267578125 c 0,99,100
 135.090618285 273.356224887 135.090618285 273.356224887 137.486328125 278.267578125 c 0,101,102
 140.148303462 283.967836643 140.148303462 283.967836643 143.37109375 289.373046875 c 0,103,104
 144.716590618 291.498370687 144.716590618 291.498370687 146.115234375 293.525390625 c 2,105,-1
 82.341796875 357.298828125 l 1,106,107
 75.0143757552 341.980642096 75.0143757552 341.980642096 75 325 c 0,108,109
 75 315 75 315 67.5 307.5 c 128,-1,110
 60 300 60 300 50 300 c 128,-1,111
 40 300 40 300 32.5 307.5 c 128,-1,112
 25 315 25 315 25 325 c 0,113,114
 25.0346648434 362.559357778 25.0346648434 362.559357778 45.763671875 393.876953125 c 1,115,-1
 32.3203125 407.3203125 l 1,116,-1
 32.3203125 407.3203125 l 0,117,-1
 32.919921875 407.3203125 l 1,118,119
 25.2443956939 414.496874214 25.2443956939 414.496874214 25 425 c 0,120,121
 25.002197587 435.348437012 25.002197587 435.348437012 32.3207024319 442.671288819 c 128,-1,122
 39.6392072769 449.994140625 39.6392072769 449.994140625 49.9853515625 449.994140625 c 0,123,124
 52.8218833905 449.994140625 52.8218833905 449.994140625 55.560546875 449.369140625 c 0,125,126
 62.7228539456 447.446898377 62.7228539456 447.446898377 67.6796875 441.9296875 c 1,127,-1
 67.6796875 442.6796875 l 1,128,-1
 71.069390191 439.335557726 l 0,129,130
 74.4590928819 435.991427951 74.4590928819 435.991427951 77.8199327257 432.630588108 c 128,-1,131
 81.1807725694 429.269748264 81.1807725694 429.269748264 81.123046875 429.236328125 c 1,132,133
 112.440642222 449.965335157 112.440642222 449.965335157 150 450 c 2,0,-1
150 400 m 2,134,135
 133.019357904 399.985624245 133.019357904 399.985624245 117.701171875 392.658203125 c 1,136,-1
 181.482421875 328.876953125 l 0,137,138
 183.445856408 330.313291139 183.445856408 330.313291139 185.453125 331.666015625 c 0,139,140
 186.941527143 332.527955971 186.941527143 332.527955971 188.42578125 333.333984375 c 0,141,142
 194.245450999 336.716242974 194.245450999 336.716242974 200.384765625 339.44921875 c 0,143,144
 202.409778835 340.265445728 202.409778835 340.265445728 204.453125 341.0078125 c 0,145,146
 210.269608781 343.393491274 210.269608781 343.393491274 216.296875 345.18359375 c 0,147,148
 219.222934784 345.913258633 219.222934784 345.913258633 222.181640625 346.5 c 0,149,150
 227.517651788 347.855507005 227.517651788 347.855507005 232.9609375 348.73828125 c 0,151,152
 241.431295533 349.952547869 241.431295533 349.952547869 250 350 c 0,153,154
 258.843559896 349.964097272 258.843559896 349.964097272 267.59765625 348.681640625 c 0,155,156
 269.553792689 348.317606265 269.553792689 348.317606265 271.51953125 347.88671875 c 0,157,158
 278.28762869 346.752842685 278.28762869 346.752842685 284.88671875 344.88671875 c 0,159,160
 287.113870411 344.163483654 287.113870411 344.163483654 289.314453125 343.35546875 c 0,161,162
 295.532163782 341.335740265 295.532163782 341.335740265 301.513671875 338.673828125 c 0,163,164
 303.705356277 337.623769089 303.705356277 337.623769089 305.828125 336.50390625 c 0,165,166
 311.659255256 333.611033193 311.659255256 333.611033193 317.15234375 330.1328125 c 0,167,168
 336.248355783 318.030408684 336.248355783 318.030408684 349.8984375 300 c 1,169,-1
 349.6015625 300 l 0,170,171
 353.167661103 295.136473398 353.167661103 295.136473398 356.2578125 289.935546875 c 0,172,173
 360.431883635 283.15341927 360.431883635 283.15341927 363.708984375 275.904296875 c 0,174,175
 365.158841385 272.770112632 365.158841385 272.770112632 366.421875 269.58984375 c 0,176,177
 369.656108836 261.142663168 369.656108836 261.142663168 371.640625 252.322265625 c 0,178,179
 372.359375348 249.160944792 372.359375348 249.160944792 372.916015625 245.94921875 c 0,180,181
 373.760433909 241.292391913 373.760433909 241.292391913 374.251953125 236.55859375 c 0,182,183
 374.89335549 230.797714387 374.89335549 230.797714387 375 225 c 0,184,185
 374.89335549 219.202285613 374.89335549 219.202285613 374.251953125 213.44140625 c 0,186,187
 373.760433909 208.707608087 373.760433909 208.707608087 372.916015625 204.05078125 c 0,188,189
 372.359375348 200.839055208 372.359375348 200.839055208 371.640625 197.677734375 c 0,190,191
 369.656108836 188.857336832 369.656108836 188.857336832 366.421875 180.41015625 c 0,192,193
 365.158841385 177.229887368 365.158841385 177.229887368 363.708984375 174.095703125 c 0,194,195
 360.431883635 166.84658073 360.431883635 166.84658073 356.2578125 160.064453125 c 0,196,197
 355.092875163 158.233837309 355.092875163 158.233837309 353.884765625 156.474609375 c 2,198,-1
 417.658203125 92.701171875 l 1,199,200
 424.985624245 108.019357904 424.985624245 108.019357904 425 125 c 2,201,-1
 425 325 l 2,202,203
 425 356 425 356 403 378 c 128,-1,204
 381 400 381 400 350 400 c 2,205,-1
 150 400 l 2,134,135
250 300 m 0,206,207
 242.345148103 299.919498271 242.345148103 299.919498271 234.865234375 298.294921875 c 0,208,209
 234.479651734 298.193040283 234.479651734 298.193040283 234.130859375 298.09765625 c 0,210,211
 232.391003212 297.676273365 232.391003212 297.676273365 230.6640625 297.169921875 c 0,212,-1
 230.375 297.091796875 l 0,213,214
 225.149415272 295.675708905 225.149415272 295.675708905 220.18359375 293.525390625 c 0,215,-1
 220.107421875 293.498046875 l 0,216,-1
 220.095703125 293.494140625 l 0,217,218
 218.880615072 293.094557879 218.880615072 293.094557879 217.69921875 292.66015625 c 1,219,-1
 217.892578125 292.466796875 l 1,220,-1
 317.634765625 192.724609375 l 1,221,222
 317.996613721 193.446810327 317.996613721 193.446810327 318.33203125 194.15234375 c 128,-1,223
 318.714344924 195.009883983 318.714344924 195.009883983 319.052734375 195.8203125 c 0,224,225
 319.856191344 197.725187417 319.856191344 197.725187417 320.55078125 199.662109375 c 0,226,227
 320.837848268 200.434982116 320.837848268 200.434982116 321.07421875 201.115234375 c 0,228,229
 321.974539371 203.770291733 321.974539371 203.770291733 322.677734375 206.49609375 c 0,230,231
 322.726953125 206.71484375 322.726953125 206.71484375 322.80859375 207.0859375 c 0,232,233
 323.404483729 209.519896072 323.404483729 209.519896072 323.8359375 211.98828125 c 0,234,235
 323.980009508 212.839345789 323.980009508 212.839345789 324.103515625 213.677734375 c 0,236,237
 324.41049484 215.688521675 324.41049484 215.688521675 324.609375 217.72265625 c 0,238,239
 324.703011892 218.614509275 324.703011892 218.614509275 324.76953125 219.423828125 c 0,240,241
 324.988503099 222.207690235 324.988503099 222.207690235 325 225 c 128,-1,242
 324.988503099 227.792309765 324.988503099 227.792309765 324.76953125 230.576171875 c 0,243,244
 324.703011892 231.385490725 324.703011892 231.385490725 324.609375 232.27734375 c 0,245,246
 324.41049484 234.311478325 324.41049484 234.311478325 324.103515625 236.322265625 c 0,247,248
 323.980009508 237.160654211 323.980009508 237.160654211 323.8359375 238.01171875 c 0,249,250
 323.404483729 240.480103928 323.404483729 240.480103928 322.80859375 242.9140625 c 0,251,252
 322.726953125 243.28515625 322.726953125 243.28515625 322.677734375 243.50390625 c 0,253,254
 321.974539371 246.229708267 321.974539371 246.229708267 321.07421875 248.884765625 c 0,255,256
 320.837848268 249.565017884 320.837848268 249.565017884 320.55078125 250.337890625 c 0,257,258
 319.856191344 252.274812583 319.856191344 252.274812583 319.052734375 254.1796875 c 0,259,260
 318.714344924 254.990116017 318.714344924 254.990116017 318.33203125 255.84765625 c 0,261,262
 317.400760359 257.905559277 317.400760359 257.905559277 316.349609375 259.900390625 c 0,263,264
 316.129231771 260.341145833 316.129231771 260.341145833 315.84765625 260.884765625 c 0,265,266
 314.508300781 263.332519531 314.508300781 263.332519531 312.998046875 265.666015625 c 0,267,268
 312.565771542 266.315197797 312.565771542 266.315197797 312.166015625 266.890625 c 0,269,270
 311.005518197 268.616901099 311.005518197 268.616901099 309.73046875 270.302734375 c 0,271,272
 309.200617497 271.003047157 309.200617497 271.003047157 308.626953125 271.724609375 c 0,273,274
 307.26366491 273.431298837 307.26366491 273.431298837 305.841796875 275.015625 c 0,275,276
 305.401394521 275.524115875 305.401394521 275.524115875 304.94921875 276.02734375 c 0,277,278
 303.06101632 278.06101632 303.06101632 278.06101632 301.02734375 279.94921875 c 0,279,280
 300.524115875 280.401394521 300.524115875 280.401394521 300.015625 280.841796875 c 0,281,282
 298.431298837 282.26366491 298.431298837 282.26366491 296.724609375 283.626953125 c 0,283,284
 296.003047157 284.200617497 296.003047157 284.200617497 295.302734375 284.73046875 c 0,285,286
 293.616901099 286.005518197 293.616901099 286.005518197 291.890625 287.166015625 c 0,287,288
 291.315197797 287.565771542 291.315197797 287.565771542 290.666015625 287.998046875 c 0,289,290
 288.332519531 289.508789062 288.332519531 289.508789062 285.884765625 290.84765625 c 0,291,292
 285.341145833 291.129231771 285.341145833 291.129231771 284.900390625 291.349609375 c 0,293,294
 282.905559277 292.400760359 282.905559277 292.400760359 280.84765625 293.33203125 c 0,295,296
 279.990116017 293.714344924 279.990116017 293.714344924 279.1796875 294.052734375 c 0,297,298
 277.274812583 294.856191344 277.274812583 294.856191344 275.337890625 295.55078125 c 0,299,300
 274.565017884 295.837848268 274.565017884 295.837848268 273.884765625 296.07421875 c 0,301,302
 271.229708267 296.974539371 271.229708267 296.974539371 268.50390625 297.677734375 c 0,303,304
 268.28515625 297.726953125 268.28515625 297.726953125 267.9140625 297.80859375 c 0,305,306
 265.480103928 298.404483729 265.480103928 298.404483729 263.01171875 298.8359375 c 0,307,308
 262.160654211 298.980009508 262.160654211 298.980009508 261.322265625 299.103515625 c 0,309,310
 259.311478325 299.41049484 259.311478325 299.41049484 257.27734375 299.609375 c 0,311,312
 256.385490725 299.703011892 256.385490725 299.703011892 255.576171875 299.76953125 c 0,313,314
 252.792309765 299.988503099 252.792309765 299.988503099 250 300 c 0,206,207
182.33984375 257.30078125 m 1,315,316
 181.905442121 256.119384928 181.905442121 256.119384928 181.505859375 254.904296875 c 0,317,-1
 181.501953125 254.892578125 l 0,318,-1
 181.474609375 254.81640625 l 0,319,320
 179.324291095 249.850584728 179.324291095 249.850584728 177.908203125 244.625 c 0,321,-1
 177.83203125 244.34375 l 0,322,323
 177.325329245 242.615613838 177.325329245 242.615613838 176.90234375 240.869140625 c 0,324,325
 176.803670613 240.508320944 176.803670613 240.508320944 176.70703125 240.142578125 c 0,326,327
 175.080488687 232.653611722 175.080488687 232.653611722 175 225 c 128,-1,328
 175.080501729 217.345148103 175.080501729 217.345148103 176.705078125 209.865234375 c 0,329,330
 176.806959717 209.479651734 176.806959717 209.479651734 176.90234375 209.130859375 c 0,331,332
 177.323726635 207.391003212 177.323726635 207.391003212 177.830078125 205.6640625 c 0,333,-1
 177.908203125 205.375 l 0,334,335
 179.324291095 200.149415272 179.324291095 200.149415272 181.474609375 195.18359375 c 0,336,-1
 181.501953125 195.107421875 l 0,337,-1
 181.505859375 195.095703125 l 0,338,339
 181.905442121 193.880615072 181.905442121 193.880615072 182.33984375 192.69921875 c 1,340,-1
 182.533203125 192.892578125 l 1,341,342
 183.044553068 191.74347713 183.044553068 191.74347713 183.623046875 190.5546875 c 0,343,344
 185.55876341 187.077404855 185.55876341 187.077404855 187.85546875 183.8203125 c 0,345,346
 188.559213902 182.655289013 188.559213902 182.655289013 189.287109375 181.541015625 c 0,347,348
 189.592218835 181.047909426 189.592218835 181.047909426 189.873046875 180.609375 c 0,349,350
 190.885770264 179.088804984 190.885770264 179.088804984 191.931640625 177.669921875 c 0,351,352
 196.75445788 171.75445788 196.75445788 171.75445788 202.669921875 166.931640625 c 0,353,354
 204.088804984 165.885770264 204.088804984 165.885770264 205.609375 164.873046875 c 0,355,356
 206.047909426 164.592218835 206.047909426 164.592218835 206.541015625 164.287109375 c 0,357,358
 207.655289013 163.559213902 207.655289013 163.559213902 208.8203125 162.85546875 c 0,359,360
 212.077404855 160.55876341 212.077404855 160.55876341 215.5546875 158.623046875 c 0,361,362
 216.712273455 158.059737531 216.712273455 158.059737531 217.88671875 157.537109375 c 1,363,-1
 217.69921875 157.33984375 l 1,364,365
 218.880615072 156.905442121 218.880615072 156.905442121 220.095703125 156.505859375 c 0,366,-1
 220.107421875 156.501953125 l 0,367,-1
 220.18359375 156.474609375 l 0,368,369
 225.149415272 154.324291095 225.149415272 154.324291095 230.375 152.908203125 c 0,370,-1
 230.65625 152.83203125 l 0,371,372
 232.384386162 152.325329245 232.384386162 152.325329245 234.130859375 151.90234375 c 0,373,374
 234.491679056 151.803670613 234.491679056 151.803670613 234.857421875 151.70703125 c 0,375,376
 242.346388278 150.080488687 242.346388278 150.080488687 250 150 c 0,377,378
 252.792309765 150.011496901 252.792309765 150.011496901 255.576171875 150.23046875 c 0,379,380
 256.385490725 150.296988108 256.385490725 150.296988108 257.27734375 150.390625 c 0,381,382
 259.311478325 150.58950516 259.311478325 150.58950516 261.322265625 150.896484375 c 0,383,384
 262.160654211 151.019990492 262.160654211 151.019990492 263.01171875 151.1640625 c 0,385,386
 265.480103928 151.595516271 265.480103928 151.595516271 267.9140625 152.19140625 c 0,387,388
 268.28515625 152.273046875 268.28515625 152.273046875 268.50390625 152.322265625 c 0,389,390
 271.229708267 153.025460629 271.229708267 153.025460629 273.884765625 153.92578125 c 0,391,392
 274.565017884 154.162151732 274.565017884 154.162151732 275.337890625 154.44921875 c 0,393,394
 277.274812583 155.143808656 277.274812583 155.143808656 279.1796875 155.947265625 c 0,395,396
 279.990116017 156.285655076 279.990116017 156.285655076 280.84765625 156.66796875 c 128,-1,397
 281.553189673 157.003386279 281.553189673 157.003386279 282.275390625 157.365234375 c 1,398,-1
 182.533203125 257.107421875 l 1,399,-1
 182.33984375 257.30078125 l 1,315,316
EndSplineSet
Substitution2: "isol-1" uni0059.isol
Substitution2: "fina-1" uni0059.fina
Substitution2: "medi-1" uni0059.medi
Substitution2: "init-1" uni0059.init
EndChar

StartChar: q
Encoding: 113 113 6
Width: 500
VWidth: 1000
Flags: W
LayerCount: 2
Fore
SplineSet
150 450 m 2,0,-1
 350 450 l 2,1,2
 402 450 402 450 438.5 413.5 c 128,-1,3
 475 377 475 377 475 325 c 2,4,-1
 475 125 l 2,5,6
 475 73 475 73 438.5 36.5 c 128,-1,7
 402 0 402 0 350 0 c 2,8,-1
 150 0 l 2,9,10
 98 0 98 0 61.5 36.5 c 128,-1,11
 25 73 25 73 25 125 c 0,12,13
 25 135 25 135 32.5 142.5 c 128,-1,14
 40 150 40 150 50 150 c 128,-1,15
 60 150 60 150 67.5 142.5 c 128,-1,16
 75 135 75 135 75 125 c 0,17,18
 75 94 75 94 97 72 c 128,-1,19
 119 50 119 50 150 50 c 2,20,-1
 350 50 l 2,21,22
 381 50 381 50 403 72 c 128,-1,23
 425 94 425 94 425 125 c 2,24,-1
 425 325 l 2,25,26
 425 356 425 356 403 378 c 128,-1,27
 381 400 381 400 350 400 c 2,28,-1
 150 400 l 2,29,30
 119 400 119 400 97 378 c 128,-1,31
 75 356 75 356 75 325 c 0,32,33
 75 315 75 315 67.5 307.5 c 128,-1,34
 60 300 60 300 50 300 c 128,-1,35
 40 300 40 300 32.5 307.5 c 128,-1,36
 25 315 25 315 25 325 c 0,37,38
 25 377 25 377 61.5 413.5 c 128,-1,39
 98 450 98 450 150 450 c 2,0,-1
EndSplineSet
Substitution2: "isol-1" uni0071.isol
Substitution2: "fina-1" uni0071.fina
Substitution2: "medi-1" uni0071.medi
Substitution2: "init-1" uni0071.init
EndChar

StartChar: e
Encoding: 101 101 7
Width: 0
VWidth: 1000
GlyphClass: 4
Flags: W
LayerCount: 2
Fore
SplineSet
-250.544921875 499.994140625 m 0,0,-1
 -250 500 l 0,1,2
 -240 500 -240 500 -232.5 492.5 c 128,-1,3
 -225 485 -225 485 -225 475 c 128,-1,4
 -225 465 -225 465 -232.5 457.5 c 128,-1,5
 -240 450 -240 450 -250 450 c 128,-1,6
 -260 450 -260 450 -267.5 457.5 c 128,-1,7
 -275 465 -275 465 -275 475 c 128,-1,8
 -275 484.83435089 -275 484.83435089 -268.296024405 492.017364189 c 128,-1,9
 -261.592048809 499.200377487 -261.592048809 499.200377487 -251.869140625 499.9296875 c 0,10,11
 -251.200190918 499.979895646 -251.200190918 499.979895646 -250.544921875 499.994140625 c 0,0,-1
EndSplineSet
EndChar

StartChar: d
Encoding: 100 100 8
Width: 500
VWidth: 1000
Flags: W
LayerCount: 2
Fore
SplineSet
44.4375 499.373046875 m 0,0,1
 47.1862181161 500 47.1862181161 500 50 500 c 0,2,3
 60 500 60 500 67.5 492.5 c 128,-1,4
 75 485 75 485 75 475 c 2,5,-1
 75 435.359375 l 1,6,-1
 417.267578125 93.091796875 l 1,7,8
 424.711875752 108.177865786 424.711875752 108.177865786 425 125 c 2,9,-1
 425 475 l 2,10,11
 425 485 425 485 432.5 492.5 c 128,-1,12
 440 500 440 500 450 500 c 128,-1,13
 460 500 460 500 467.5 492.5 c 128,-1,14
 475 485 475 485 475 475 c 2,15,-1
 475 387.5 l 0,16,17
 475 300 475 300 475 212.5 c 0,18,-1
 475 125 l 1,19,20
 474.965335157 87.4406422221 474.965335157 87.4406422221 454.236328125 56.123046875 c 1,21,-1
 467.6796875 42.6796875 l 1,22,-1
 467.6796875 42.6796875 l 0,23,-1
 467.080078125 42.6796875 l 1,24,25
 474.755604306 35.5031257857 474.755604306 35.5031257857 475 25 c 0,26,27
 474.699240084 14.8981346404 474.699240084 14.8981346404 467.425046769 7.81967278895 c 128,-1,28
 460.150853453 0.7412109375 460.150853453 0.7412109375 450.0078125 0.7412109375 c 0,29,30
 439.648112891 0.7412109375 439.648112891 0.7412109375 432.3203125 8.080078125 c 1,31,-1
 432.3203125 7.3203125 l 1,32,-1
 428.930609809 10.6644422743 l 0,33,34
 425.540907118 14.0085720486 425.540907118 14.0085720486 422.180067274 17.3694118924 c 128,-1,35
 418.819227431 20.7302517361 418.819227431 20.7302517361 418.876953125 20.763671875 c 1,36,37
 387.559357778 0.0346648433576 387.559357778 0.0346648433576 350 0 c 2,38,-1
 150 0 l 2,39,40
 98 0 98 0 61.5 36.5 c 128,-1,41
 25 73 25 73 25 125 c 2,42,-1
 25 475 l 0,43,44
 25 483.826978577 25 483.826978577 30.5083237317 490.639130132 c 128,-1,45
 36.0166474634 497.451281688 36.0166474634 497.451281688 44.4375 499.373046875 c 0,0,1
75 364.640625 m 1,46,-1
 75 125 l 2,47,48
 75 94 75 94 97 72 c 128,-1,49
 119 50 119 50 150 50 c 2,50,-1
 200 50 l 0,51,52
 250 50 250 50 300 50 c 0,53,-1
 350 50 l 1,54,55
 366.822134214 50.2881242479 366.822134214 50.2881242479 381.908203125 57.732421875 c 1,56,-1
 75 364.640625 l 1,46,-1
EndSplineSet
Substitution2: "isol-1" uni0064.isol
Substitution2: "fina-1" uni0064.fina
Substitution2: "medi-1" uni0064.medi
Substitution2: "init-1" uni0064.init
EndChar

StartChar: p
Encoding: 112 112 9
Width: 500
VWidth: 1000
Flags: W
LayerCount: 2
Fore
SplineSet
150 450 m 2,0,-1
 350 450 l 2,1,2
 402 450 402 450 438.5 413.5 c 128,-1,3
 475 377 475 377 475 325 c 0,4,5
 475 315 475 315 467.5 307.5 c 128,-1,6
 460 300 460 300 450 300 c 128,-1,7
 440 300 440 300 432.5 307.5 c 128,-1,8
 425 315 425 315 425 325 c 0,9,10
 425 356 425 356 403 378 c 128,-1,11
 381 400 381 400 350 400 c 2,12,-1
 150 400 l 2,13,14
 119 400 119 400 97 378 c 128,-1,15
 75 356 75 356 75 325 c 2,16,-1
 75 125 l 2,17,18
 75 94 75 94 97 72 c 128,-1,19
 119 50 119 50 150 50 c 2,20,-1
 350 50 l 2,21,22
 381 50 381 50 403 72 c 128,-1,23
 425 94 425 94 425 125 c 0,24,25
 425 135 425 135 432.5 142.5 c 128,-1,26
 440 150 440 150 450 150 c 128,-1,27
 460 150 460 150 467.5 142.5 c 128,-1,28
 475 135 475 135 475 125 c 0,29,30
 475 73 475 73 438.5 36.5 c 128,-1,31
 402 0 402 0 350 0 c 2,32,-1
 150 0 l 2,33,34
 98 0 98 0 61.5 36.5 c 128,-1,35
 25 73 25 73 25 125 c 2,36,-1
 25 325 l 2,37,38
 25 377 25 377 61.5 413.5 c 128,-1,39
 98 450 98 450 150 450 c 2,0,-1
EndSplineSet
Substitution2: "isol-1" uni0070.isol
Substitution2: "fina-1" uni0070.fina
Substitution2: "medi-1" uni0070.medi
Substitution2: "init-1" uni0070.init
EndChar

StartChar: X
Encoding: 88 88 10
Width: 500
VWidth: 1000
Flags: W
LayerCount: 2
Fore
SplineSet
50 450 m 1,0,-1
 350 450 l 2,1,2
 402 450 402 450 438.5 413.5 c 128,-1,3
 475 377 475 377 475 325 c 2,4,-1
 475 -25 l 2,5,6
 475 -35 475 -35 467.5 -42.5 c 128,-1,7
 460 -50 460 -50 450 -50 c 128,-1,8
 440 -50 440 -50 432.5 -42.5 c 128,-1,9
 425 -35 425 -35 425 -25 c 2,10,-1
 425 14.640625 l 1,11,-1
 32.3203125 407.3203125 l 1,12,-1
 32.919921875 407.3203125 l 1,13,-1
 32.705078125 407.62109375 l 0,14,15
 31.1037049954 409.455207581 31.1037049954 409.455207581 29.880859375 411.576171875 c 0,16,17
 28.3137934734 413.431636759 28.3137934734 413.431636759 27.13671875 415.546875 c 0,18,19
 25.1339765686 420.064476085 25.1339765686 420.064476085 25 425 c 0,20,21
 25.1398033417 429.96662181 25.1398033417 429.96662181 27.169921875 434.50390625 c 0,22,23
 29.020397787 438.550358323 29.020397787 438.550358323 32.15234375 441.708984375 c 0,24,25
 32.4202186661 442.055828197 32.4202186661 442.055828197 32.666015625 442.353515625 c 0,26,27
 36.08288931 445.646923696 36.08288931 445.646923696 40.46875 447.458984375 c 2,28,-1
 40.640625 447.541015625 l 1,29,30
 45.1445564607 449.364833608 45.1445564607 449.364833608 50 449.369140625 c 2,31,-1
 50 450 l 1,0,-1
110.359375 400 m 1,32,-1
 425 85.359375 l 1,33,-1
 425 325 l 2,34,35
 425 356 425 356 403 378 c 128,-1,36
 381 400 381 400 350 400 c 2,37,-1
 110.359375 400 l 1,32,-1
EndSplineSet
Substitution2: "isol-1" uni0058.isol
Substitution2: "fina-1" uni0058.fina
Substitution2: "medi-1" uni0058.medi
Substitution2: "init-1" uni0058.init
EndChar

StartChar: k
Encoding: 107 107 11
Width: 500
VWidth: 1000
Flags: W
LayerCount: 2
Fore
SplineSet
444.4375 499.373046875 m 0,0,1
 447.186218116 500 447.186218116 500 450 500 c 0,2,3
 460 500 460 500 467.5 492.5 c 128,-1,4
 475 485 475 485 475 475 c 2,5,-1
 475 125 l 2,6,7
 475 73 475 73 438.5 36.5 c 128,-1,8
 402 0 402 0 350 0 c 2,9,-1
 50 0 l 1,10,-1
 50 0.630859375 l 0,11,-1
 49.9921875 0.6416015625 l 0,12,13
 39.8165703983 0.6416015625 39.8165703983 0.6416015625 32.536249151 7.75137500001 c 128,-1,14
 25.2559279036 14.8611484375 25.2559279036 14.8611484375 25 25 c 0,15,16
 25.2559547481 35.1399150342 25.2559547481 35.1399150342 32.5367894432 42.2545278296 c 128,-1,17
 39.8176241384 49.369140625 39.8176241384 49.369140625 49.9921875 49.369140625 c 0,18,-1
 50 49.369140625 l 1,19,-1
 50 50 l 1,20,-1
 350 50 l 2,21,22
 381 50 381 50 403 72 c 128,-1,23
 425 94 425 94 425 125 c 2,24,-1
 425 475 l 0,25,26
 425 483.826978577 425 483.826978577 430.508323732 490.639130132 c 128,-1,27
 436.016647463 497.451281688 436.016647463 497.451281688 444.4375 499.373046875 c 0,0,1
EndSplineSet
Substitution2: "isol-1" uni006B.isol
Substitution2: "fina-1" uni006B.fina
Substitution2: "medi-1" uni006B.medi
Substitution2: "init-1" uni006B.init
EndChar

StartChar: braceright
Encoding: 125 125 12
Width: 500
VWidth: 1000
Flags: W
LayerCount: 2
Fore
SplineSet
150 500 m 0,0,1
 202 500 202 500 238.5 463.5 c 128,-1,2
 275 427 275 427 275 375 c 2,3,-1
 275 325 l 2,4,5
 275 294 275 294 297 272 c 128,-1,6
 319 250 319 250 350 250 c 0,7,8
 351.602721956 249.98557406 351.602721956 249.98557406 353.1796875 249.76953125 c 2,9,-1
 353.1796875 249.76953125 l 0,10,-1
 354.119140625 249.630859375 l 1,11,12
 355.308530132 249.427005933 355.308530132 249.427005933 356.470703125 249.109375 c 2,13,-1
 356.470703125 249.109375 l 0,14,-1
 357.310546875 248.890625 l 1,15,16
 358.839039774 248.428693556 358.839039774 248.428693556 360.2890625 247.779296875 c 2,17,-1
 360.73046875 247.55078125 l 1,18,19
 361.95907105 246.969960968 361.95907105 246.969960968 363.130859375 246.25 c 2,20,-1
 363.9296875 245.73046875 l 0,21,22
 364.966028488 245.031811904 364.966028488 245.031811904 365.9296875 244.23046875 c 2,23,-1
 366.509765625 243.75 l 0,24,25
 367.700481492 242.700481492 367.700481492 242.700481492 368.75 241.509765625 c 2,26,-1
 369.220703125 240.9296875 l 0,27,28
 370.022046279 239.966028488 370.022046279 239.966028488 370.720703125 238.9296875 c 2,29,-1
 370.720703125 238.9296875 l 0,30,-1
 371.240234375 238.130859375 l 1,31,32
 371.957487687 236.974471382 371.957487687 236.974471382 372.55078125 235.73046875 c 2,33,-1
 372.76953125 235.2890625 l 1,34,35
 373.426172381 233.832837951 373.426172381 233.832837951 373.890625 232.310546875 c 2,36,-1
 373.890625 232.310546875 l 0,37,-1
 374.109375 231.470703125 l 1,38,39
 374.421291829 230.307698949 374.421291829 230.307698949 374.619140625 229.119140625 c 2,40,-1
 374.76953125 228.1796875 l 0,41,42
 374.98557406 226.602721956 374.98557406 226.602721956 375 225 c 0,43,44
 374.919385687 220.47552171 374.919385687 220.47552171 373.259765625 216.26953125 c 0,45,46
 372.701611567 214.997527529 372.701611567 214.997527529 372.009765625 213.80078125 c 0,47,48
 370.606793128 211.003604835 370.606793128 211.003604835 368.560546875 208.640625 c 0,49,50
 367.528383608 207.471616392 367.528383608 207.471616392 366.359375 206.439453125 c 0,51,52
 363.996395165 204.393206872 363.996395165 204.393206872 361.19921875 202.990234375 c 0,53,54
 360.002472471 202.298388433 360.002472471 202.298388433 358.73046875 201.740234375 c 0,55,56
 354.52447829 200.080614313 354.52447829 200.080614313 350 200 c 0,57,58
 319 200 319 200 297 178 c 128,-1,59
 275 156 275 156 275 125 c 2,60,-1
 275 75 l 2,61,62
 275 23 275 23 238.5 -13.5 c 128,-1,63
 202 -50 202 -50 150 -50 c 0,64,65
 140 -50 140 -50 132.5 -42.5 c 128,-1,66
 125 -35 125 -35 125 -25 c 128,-1,67
 125 -15 125 -15 132.5 -7.5 c 128,-1,68
 140 0 140 0 150 0 c 0,69,70
 181 0 181 0 203 22 c 128,-1,71
 225 44 225 44 225 75 c 2,72,-1
 225 125 l 0,73,74
 225.064205522 187.794494121 225.064205522 187.794494121 275.48046875 225.23046875 c 1,75,76
 225.2956749 262.49313155 225.2956749 262.49313155 225 325 c 2,77,-1
 225 375 l 2,78,79
 225 406 225 406 203 428 c 128,-1,80
 181 450 181 450 150 450 c 0,81,82
 140 450 140 450 132.5 457.5 c 128,-1,83
 125 465 125 465 125 475 c 128,-1,84
 125 485 125 485 132.5 492.5 c 128,-1,85
 140 500 140 500 150 500 c 0,0,1
EndSplineSet
EndChar

StartChar: f
Encoding: 102 102 13
Width: 500
VWidth: 1000
Flags: W
LayerCount: 2
Fore
SplineSet
150 450 m 2,0,-1
 350 450 l 2,1,2
 402 450 402 450 438.5 413.5 c 128,-1,3
 475 377 475 377 475 325 c 2,4,-1
 475 -25 l 2,5,6
 475 -35 475 -35 467.5 -42.5 c 128,-1,7
 460 -50 460 -50 450 -50 c 128,-1,8
 440 -50 440 -50 432.5 -42.5 c 128,-1,9
 425 -35 425 -35 425 -25 c 2,10,-1
 425 325 l 2,11,12
 425 356 425 356 403 378 c 128,-1,13
 381 400 381 400 350 400 c 2,14,-1
 150 400 l 2,15,16
 119 400 119 400 97 378 c 128,-1,17
 75 356 75 356 75 325 c 2,18,-1
 75 -25 l 2,19,20
 75 -35 75 -35 67.5 -42.5 c 128,-1,21
 60 -50 60 -50 50 -50 c 128,-1,22
 40 -50 40 -50 32.5 -42.5 c 128,-1,23
 25 -35 25 -35 25 -25 c 2,24,-1
 25 325 l 2,25,26
 25 377 25 377 61.5 413.5 c 128,-1,27
 98 450 98 450 150 450 c 2,0,-1
EndSplineSet
Substitution2: "isol-1" uni0066.isol
Substitution2: "fina-1" uni0066.fina
Substitution2: "medi-1" uni0066.medi
Substitution2: "init-1" uni0066.init
EndChar

StartChar: r
Encoding: 114 114 14
Width: 500
VWidth: 1000
Flags: W
LayerCount: 2
Fore
SplineSet
150 450 m 2,0,-1
 350 450 l 2,1,2
 402 450 402 450 438.5 413.5 c 128,-1,3
 475 377 475 377 475 325 c 2,4,-1
 475 125 l 2,5,6
 475 73 475 73 438.5 36.5 c 128,-1,7
 402 0 402 0 350 0 c 2,8,-1
 150 0 l 2,9,10
 98 0 98 0 61.5 36.5 c 128,-1,11
 25 73 25 73 25 125 c 2,12,-1
 25 325 l 2,13,14
 25 377 25 377 61.5 413.5 c 128,-1,15
 98 450 98 450 150 450 c 2,0,-1
150 400 m 2,16,17
 119 400 119 400 97 378 c 128,-1,18
 75 356 75 356 75 325 c 2,19,-1
 75 125 l 2,20,21
 75 94 75 94 97 72 c 128,-1,22
 119 50 119 50 150 50 c 2,23,-1
 350 50 l 2,24,25
 381 50 381 50 403 72 c 128,-1,26
 425 94 425 94 425 125 c 2,27,-1
 425 325 l 2,28,29
 425 356 425 356 403 378 c 128,-1,30
 381 400 381 400 350 400 c 2,31,-1
 150 400 l 2,16,17
EndSplineSet
Substitution2: "isol-1" uni0072.isol
Substitution2: "fina-1" uni0072.fina
Substitution2: "medi-1" uni0072.medi
Substitution2: "init-1" uni0072.init
EndChar

StartChar: s
Encoding: 115 115 15
Width: 500
VWidth: 1000
Flags: W
LayerCount: 2
Fore
SplineSet
44.4375 499.373046875 m 0,0,1
 47.1862181161 500 47.1862181161 500 50 500 c 0,2,3
 60 500 60 500 67.5 492.5 c 128,-1,4
 75 485 75 485 75 475 c 2,5,-1
 75 125 l 2,6,7
 75 94 75 94 97 72 c 128,-1,8
 119 50 119 50 150 50 c 2,9,-1
 450 50 l 1,10,-1
 450 49.369140625 l 0,11,-1
 450.0078125 49.3583984375 l 0,12,13
 460.183429602 49.3583984375 460.183429602 49.3583984375 467.463750849 42.248625 c 128,-1,14
 474.744072096 35.1388515625 474.744072096 35.1388515625 475 25 c 0,15,16
 474.744045252 14.8600849658 474.744045252 14.8600849658 467.463210557 7.7454721704 c 128,-1,17
 460.182375862 0.630859375 460.182375862 0.630859375 450.0078125 0.630859375 c 0,18,-1
 450 0.630859375 l 1,19,-1
 450 0 l 1,20,-1
 150 0 l 2,21,22
 98 0 98 0 61.5 36.5 c 128,-1,23
 25 73 25 73 25 125 c 2,24,-1
 25 475 l 0,25,26
 25 483.826978577 25 483.826978577 30.5083237317 490.639130132 c 128,-1,27
 36.0166474634 497.451281688 36.0166474634 497.451281688 44.4375 499.373046875 c 0,0,1
EndSplineSet
Substitution2: "isol-1" uni0073.isol
Substitution2: "fina-1" uni0073.fina
Substitution2: "medi-1" uni0073.medi
Substitution2: "init-1" uni0073.init
EndChar

StartChar: g
Encoding: 103 103 16
Width: 500
VWidth: 1000
Flags: W
LayerCount: 2
Fore
SplineSet
444.4375 499.373046875 m 0,0,1
 447.186218116 500 447.186218116 500 450 500 c 0,2,3
 460 500 460 500 467.5 492.5 c 128,-1,4
 475 485 475 485 475 475 c 2,5,-1
 475 387.5 l 0,6,7
 475 300 475 300 475 212.5 c 0,8,-1
 475 125 l 1,9,10
 474.965335157 87.4406422221 474.965335157 87.4406422221 454.236328125 56.123046875 c 1,11,-1
 467.6796875 42.6796875 l 1,12,-1
 467.6796875 42.6796875 l 0,13,-1
 467.080078125 42.6796875 l 1,14,15
 474.755604306 35.5031257857 474.755604306 35.5031257857 475 25 c 0,16,17
 474.699240084 14.8981346404 474.699240084 14.8981346404 467.425046769 7.81967278895 c 128,-1,18
 460.150853453 0.7412109375 460.150853453 0.7412109375 450.0078125 0.7412109375 c 0,19,20
 439.648112891 0.7412109375 439.648112891 0.7412109375 432.3203125 8.080078125 c 1,21,-1
 432.3203125 7.3203125 l 1,22,-1
 428.930609809 10.6644422743 l 0,23,24
 425.540907118 14.0085720486 425.540907118 14.0085720486 422.180067274 17.3694118924 c 128,-1,25
 418.819227431 20.7302517361 418.819227431 20.7302517361 418.876953125 20.763671875 c 1,26,27
 387.559357778 0.0346648433576 387.559357778 0.0346648433576 350 0 c 2,28,-1
 50 0 l 1,29,-1
 50 0.630859375 l 0,30,-1
 49.9921875 0.6416015625 l 0,31,32
 39.8165703983 0.6416015625 39.8165703983 0.6416015625 32.536249151 7.75137500001 c 128,-1,33
 25.2559279036 14.8611484375 25.2559279036 14.8611484375 25 25 c 0,34,35
 25.2559547481 35.1399150342 25.2559547481 35.1399150342 32.5367894432 42.2545278296 c 128,-1,36
 39.8176241384 49.369140625 39.8176241384 49.369140625 49.9921875 49.369140625 c 0,37,-1
 50 49.369140625 l 1,38,-1
 50 50 l 1,39,-1
 125 50 l 0,40,41
 200 50 200 50 275 50 c 0,42,-1
 350 50 l 1,43,44
 366.822134214 50.2881242479 366.822134214 50.2881242479 381.908203125 57.732421875 c 1,45,-1
 32.3203125 407.3203125 l 1,46,-1
 32.3203125 407.3203125 l 0,47,-1
 32.919921875 407.3203125 l 1,48,49
 25.2443956939 414.496874214 25.2443956939 414.496874214 25 425 c 0,50,51
 25.002197587 435.348437012 25.002197587 435.348437012 32.3207024319 442.671288819 c 128,-1,52
 39.6392072769 449.994140625 39.6392072769 449.994140625 49.9853515625 449.994140625 c 0,53,54
 52.8218833905 449.994140625 52.8218833905 449.994140625 55.560546875 449.369140625 c 0,55,56
 62.7228539456 447.446898377 62.7228539456 447.446898377 67.6796875 441.9296875 c 1,57,-1
 67.6796875 442.6796875 l 1,58,-1
 417.267578125 93.091796875 l 1,59,60
 424.711875752 108.177865786 424.711875752 108.177865786 425 125 c 2,61,-1
 425 475 l 0,62,63
 425 483.826978577 425 483.826978577 430.508323732 490.639130132 c 128,-1,64
 436.016647463 497.451281688 436.016647463 497.451281688 444.4375 499.373046875 c 0,0,1
67.6796875 408.0703125 m 1,65,-1
 67.6796875 407.3203125 l 1,66,-1
 67.080078125 407.3203125 l 1,67,-1
 67.6796875 408.0703125 l 1,65,-1
EndSplineSet
Substitution2: "isol-1" uni0067.isol
Substitution2: "fina-1" uni0067.fina
Substitution2: "medi-1" uni0067.medi
Substitution2: "init-1" uni0067.init
EndChar

StartChar: asciitilde
Encoding: 126 126 17
Width: 500
VWidth: 1000
Flags: W
LayerCount: 2
Fore
SplineSet
150 350 m 128,-1,1
 202 350 202 350 238.5 313.5 c 128,-1,2
 275 277 275 277 275 225 c 0,3,4
 275 194 275 194 297 172 c 128,-1,5
 319 150 319 150 350 150 c 128,-1,6
 381 150 381 150 403 172 c 128,-1,7
 425 194 425 194 425 225 c 0,8,9
 425 235 425 235 432.5 242.5 c 128,-1,10
 440 250 440 250 450 250 c 128,-1,11
 460 250 460 250 467.5 242.5 c 128,-1,12
 475 235 475 235 475 225 c 0,13,14
 475 173 475 173 438.5 136.5 c 128,-1,15
 402 100 402 100 350 100 c 128,-1,16
 298 100 298 100 261.5 136.5 c 128,-1,17
 225 173 225 173 225 225 c 0,18,19
 225 256 225 256 203 278 c 128,-1,20
 181 300 181 300 150 300 c 128,-1,21
 119 300 119 300 97 278 c 128,-1,22
 75 256 75 256 75 225 c 0,23,24
 75 215 75 215 67.5 207.5 c 128,-1,25
 60 200 60 200 50 200 c 128,-1,26
 40 200 40 200 32.5 207.5 c 128,-1,27
 25 215 25 215 25 225 c 0,28,29
 25 277 25 277 61.5 313.5 c 128,-1,0
 98 350 98 350 150 350 c 128,-1,1
EndSplineSet
EndChar

StartChar: j
Encoding: 106 106 18
Width: 500
VWidth: 1000
Flags: W
LayerCount: 2
Fore
SplineSet
44.4375 499.373046875 m 0,0,1
 47.1862181161 500 47.1862181161 500 50 500 c 0,2,3
 60 500 60 500 67.5 492.5 c 128,-1,4
 75 485 75 485 75 475 c 2,5,-1
 75 435.359375 l 1,6,-1
 181.482421875 328.876953125 l 0,7,8
 183.445856408 330.313291139 183.445856408 330.313291139 185.453125 331.666015625 c 0,9,10
 186.941527143 332.527955971 186.941527143 332.527955971 188.42578125 333.333984375 c 0,11,12
 194.245450999 336.716242974 194.245450999 336.716242974 200.384765625 339.44921875 c 0,13,14
 202.409778835 340.265445728 202.409778835 340.265445728 204.453125 341.0078125 c 0,15,16
 210.269608781 343.393491274 210.269608781 343.393491274 216.296875 345.18359375 c 0,17,18
 219.222934784 345.913258633 219.222934784 345.913258633 222.181640625 346.5 c 0,19,20
 227.517651788 347.855507005 227.517651788 347.855507005 232.9609375 348.73828125 c 0,21,22
 241.431295533 349.952547869 241.431295533 349.952547869 250 350 c 0,23,24
 258.843559896 349.964097272 258.843559896 349.964097272 267.59765625 348.681640625 c 0,25,26
 269.553792689 348.317606265 269.553792689 348.317606265 271.51953125 347.88671875 c 0,27,28
 278.28762869 346.752842685 278.28762869 346.752842685 284.88671875 344.88671875 c 0,29,30
 287.113870411 344.163483654 287.113870411 344.163483654 289.314453125 343.35546875 c 0,31,32
 295.532163782 341.335740265 295.532163782 341.335740265 301.513671875 338.673828125 c 0,33,34
 303.705356277 337.623769089 303.705356277 337.623769089 305.828125 336.50390625 c 0,35,36
 311.659255256 333.611033193 311.659255256 333.611033193 317.15234375 330.1328125 c 0,37,38
 336.248355783 318.030408684 336.248355783 318.030408684 349.8984375 300 c 1,39,-1
 349.6015625 300 l 0,40,41
 353.167661103 295.136473398 353.167661103 295.136473398 356.2578125 289.935546875 c 0,42,43
 360.431883635 283.15341927 360.431883635 283.15341927 363.708984375 275.904296875 c 0,44,45
 365.158841385 272.770112632 365.158841385 272.770112632 366.421875 269.58984375 c 0,46,47
 369.656108836 261.142663168 369.656108836 261.142663168 371.640625 252.322265625 c 0,48,49
 372.359375348 249.160944792 372.359375348 249.160944792 372.916015625 245.94921875 c 0,50,51
 373.760433909 241.292391913 373.760433909 241.292391913 374.251953125 236.55859375 c 0,52,53
 374.89335549 230.797714387 374.89335549 230.797714387 375 225 c 0,54,55
 374.89335549 219.202285613 374.89335549 219.202285613 374.251953125 213.44140625 c 0,56,57
 373.760433909 208.707608087 373.760433909 208.707608087 372.916015625 204.05078125 c 0,58,59
 372.359375348 200.839055208 372.359375348 200.839055208 371.640625 197.677734375 c 0,60,61
 369.656108836 188.857336832 369.656108836 188.857336832 366.421875 180.41015625 c 0,62,63
 365.158841385 177.229887368 365.158841385 177.229887368 363.708984375 174.095703125 c 0,64,65
 360.431883635 166.84658073 360.431883635 166.84658073 356.2578125 160.064453125 c 0,66,67
 355.092875163 158.233837309 355.092875163 158.233837309 353.884765625 156.474609375 c 2,68,-1
 467.6796875 42.6796875 l 1,69,-1
 467.6796875 42.6796875 l 0,70,-1
 467.080078125 42.6796875 l 0,71,-1
 467.294921875 42.37890625 l 0,72,73
 468.884117338 40.5530221006 468.884117338 40.5530221006 470.08984375 38.46484375 c 0,74,75
 471.672932068 36.5956551336 471.672932068 36.5956551336 472.865234375 34.44921875 c 0,76,77
 474.86593689 29.9358289185 474.86593689 29.9358289185 475 25 c 0,78,79
 474.744045252 14.8600849658 474.744045252 14.8600849658 467.463210557 7.7454721704 c 128,-1,80
 460.182375862 0.630859375 460.182375862 0.630859375 450.0078125 0.630859375 c 0,81,-1
 450 0.630859375 l 1,82,-1
 450 0 l 1,83,-1
 150 0 l 2,84,85
 98 0 98 0 61.5 36.5 c 128,-1,86
 25 73 25 73 25 125 c 2,87,-1
 25 425 l 1,88,-1
 25 475 l 0,89,90
 25 483.826978577 25 483.826978577 30.5083237317 490.639130132 c 128,-1,91
 36.0166474634 497.451281688 36.0166474634 497.451281688 44.4375 499.373046875 c 0,0,1
75 364.640625 m 1,92,-1
 75 125 l 2,93,94
 75 94 75 94 97 72 c 128,-1,95
 119 50 119 50 150 50 c 2,96,-1
 389.640625 50 l 1,97,-1
 318.67578125 120.96484375 l 0,98,99
 317.929814214 120.419328508 317.929814214 120.419328508 317.1484375 119.865234375 c 0,100,101
 311.646146877 116.381727403 311.646146877 116.381727403 305.828125 113.49609375 c 0,102,103
 303.705356277 112.376230911 303.705356277 112.376230911 301.513671875 111.326171875 c 0,104,105
 295.532163782 108.664259735 295.532163782 108.664259735 289.314453125 106.64453125 c 0,106,107
 287.113870411 105.836516346 287.113870411 105.836516346 284.88671875 105.11328125 c 0,108,109
 278.28762869 103.247157315 278.28762869 103.247157315 271.51953125 102.11328125 c 0,110,111
 269.553792689 101.682393735 269.553792689 101.682393735 267.59765625 101.318359375 c 0,112,113
 258.843559896 100.035902728 258.843559896 100.035902728 250 100 c 0,114,115
 241.431295533 100.047452131 241.431295533 100.047452131 232.9609375 101.26171875 c 0,116,117
 227.517651788 102.144492995 227.517651788 102.144492995 222.181640625 103.5 c 0,118,119
 219.222934784 104.086741367 219.222934784 104.086741367 216.296875 104.81640625 c 0,120,121
 210.269608781 106.606508726 210.269608781 106.606508726 204.453125 108.9921875 c 0,122,123
 202.409778835 109.734554272 202.409778835 109.734554272 200.384765625 110.55078125 c 0,124,125
 194.245450999 113.283757026 194.245450999 113.283757026 188.42578125 116.666015625 c 0,126,127
 186.941527143 117.472044029 186.941527143 117.472044029 185.453125 118.333984375 c 0,128,129
 164.158653843 131.288231238 164.158653843 131.288231238 149.4609375 151.41796875 c 0,130,131
 148.201993072 153.251455034 148.201993072 153.251455034 147.04296875 155.07421875 c 0,132,133
 145.132074337 157.802185257 145.132074337 157.802185257 143.373046875 160.623046875 c 0,134,135
 140.149661771 166.029254722 140.149661771 166.029254722 137.486328125 171.732421875 c 0,136,137
 135.090618285 176.643775113 135.090618285 176.643775113 133.13671875 181.732421875 c 0,138,139
 130.265219358 189.402661433 130.265219358 189.402661433 128.419921875 197.380859375 c 0,140,141
 127.634862714 200.803064339 127.634862714 200.803064339 127.044921875 204.24609375 c 0,142,143
 126.101229534 209.384631669 126.101229534 209.384631669 125.58984375 214.580078125 c 128,-1,144
 125.077864783 219.770082049 125.077864783 219.770082049 125 225 c 128,-1,145
 125.077864783 230.229917951 125.077864783 230.229917951 125.58984375 235.419921875 c 128,-1,146
 126.101229534 240.615368331 126.101229534 240.615368331 127.044921875 245.75390625 c 0,147,148
 127.634862714 249.196935661 127.634862714 249.196935661 128.419921875 252.619140625 c 0,149,150
 130.265219358 260.597338567 130.265219358 260.597338567 133.13671875 268.267578125 c 0,151,152
 135.090618285 273.356224887 135.090618285 273.356224887 137.486328125 278.267578125 c 0,153,154
 140.148303462 283.967836643 140.148303462 283.967836643 143.37109375 289.373046875 c 0,155,156
 144.716590618 291.498370687 144.716590618 291.498370687 146.115234375 293.525390625 c 2,157,-1
 75 364.640625 l 1,92,-1
250 300 m 0,158,159
 242.345148103 299.919498271 242.345148103 299.919498271 234.865234375 298.294921875 c 0,160,161
 234.479651734 298.193040283 234.479651734 298.193040283 234.130859375 298.09765625 c 0,162,163
 232.391003212 297.676273365 232.391003212 297.676273365 230.6640625 297.169921875 c 0,164,-1
 230.375 297.091796875 l 0,165,166
 225.149415272 295.675708905 225.149415272 295.675708905 220.18359375 293.525390625 c 0,167,-1
 220.107421875 293.498046875 l 0,168,-1
 220.095703125 293.494140625 l 0,169,170
 218.880615072 293.094557879 218.880615072 293.094557879 217.69921875 292.66015625 c 1,171,-1
 217.892578125 292.466796875 l 1,172,-1
 317.634765625 192.724609375 l 1,173,174
 317.996613721 193.446810327 317.996613721 193.446810327 318.33203125 194.15234375 c 128,-1,175
 318.714344924 195.009883983 318.714344924 195.009883983 319.052734375 195.8203125 c 0,176,177
 319.856191344 197.725187417 319.856191344 197.725187417 320.55078125 199.662109375 c 0,178,179
 320.837848268 200.434982116 320.837848268 200.434982116 321.07421875 201.115234375 c 0,180,181
 321.974539371 203.770291733 321.974539371 203.770291733 322.677734375 206.49609375 c 0,182,183
 322.726953125 206.71484375 322.726953125 206.71484375 322.80859375 207.0859375 c 0,184,185
 323.404483729 209.519896072 323.404483729 209.519896072 323.8359375 211.98828125 c 0,186,187
 323.980009508 212.839345789 323.980009508 212.839345789 324.103515625 213.677734375 c 0,188,189
 324.41049484 215.688521675 324.41049484 215.688521675 324.609375 217.72265625 c 0,190,191
 324.703011892 218.614509275 324.703011892 218.614509275 324.76953125 219.423828125 c 0,192,193
 324.988503099 222.207690235 324.988503099 222.207690235 325 225 c 128,-1,194
 324.988503099 227.792309765 324.988503099 227.792309765 324.76953125 230.576171875 c 0,195,196
 324.703011892 231.385490725 324.703011892 231.385490725 324.609375 232.27734375 c 0,197,198
 324.41049484 234.311478325 324.41049484 234.311478325 324.103515625 236.322265625 c 0,199,200
 323.980009508 237.160654211 323.980009508 237.160654211 323.8359375 238.01171875 c 0,201,202
 323.404483729 240.480103928 323.404483729 240.480103928 322.80859375 242.9140625 c 0,203,204
 322.726953125 243.28515625 322.726953125 243.28515625 322.677734375 243.50390625 c 0,205,206
 321.974539371 246.229708267 321.974539371 246.229708267 321.07421875 248.884765625 c 0,207,208
 320.837848268 249.565017884 320.837848268 249.565017884 320.55078125 250.337890625 c 0,209,210
 319.856191344 252.274812583 319.856191344 252.274812583 319.052734375 254.1796875 c 0,211,212
 318.714344924 254.990116017 318.714344924 254.990116017 318.33203125 255.84765625 c 0,213,214
 317.400760359 257.905559277 317.400760359 257.905559277 316.349609375 259.900390625 c 0,215,216
 316.129231771 260.341145833 316.129231771 260.341145833 315.84765625 260.884765625 c 0,217,218
 314.508300781 263.332519531 314.508300781 263.332519531 312.998046875 265.666015625 c 0,219,220
 312.565771542 266.315197797 312.565771542 266.315197797 312.166015625 266.890625 c 0,221,222
 311.005518197 268.616901099 311.005518197 268.616901099 309.73046875 270.302734375 c 0,223,224
 309.200617497 271.003047157 309.200617497 271.003047157 308.626953125 271.724609375 c 0,225,226
 307.26366491 273.431298837 307.26366491 273.431298837 305.841796875 275.015625 c 0,227,228
 305.401394521 275.524115875 305.401394521 275.524115875 304.94921875 276.02734375 c 0,229,230
 303.06101632 278.06101632 303.06101632 278.06101632 301.02734375 279.94921875 c 0,231,232
 300.524115875 280.401394521 300.524115875 280.401394521 300.015625 280.841796875 c 0,233,234
 298.431298837 282.26366491 298.431298837 282.26366491 296.724609375 283.626953125 c 0,235,236
 296.003047157 284.200617497 296.003047157 284.200617497 295.302734375 284.73046875 c 0,237,238
 293.616901099 286.005518197 293.616901099 286.005518197 291.890625 287.166015625 c 0,239,240
 291.315197797 287.565771542 291.315197797 287.565771542 290.666015625 287.998046875 c 0,241,242
 288.332519531 289.508789062 288.332519531 289.508789062 285.884765625 290.84765625 c 0,243,244
 285.341145833 291.129231771 285.341145833 291.129231771 284.900390625 291.349609375 c 0,245,246
 282.905559277 292.400760359 282.905559277 292.400760359 280.84765625 293.33203125 c 0,247,248
 279.990116017 293.714344924 279.990116017 293.714344924 279.1796875 294.052734375 c 0,249,250
 277.274812583 294.856191344 277.274812583 294.856191344 275.337890625 295.55078125 c 0,251,252
 274.565017884 295.837848268 274.565017884 295.837848268 273.884765625 296.07421875 c 0,253,254
 271.229708267 296.974539371 271.229708267 296.974539371 268.50390625 297.677734375 c 0,255,256
 268.28515625 297.726953125 268.28515625 297.726953125 267.9140625 297.80859375 c 0,257,258
 265.480103928 298.404483729 265.480103928 298.404483729 263.01171875 298.8359375 c 0,259,260
 262.160654211 298.980009508 262.160654211 298.980009508 261.322265625 299.103515625 c 0,261,262
 259.311478325 299.41049484 259.311478325 299.41049484 257.27734375 299.609375 c 0,263,264
 256.385490725 299.703011892 256.385490725 299.703011892 255.576171875 299.76953125 c 0,265,266
 252.792309765 299.988503099 252.792309765 299.988503099 250 300 c 0,158,159
182.33984375 257.30078125 m 1,267,268
 181.905442121 256.119384928 181.905442121 256.119384928 181.505859375 254.904296875 c 0,269,-1
 181.501953125 254.892578125 l 0,270,-1
 181.474609375 254.81640625 l 0,271,272
 179.324291095 249.850584728 179.324291095 249.850584728 177.908203125 244.625 c 0,273,-1
 177.83203125 244.34375 l 0,274,275
 177.325329245 242.615613838 177.325329245 242.615613838 176.90234375 240.869140625 c 0,276,277
 176.803670613 240.508320944 176.803670613 240.508320944 176.70703125 240.142578125 c 0,278,279
 175.080488687 232.653611722 175.080488687 232.653611722 175 225 c 128,-1,280
 175.080501729 217.345148103 175.080501729 217.345148103 176.705078125 209.865234375 c 0,281,282
 176.806959717 209.479651734 176.806959717 209.479651734 176.90234375 209.130859375 c 0,283,284
 177.323726635 207.391003212 177.323726635 207.391003212 177.830078125 205.6640625 c 0,285,-1
 177.908203125 205.375 l 0,286,287
 179.324291095 200.149415272 179.324291095 200.149415272 181.474609375 195.18359375 c 0,288,-1
 181.501953125 195.107421875 l 0,289,-1
 181.505859375 195.095703125 l 0,290,291
 181.905442121 193.880615072 181.905442121 193.880615072 182.33984375 192.69921875 c 1,292,-1
 182.533203125 192.892578125 l 1,293,294
 183.044553068 191.74347713 183.044553068 191.74347713 183.623046875 190.5546875 c 0,295,296
 185.55876341 187.077404855 185.55876341 187.077404855 187.85546875 183.8203125 c 0,297,298
 188.559213902 182.655289013 188.559213902 182.655289013 189.287109375 181.541015625 c 0,299,300
 189.592218835 181.047909426 189.592218835 181.047909426 189.873046875 180.609375 c 0,301,302
 190.885770264 179.088804984 190.885770264 179.088804984 191.931640625 177.669921875 c 0,303,304
 196.75445788 171.75445788 196.75445788 171.75445788 202.669921875 166.931640625 c 0,305,306
 204.088804984 165.885770264 204.088804984 165.885770264 205.609375 164.873046875 c 0,307,308
 206.047909426 164.592218835 206.047909426 164.592218835 206.541015625 164.287109375 c 0,309,310
 207.655289013 163.559213902 207.655289013 163.559213902 208.8203125 162.85546875 c 0,311,312
 212.077404855 160.55876341 212.077404855 160.55876341 215.5546875 158.623046875 c 0,313,314
 216.712273455 158.059737531 216.712273455 158.059737531 217.88671875 157.537109375 c 1,315,-1
 217.69921875 157.33984375 l 1,316,317
 218.880615072 156.905442121 218.880615072 156.905442121 220.095703125 156.505859375 c 0,318,-1
 220.107421875 156.501953125 l 0,319,-1
 220.18359375 156.474609375 l 0,320,321
 225.149415272 154.324291095 225.149415272 154.324291095 230.375 152.908203125 c 0,322,-1
 230.65625 152.83203125 l 0,323,324
 232.384386162 152.325329245 232.384386162 152.325329245 234.130859375 151.90234375 c 0,325,326
 234.491679056 151.803670613 234.491679056 151.803670613 234.857421875 151.70703125 c 0,327,328
 242.346388278 150.080488687 242.346388278 150.080488687 250 150 c 0,329,330
 252.792309765 150.011496901 252.792309765 150.011496901 255.576171875 150.23046875 c 0,331,332
 256.385490725 150.296988108 256.385490725 150.296988108 257.27734375 150.390625 c 0,333,334
 259.311478325 150.58950516 259.311478325 150.58950516 261.322265625 150.896484375 c 0,335,336
 262.160654211 151.019990492 262.160654211 151.019990492 263.01171875 151.1640625 c 0,337,338
 265.480103928 151.595516271 265.480103928 151.595516271 267.9140625 152.19140625 c 0,339,340
 268.28515625 152.273046875 268.28515625 152.273046875 268.50390625 152.322265625 c 0,341,342
 271.229708267 153.025460629 271.229708267 153.025460629 273.884765625 153.92578125 c 0,343,344
 274.565017884 154.162151732 274.565017884 154.162151732 275.337890625 154.44921875 c 0,345,346
 277.274812583 155.143808656 277.274812583 155.143808656 279.1796875 155.947265625 c 0,347,348
 279.990116017 156.285655076 279.990116017 156.285655076 280.84765625 156.66796875 c 128,-1,349
 281.553189673 157.003386279 281.553189673 157.003386279 282.275390625 157.365234375 c 1,350,-1
 182.533203125 257.107421875 l 1,351,-1
 182.33984375 257.30078125 l 1,267,268
EndSplineSet
Substitution2: "isol-1" uni006A.isol
Substitution2: "fina-1" uni006A.fina
Substitution2: "medi-1" uni006A.medi
Substitution2: "init-1" uni006A.init
EndChar

StartChar: c
Encoding: 99 99 19
Width: 500
VWidth: 1000
Flags: W
LayerCount: 2
Fore
SplineSet
150 450 m 2,0,-1
 350 450 l 2,1,2
 402 450 402 450 438.5 413.5 c 128,-1,3
 475 377 475 377 475 325 c 2,4,-1
 475 275 l 0,5,6
 475 225 475 225 475 175 c 0,7,-1
 475 125 l 1,8,9
 474.965335157 87.4406422221 474.965335157 87.4406422221 454.236328125 56.123046875 c 1,10,-1
 467.6796875 42.6796875 l 1,11,-1
 467.6796875 42.6796875 l 0,12,-1
 467.080078125 42.6796875 l 1,13,14
 474.755604306 35.5031257857 474.755604306 35.5031257857 475 25 c 0,15,16
 474.699240084 14.8981346404 474.699240084 14.8981346404 467.425046769 7.81967278895 c 128,-1,17
 460.150853453 0.7412109375 460.150853453 0.7412109375 450.0078125 0.7412109375 c 0,18,19
 439.648112891 0.7412109375 439.648112891 0.7412109375 432.3203125 8.080078125 c 1,20,-1
 432.3203125 7.3203125 l 1,21,-1
 428.930609809 10.6644422743 l 0,22,23
 425.540907118 14.0085720486 425.540907118 14.0085720486 422.180067274 17.3694118924 c 128,-1,24
 418.819227431 20.7302517361 418.819227431 20.7302517361 418.876953125 20.763671875 c 1,25,26
 387.559357778 0.0346648433576 387.559357778 0.0346648433576 350 0 c 2,27,-1
 150 0 l 2,28,29
 98 0 98 0 61.5 36.5 c 128,-1,30
 25 73 25 73 25 125 c 0,31,32
 25 135 25 135 32.5 142.5 c 128,-1,33
 40 150 40 150 50 150 c 128,-1,34
 60 150 60 150 67.5 142.5 c 128,-1,35
 75 135 75 135 75 125 c 0,36,37
 75 94 75 94 97 72 c 128,-1,38
 119 50 119 50 150 50 c 2,39,-1
 200 50 l 0,40,41
 250 50 250 50 300 50 c 0,42,-1
 350 50 l 1,43,44
 366.980642096 50.0143757552 366.980642096 50.0143757552 382.298828125 57.341796875 c 1,45,-1
 82.341796875 357.298828125 l 1,46,47
 75.0143757552 341.980642096 75.0143757552 341.980642096 75 325 c 0,48,49
 75 315 75 315 67.5 307.5 c 128,-1,50
 60 300 60 300 50 300 c 128,-1,51
 40 300 40 300 32.5 307.5 c 128,-1,52
 25 315 25 315 25 325 c 0,53,54
 25.0346648434 362.559357778 25.0346648434 362.559357778 45.763671875 393.876953125 c 1,55,-1
 32.3203125 407.3203125 l 1,56,-1
 32.3203125 407.3203125 l 0,57,-1
 32.919921875 407.3203125 l 1,58,59
 25.2443956939 414.496874214 25.2443956939 414.496874214 25 425 c 0,60,61
 25.002197587 435.348437012 25.002197587 435.348437012 32.3207024319 442.671288819 c 128,-1,62
 39.6392072769 449.994140625 39.6392072769 449.994140625 49.9853515625 449.994140625 c 0,63,64
 52.8218833905 449.994140625 52.8218833905 449.994140625 55.560546875 449.369140625 c 0,65,66
 62.7228539456 447.446898377 62.7228539456 447.446898377 67.6796875 441.9296875 c 1,67,-1
 67.6796875 442.6796875 l 1,68,-1
 71.069390191 439.335557726 l 0,69,70
 74.4590928819 435.991427951 74.4590928819 435.991427951 77.8199327257 432.630588108 c 128,-1,71
 81.1807725694 429.269748264 81.1807725694 429.269748264 81.123046875 429.236328125 c 1,72,73
 112.440642222 449.965335157 112.440642222 449.965335157 150 450 c 2,0,-1
150 400 m 2,74,75
 133.019357904 399.985624245 133.019357904 399.985624245 117.701171875 392.658203125 c 1,76,-1
 417.658203125 92.701171875 l 1,77,78
 424.985624245 108.019357904 424.985624245 108.019357904 425 125 c 2,79,-1
 425 325 l 2,80,81
 425 356 425 356 403 378 c 128,-1,82
 381 400 381 400 350 400 c 2,83,-1
 150 400 l 2,74,75
EndSplineSet
Substitution2: "isol-1" uni0063.isol
Substitution2: "fina-1" uni0063.fina
Substitution2: "medi-1" uni0063.medi
Substitution2: "init-1" uni0063.init
EndChar

StartChar: w
Encoding: 119 119 20
Width: 0
VWidth: 1000
GlyphClass: 4
Flags: W
LayerCount: 2
Fore
SplineSet
-350 -50 m 1,0,-1
 -150 -50 l 1,1,-1
 -150 -50.25390625 l 1,2,3
 -139.721510201 -50.25390625 -139.721510201 -50.25390625 -132.412784679 -57.4947115851 c 128,-1,4
 -125.104059156 -64.7355169202 -125.104059156 -64.7355169202 -125 -75 c 0,5,6
 -125.104059156 -85.2644830798 -125.104059156 -85.2644830798 -132.412784679 -92.5052884149 c 128,-1,7
 -139.721510201 -99.74609375 -139.721510201 -99.74609375 -150 -99.74609375 c 1,8,-1
 -150 -100 l 1,9,-1
 -350 -100 l 1,10,-1
 -350 -99.74609375 l 1,11,12
 -360.278489799 -99.74609375 -360.278489799 -99.74609375 -367.587215321 -92.5052884149 c 128,-1,13
 -374.895940844 -85.2644830798 -374.895940844 -85.2644830798 -375 -75 c 0,14,15
 -374.895940844 -64.7355169202 -374.895940844 -64.7355169202 -367.587215321 -57.4947115851 c 128,-1,16
 -360.278489799 -50.25390625 -360.278489799 -50.25390625 -350 -50.25390625 c 1,17,-1
 -350 -50 l 1,0,-1
EndSplineSet
EndChar

StartChar: n
Encoding: 110 110 21
Width: 500
VWidth: 1000
Flags: W
LayerCount: 2
Fore
SplineSet
150 450 m 2,0,-1
 450 450 l 1,1,-1
 450 449.369140625 l 0,2,-1
 450.0078125 449.358398438 l 0,3,4
 460.183429602 449.358398438 460.183429602 449.358398438 467.463750849 442.248625 c 128,-1,5
 474.744072096 435.138851562 474.744072096 435.138851562 475 425 c 0,6,7
 474.744045252 414.860084966 474.744045252 414.860084966 467.463210557 407.74547217 c 128,-1,8
 460.182375862 400.630859375 460.182375862 400.630859375 450.0078125 400.630859375 c 0,9,-1
 450 400.630859375 l 1,10,-1
 450 400 l 1,11,-1
 375 400 l 0,12,13
 300 400 300 400 225 400 c 0,14,-1
 150 400 l 1,15,16
 133.177865786 399.711875752 133.177865786 399.711875752 118.091796875 392.267578125 c 1,17,-1
 467.6796875 42.6796875 l 1,18,-1
 467.6796875 42.6796875 l 0,19,-1
 467.080078125 42.6796875 l 1,20,21
 474.755604306 35.5031257857 474.755604306 35.5031257857 475 25 c 0,22,23
 474.699240084 14.8981346404 474.699240084 14.8981346404 467.425046769 7.81967278895 c 128,-1,24
 460.150853453 0.7412109375 460.150853453 0.7412109375 450.0078125 0.7412109375 c 0,25,26
 439.648112891 0.7412109375 439.648112891 0.7412109375 432.3203125 8.080078125 c 1,27,-1
 432.3203125 7.3203125 l 1,28,-1
 82.732421875 356.908203125 l 1,29,30
 75.2881242479 341.822134214 75.2881242479 341.822134214 75 325 c 2,31,-1
 75 -25 l 2,32,33
 75 -35 75 -35 67.5 -42.5 c 128,-1,34
 60 -50 60 -50 50 -50 c 128,-1,35
 40 -50 40 -50 32.5 -42.5 c 128,-1,36
 25 -35 25 -35 25 -25 c 2,37,-1
 25 62.5 l 0,38,39
 25 150 25 150 25 237.5 c 0,40,-1
 25 325 l 1,41,42
 25.0346648434 362.559357778 25.0346648434 362.559357778 45.763671875 393.876953125 c 1,43,-1
 32.3203125 407.3203125 l 1,44,-1
 32.3203125 407.3203125 l 0,45,-1
 32.919921875 407.3203125 l 1,46,47
 25.2443956939 414.496874214 25.2443956939 414.496874214 25 425 c 0,48,49
 25.002197587 435.348437012 25.002197587 435.348437012 32.3207024319 442.671288819 c 128,-1,50
 39.6392072769 449.994140625 39.6392072769 449.994140625 49.9853515625 449.994140625 c 0,51,52
 52.8218833905 449.994140625 52.8218833905 449.994140625 55.560546875 449.369140625 c 0,53,54
 62.7228539456 447.446898377 62.7228539456 447.446898377 67.6796875 441.9296875 c 1,55,-1
 67.6796875 442.6796875 l 1,56,-1
 71.069390191 439.335557726 l 0,57,58
 74.4590928819 435.991427951 74.4590928819 435.991427951 77.8199327257 432.630588108 c 128,-1,59
 81.1807725694 429.269748264 81.1807725694 429.269748264 81.123046875 429.236328125 c 1,60,61
 112.440642222 449.965335157 112.440642222 449.965335157 150 450 c 2,0,-1
432.3203125 42.669921875 m 1,62,-1
 432.919921875 42.669921875 l 1,63,-1
 432.3203125 41.919921875 l 1,64,-1
 432.3203125 42.669921875 l 1,62,-1
EndSplineSet
Substitution2: "isol-1" uni006E.isol
Substitution2: "fina-1" uni006E.fina
Substitution2: "medi-1" uni006E.medi
Substitution2: "init-1" uni006E.init
EndChar

StartChar: z
Encoding: 122 122 22
Width: 500
VWidth: 1000
Flags: W
LayerCount: 2
Fore
SplineSet
44.4375 499.373046875 m 0,0,1
 47.1862181161 500 47.1862181161 500 50 500 c 0,2,3
 60 500 60 500 67.5 492.5 c 128,-1,4
 75 485 75 485 75 475 c 2,5,-1
 75 435.359375 l 1,6,-1
 467.6796875 42.6796875 l 1,7,-1
 467.080078125 42.6796875 l 1,8,-1
 467.294921875 42.37890625 l 0,9,10
 468.896295005 40.5447924187 468.896295005 40.5447924187 470.119140625 38.423828125 c 0,11,12
 471.686206527 36.5683632406 471.686206527 36.5683632406 472.86328125 34.453125 c 0,13,14
 474.866023431 29.9355239151 474.866023431 29.9355239151 475 25 c 0,15,16
 474.744045252 14.8600849658 474.744045252 14.8600849658 467.463210557 7.7454721704 c 128,-1,17
 460.182375862 0.630859375 460.182375862 0.630859375 450.0078125 0.630859375 c 0,18,-1
 450 0.630859375 l 1,19,-1
 450 0 l 1,20,-1
 150 0 l 2,21,22
 98 0 98 0 61.5 36.5 c 128,-1,23
 25 73 25 73 25 125 c 2,24,-1
 25 475 l 0,25,26
 25 483.826978577 25 483.826978577 30.5083237317 490.639130132 c 128,-1,27
 36.0166474634 497.451281688 36.0166474634 497.451281688 44.4375 499.373046875 c 0,0,1
75 364.640625 m 1,28,-1
 75 125 l 2,29,30
 75 94 75 94 97 72 c 128,-1,31
 119 50 119 50 150 50 c 2,32,-1
 389.640625 50 l 1,33,-1
 75 364.640625 l 1,28,-1
EndSplineSet
Substitution2: "isol-1" uni007A.isol
Substitution2: "fina-1" uni007A.fina
Substitution2: "medi-1" uni007A.medi
Substitution2: "init-1" uni007A.init
EndChar

StartChar: m
Encoding: 109 109 23
Width: 500
VWidth: 1000
Flags: W
LayerCount: 2
Fore
SplineSet
150 450 m 2,0,-1
 450 450 l 1,1,-1
 450 449.369140625 l 0,2,-1
 450.0078125 449.358398438 l 0,3,4
 460.183429602 449.358398438 460.183429602 449.358398438 467.463750849 442.248625 c 128,-1,5
 474.744072096 435.138851562 474.744072096 435.138851562 475 425 c 0,6,7
 474.744045252 414.860084966 474.744045252 414.860084966 467.463210557 407.74547217 c 128,-1,8
 460.182375862 400.630859375 460.182375862 400.630859375 450.0078125 400.630859375 c 0,9,-1
 450 400.630859375 l 1,10,-1
 450 400 l 1,11,-1
 150 400 l 2,12,13
 119 400 119 400 97 378 c 128,-1,14
 75 356 75 356 75 325 c 2,15,-1
 75 -25 l 2,16,17
 75 -35 75 -35 67.5 -42.5 c 128,-1,18
 60 -50 60 -50 50 -50 c 128,-1,19
 40 -50 40 -50 32.5 -42.5 c 128,-1,20
 25 -35 25 -35 25 -25 c 2,21,-1
 25 325 l 2,22,23
 25 377 25 377 61.5 413.5 c 128,-1,24
 98 450 98 450 150 450 c 2,0,-1
EndSplineSet
Substitution2: "isol-1" uni006D.isol
Substitution2: "fina-1" uni006D.fina
Substitution2: "medi-1" uni006D.medi
Substitution2: "init-1" uni006D.init
EndChar

StartChar: v
Encoding: 118 118 24
Width: 500
VWidth: 1000
Flags: W
LayerCount: 2
Fore
SplineSet
150 450 m 2,0,-1
 350 450 l 2,1,2
 402 450 402 450 438.5 413.5 c 128,-1,3
 475 377 475 377 475 325 c 2,4,-1
 475 -25 l 2,5,6
 475 -35 475 -35 467.5 -42.5 c 128,-1,7
 460 -50 460 -50 450 -50 c 128,-1,8
 440 -50 440 -50 432.5 -42.5 c 128,-1,9
 425 -35 425 -35 425 -25 c 2,10,-1
 425 14.640625 l 1,11,-1
 82.732421875 356.908203125 l 1,12,13
 75.2881242479 341.822134214 75.2881242479 341.822134214 75 325 c 2,14,-1
 75 -25 l 2,15,16
 75 -35 75 -35 67.5 -42.5 c 128,-1,17
 60 -50 60 -50 50 -50 c 128,-1,18
 40 -50 40 -50 32.5 -42.5 c 128,-1,19
 25 -35 25 -35 25 -25 c 2,20,-1
 25 62.5 l 0,21,22
 25 150 25 150 25 237.5 c 0,23,-1
 25 325 l 1,24,25
 25.0346648434 362.559357778 25.0346648434 362.559357778 45.763671875 393.876953125 c 1,26,-1
 32.3203125 407.3203125 l 1,27,-1
 32.3203125 407.3203125 l 0,28,-1
 32.919921875 407.3203125 l 1,29,30
 25.2443956939 414.496874214 25.2443956939 414.496874214 25 425 c 0,31,32
 25.002197587 435.348437012 25.002197587 435.348437012 32.3207024319 442.671288819 c 128,-1,33
 39.6392072769 449.994140625 39.6392072769 449.994140625 49.9853515625 449.994140625 c 0,34,35
 52.8218833905 449.994140625 52.8218833905 449.994140625 55.560546875 449.369140625 c 0,36,37
 62.7228539456 447.446898377 62.7228539456 447.446898377 67.6796875 441.9296875 c 1,38,-1
 67.6796875 442.6796875 l 1,39,-1
 71.069390191 439.335557726 l 0,40,41
 74.4590928819 435.991427951 74.4590928819 435.991427951 77.8199327257 432.630588108 c 128,-1,42
 81.1807725694 429.269748264 81.1807725694 429.269748264 81.123046875 429.236328125 c 1,43,44
 112.440642222 449.965335157 112.440642222 449.965335157 150 450 c 2,0,-1
150 400 m 2,45,46
 133.177865786 399.711875752 133.177865786 399.711875752 118.091796875 392.267578125 c 1,47,-1
 425 85.359375 l 1,48,-1
 425 325 l 2,49,50
 425 356 425 356 403 378 c 128,-1,51
 381 400 381 400 350 400 c 2,52,-1
 150 400 l 2,45,46
EndSplineSet
Substitution2: "isol-1" uni0076.isol
Substitution2: "fina-1" uni0076.fina
Substitution2: "medi-1" uni0076.medi
Substitution2: "init-1" uni0076.init
EndChar

StartChar: b
Encoding: 98 98 25
Width: 500
VWidth: 1000
Flags: W
LayerCount: 2
Fore
SplineSet
150 450 m 2,0,-1
 350 450 l 2,1,2
 402 450 402 450 438.5 413.5 c 128,-1,3
 475 377 475 377 475 325 c 0,4,5
 475 315 475 315 467.5 307.5 c 128,-1,6
 460 300 460 300 450 300 c 128,-1,7
 440 300 440 300 432.5 307.5 c 128,-1,8
 425 315 425 315 425 325 c 0,9,10
 425 356 425 356 403 378 c 128,-1,11
 381 400 381 400 350 400 c 2,12,-1
 300 400 l 0,13,14
 250 400 250 400 200 400 c 0,15,-1
 150 400 l 1,16,17
 133.019357904 399.985624245 133.019357904 399.985624245 117.701171875 392.658203125 c 1,18,-1
 417.658203125 92.701171875 l 1,19,20
 424.985624245 108.019357904 424.985624245 108.019357904 425 125 c 0,21,22
 425 135 425 135 432.5 142.5 c 128,-1,23
 440 150 440 150 450 150 c 128,-1,24
 460 150 460 150 467.5 142.5 c 128,-1,25
 475 135 475 135 475 125 c 0,26,27
 474.965335157 87.4406422221 474.965335157 87.4406422221 454.236328125 56.123046875 c 1,28,-1
 467.6796875 42.6796875 l 1,29,-1
 467.6796875 42.6796875 l 0,30,-1
 467.080078125 42.6796875 l 1,31,32
 474.755604306 35.5031257857 474.755604306 35.5031257857 475 25 c 0,33,34
 474.699240084 14.8981346404 474.699240084 14.8981346404 467.425046769 7.81967278895 c 128,-1,35
 460.150853453 0.7412109375 460.150853453 0.7412109375 450.0078125 0.7412109375 c 0,36,37
 439.648112891 0.7412109375 439.648112891 0.7412109375 432.3203125 8.080078125 c 1,38,-1
 432.3203125 7.3203125 l 1,39,-1
 428.930609809 10.6644422743 l 0,40,41
 425.540907118 14.0085720486 425.540907118 14.0085720486 422.180067274 17.3694118924 c 128,-1,42
 418.819227431 20.7302517361 418.819227431 20.7302517361 418.876953125 20.763671875 c 1,43,44
 387.559357778 0.0346648433576 387.559357778 0.0346648433576 350 0 c 2,45,-1
 150 0 l 2,46,47
 98 0 98 0 61.5 36.5 c 128,-1,48
 25 73 25 73 25 125 c 2,49,-1
 25 175 l 0,50,51
 25 225 25 225 25 275 c 0,52,-1
 25 325 l 1,53,54
 25.0346648434 362.559357778 25.0346648434 362.559357778 45.763671875 393.876953125 c 1,55,-1
 32.3203125 407.3203125 l 1,56,-1
 32.3203125 407.3203125 l 0,57,-1
 32.919921875 407.3203125 l 1,58,59
 25.2443956939 414.496874214 25.2443956939 414.496874214 25 425 c 0,60,61
 25.002197587 435.348437012 25.002197587 435.348437012 32.3207024319 442.671288819 c 128,-1,62
 39.6392072769 449.994140625 39.6392072769 449.994140625 49.9853515625 449.994140625 c 0,63,64
 52.8218833905 449.994140625 52.8218833905 449.994140625 55.560546875 449.369140625 c 0,65,66
 62.7228539456 447.446898377 62.7228539456 447.446898377 67.6796875 441.9296875 c 1,67,-1
 67.6796875 442.6796875 l 1,68,-1
 71.069390191 439.335557726 l 0,69,70
 74.4590928819 435.991427951 74.4590928819 435.991427951 77.8199327257 432.630588108 c 128,-1,71
 81.1807725694 429.269748264 81.1807725694 429.269748264 81.123046875 429.236328125 c 1,72,73
 112.440642222 449.965335157 112.440642222 449.965335157 150 450 c 2,0,-1
82.341796875 357.298828125 m 1,74,75
 75.0143757552 341.980642096 75.0143757552 341.980642096 75 325 c 2,76,-1
 75 125 l 2,77,78
 75 94 75 94 97 72 c 128,-1,79
 119 50 119 50 150 50 c 2,80,-1
 200 50 l 0,81,82
 250 50 250 50 300 50 c 0,83,-1
 350 50 l 1,84,85
 366.980642096 50.0143757552 366.980642096 50.0143757552 382.298828125 57.341796875 c 1,86,-1
 82.341796875 357.298828125 l 1,74,75
EndSplineSet
Substitution2: "isol-1" uni0062.isol
Substitution2: "fina-1" uni0062.fina
Substitution2: "medi-1" uni0062.medi
Substitution2: "init-1" uni0062.init
EndChar

StartChar: t
Encoding: 116 116 26
Width: 500
VWidth: 1000
Flags: W
LayerCount: 2
Fore
SplineSet
44.4375 499.373046875 m 0,0,1
 47.1862181161 500 47.1862181161 500 50 500 c 0,2,3
 60 500 60 500 67.5 492.5 c 128,-1,4
 75 485 75 485 75 475 c 2,5,-1
 75 125 l 2,6,7
 75 94 75 94 97 72 c 128,-1,8
 119 50 119 50 150 50 c 2,9,-1
 350 50 l 2,10,11
 381 50 381 50 403 72 c 128,-1,12
 425 94 425 94 425 125 c 2,13,-1
 425 475 l 2,14,15
 425 485 425 485 432.5 492.5 c 128,-1,16
 440 500 440 500 450 500 c 128,-1,17
 460 500 460 500 467.5 492.5 c 128,-1,18
 475 485 475 485 475 475 c 2,19,-1
 475 125 l 2,20,21
 475 73 475 73 438.5 36.5 c 128,-1,22
 402 0 402 0 350 0 c 2,23,-1
 150 0 l 2,24,25
 98 0 98 0 61.5 36.5 c 128,-1,26
 25 73 25 73 25 125 c 2,27,-1
 25 475 l 0,28,29
 25 483.826978577 25 483.826978577 30.5083237317 490.639130132 c 128,-1,30
 36.0166474634 497.451281688 36.0166474634 497.451281688 44.4375 499.373046875 c 0,0,1
EndSplineSet
Substitution2: "isol-1" uni0074.isol
Substitution2: "fina-1" uni0074.fina
Substitution2: "medi-1" uni0074.medi
Substitution2: "init-1" uni0074.init
EndChar

StartChar: grave
Encoding: 96 96 27
Width: 500
VWidth: 1000
Flags: W
LayerCount: 2
Fore
SplineSet
250 550 m 1,0,-1
 350 550 l 2,1,2
 402 550 402 550 438.5 513.5 c 128,-1,3
 475 477 475 477 475 425 c 0,4,5
 475 415 475 415 467.5 407.5 c 128,-1,6
 460 400 460 400 450 400 c 128,-1,7
 440 400 440 400 432.5 407.5 c 128,-1,8
 425 415 425 415 425 425 c 0,9,10
 425 456 425 456 403 478 c 128,-1,11
 381 500 381 500 350 500 c 2,12,-1
 250 500 l 1,13,-1
 250 500.25 l 1,14,15
 239.720645017 500.25 239.720645017 500.25 232.411618608 507.492092487 c 128,-1,16
 225.102592198 514.734184973 225.102592198 514.734184973 225 525 c 0,17,18
 225.102592198 535.265815027 225.102592198 535.265815027 232.411618608 542.507907513 c 128,-1,19
 239.720645017 549.75 239.720645017 549.75 250 549.75 c 1,20,-1
 250 550 l 1,0,-1
EndSplineSet
EndChar

StartChar: H
Encoding: 72 72 28
Width: 500
VWidth: 1000
Flags: W
LayerCount: 2
Fore
SplineSet
50 450 m 1,0,-1
 350 450 l 2,1,2
 402 450 402 450 438.5 413.5 c 128,-1,3
 475 377 475 377 475 325 c 2,4,-1
 475 -25 l 2,5,6
 475 -35 475 -35 467.5 -42.5 c 128,-1,7
 460 -50 460 -50 450 -50 c 128,-1,8
 440 -50 440 -50 432.5 -42.5 c 128,-1,9
 425 -35 425 -35 425 -25 c 2,10,-1
 425 325 l 2,11,12
 425 356 425 356 403 378 c 128,-1,13
 381 400 381 400 350 400 c 2,14,-1
 50 400 l 1,15,-1
 50 400.630859375 l 0,16,-1
 49.9921875 400.641601562 l 0,17,18
 39.8165703983 400.641601562 39.8165703983 400.641601562 32.536249151 407.751375 c 128,-1,19
 25.2559279036 414.861148438 25.2559279036 414.861148438 25 425 c 0,20,21
 25.2559547481 435.139915034 25.2559547481 435.139915034 32.5367894432 442.25452783 c 128,-1,22
 39.8176241384 449.369140625 39.8176241384 449.369140625 49.9921875 449.369140625 c 0,23,-1
 50 449.369140625 l 1,24,-1
 50 450 l 1,0,-1
EndSplineSet
Substitution2: "isol-1" uni0048.isol
Substitution2: "fina-1" uni0048.fina
Substitution2: "medi-1" uni0048.medi
Substitution2: "init-1" uni0048.init
EndChar

StartChar: braceleft
Encoding: 123 123 29
Width: 500
VWidth: 1000
Flags: W
LayerCount: 2
Fore
SplineSet
350 500 m 0,0,1
 360 500 360 500 367.5 492.5 c 128,-1,2
 375 485 375 485 375 475 c 128,-1,3
 375 465 375 465 367.5 457.5 c 128,-1,4
 360 450 360 450 350 450 c 0,5,6
 319 450 319 450 297 428 c 128,-1,7
 275 406 275 406 275 375 c 2,8,-1
 275 325 l 0,9,10
 274.904481488 262.493581051 274.904481488 262.493581051 224.83984375 225.0703125 c 1,11,12
 274.974628504 187.594464557 274.974628504 187.594464557 275 125 c 2,13,-1
 275 75 l 2,14,15
 275 44 275 44 297 22 c 128,-1,16
 319 0 319 0 350 0 c 0,17,18
 360 0 360 0 367.5 -7.5 c 128,-1,19
 375 -15 375 -15 375 -25 c 128,-1,20
 375 -35 375 -35 367.5 -42.5 c 128,-1,21
 360 -50 360 -50 350 -50 c 0,22,23
 298 -50 298 -50 261.5 -13.5 c 128,-1,24
 225 23 225 23 225 75 c 2,25,-1
 225 125 l 2,26,27
 225 156 225 156 203 178 c 128,-1,28
 181 200 181 200 150 200 c 0,29,30
 145.47552171 200.080614313 145.47552171 200.080614313 141.26953125 201.740234375 c 2,31,-1
 140.0390625 202.169921875 l 0,32,33
 136.109488646 203.914447772 136.109488646 203.914447772 132.990234375 206.869140625 c 0,34,35
 132.411511531 207.411511531 132.411511531 207.411511531 131.869140625 207.990234375 c 0,36,37
 128.914447772 211.109488646 128.914447772 211.109488646 127.169921875 215.0390625 c 2,38,-1
 127.169921875 215.0390625 l 0,39,-1
 126.740234375 216.26953125 l 1,40,41
 125.080614313 220.47552171 125.080614313 220.47552171 125 225 c 128,-1,42
 125.080614313 229.52447829 125.080614313 229.52447829 126.740234375 233.73046875 c 2,43,-1
 127.169921875 234.9609375 l 0,44,45
 128.914447772 238.890511354 128.914447772 238.890511354 131.869140625 242.009765625 c 0,46,47
 132.411511531 242.588488469 132.411511531 242.588488469 132.990234375 243.130859375 c 0,48,49
 136.109488646 246.085552228 136.109488646 246.085552228 140.0390625 247.830078125 c 2,50,-1
 140.0390625 247.830078125 l 0,51,-1
 141.26953125 248.259765625 l 1,52,53
 145.47552171 249.919385687 145.47552171 249.919385687 150 250 c 0,54,55
 181 250 181 250 203 272 c 128,-1,56
 225 294 225 294 225 325 c 2,57,-1
 225 375 l 2,58,59
 225 427 225 427 261.5 463.5 c 128,-1,60
 298 500 298 500 350 500 c 0,0,1
EndSplineSet
EndChar

StartChar: o
Encoding: 111 111 30
Width: 0
VWidth: 1000
GlyphClass: 4
Flags: W
LayerCount: 2
Fore
SplineSet
-249.42578125 -0.005859375 m 0,0,1
 -239.267423581 -0.2390476908 -239.267423581 -0.2390476908 -232.13371179 -7.52462031115 c 128,-1,2
 -225 -14.8101929315 -225 -14.8101929315 -225 -25 c 128,-1,3
 -225 -35 -225 -35 -232.5 -42.5 c 128,-1,4
 -240 -50 -240 -50 -250 -50 c 128,-1,5
 -260 -50 -260 -50 -267.5 -42.5 c 128,-1,6
 -275 -35 -275 -35 -275 -25 c 0,7,8
 -275 -15.625758231 -275 -15.625758231 -268.848558977 -8.59685032057 c 128,-1,9
 -262.697117955 -1.56794241018 -262.697117955 -1.56794241018 -253.55859375 -0.25390625 c 0,10,11
 -251.781823447 0.0009765625 -251.781823447 0.0009765625 -250.009765625 0.0009765625 c 0,12,13
 -249.717285156 0.00146484375 -249.717285156 0.00146484375 -249.42578125 -0.005859375 c 0,0,1
-350 -50 m 1,14,-1
 -150 -50 l 1,15,-1
 -150 -50.25390625 l 1,16,17
 -139.721510201 -50.25390625 -139.721510201 -50.25390625 -132.412784679 -57.4947115851 c 128,-1,18
 -125.104059156 -64.7355169202 -125.104059156 -64.7355169202 -125 -75 c 0,19,20
 -125.104059156 -85.2644830798 -125.104059156 -85.2644830798 -132.412784679 -92.5052884149 c 128,-1,21
 -139.721510201 -99.74609375 -139.721510201 -99.74609375 -150 -99.74609375 c 1,22,-1
 -150 -100 l 1,23,-1
 -350 -100 l 1,24,-1
 -350 -99.74609375 l 1,25,26
 -360.278489799 -99.74609375 -360.278489799 -99.74609375 -367.587215321 -92.5052884149 c 128,-1,27
 -374.895940844 -85.2644830798 -374.895940844 -85.2644830798 -375 -75 c 0,28,29
 -374.895940844 -64.7355169202 -374.895940844 -64.7355169202 -367.587215321 -57.4947115851 c 128,-1,30
 -360.278489799 -50.25390625 -360.278489799 -50.25390625 -350 -50.25390625 c 1,31,-1
 -350 -50 l 1,14,-1
EndSplineSet
EndChar

StartChar: bar
Encoding: 124 124 31
Width: 500
VWidth: 1000
Flags: W
LayerCount: 2
Fore
SplineSet
244.439453125 549.369140625 m 0,0,1
 247.182395771 549.995117188 247.182395771 549.995117188 250 549.995117188 c 0,2,3
 260.346883317 549.995117188 260.346883317 549.995117188 267.672343021 542.671040764 c 128,-1,4
 274.997802726 535.34696434 274.997802726 535.34696434 275 525 c 2,5,-1
 275 -75 l 2,6,7
 275 -85 275 -85 267.5 -92.5 c 128,-1,8
 260 -100 260 -100 250 -100 c 128,-1,9
 240 -100 240 -100 232.5 -92.5 c 128,-1,10
 225 -85 225 -85 225 -75 c 2,11,-1
 225 525 l 0,12,13
 225.001451073 533.826149516 225.001451073 533.826149516 230.510341295 540.637119923 c 128,-1,14
 236.019231517 547.448090329 236.019231517 547.448090329 244.439453125 549.369140625 c 0,0,1
EndSplineSet
EndChar

StartChar: I
Encoding: 73 73 32
Width: 0
VWidth: 1000
GlyphClass: 4
Flags: W
LayerCount: 2
Fore
SplineSet
-350 550 m 1,0,-1
 -150 550 l 1,1,-1
 -150 549.75 l 1,2,3
 -139.720645017 549.75 -139.720645017 549.75 -132.411618608 542.507907513 c 128,-1,4
 -125.102592198 535.265815027 -125.102592198 535.265815027 -125 525 c 0,5,6
 -125.102592198 514.734184973 -125.102592198 514.734184973 -132.411618608 507.492092487 c 128,-1,7
 -139.720645017 500.25 -139.720645017 500.25 -150 500.25 c 1,8,-1
 -150 500 l 1,9,-1
 -350 500 l 1,10,-1
 -350 500.25 l 1,11,12
 -360.279354983 500.25 -360.279354983 500.25 -367.588381392 507.492092487 c 128,-1,13
 -374.897407802 514.734184973 -374.897407802 514.734184973 -375 525 c 0,14,15
 -374.897407802 535.265815027 -374.897407802 535.265815027 -367.588381392 542.507907513 c 128,-1,16
 -360.279354983 549.75 -360.279354983 549.75 -350 549.75 c 1,17,-1
 -350 550 l 1,0,-1
EndSplineSet
EndChar

StartChar: a
Encoding: 97 97 33
Width: 0
VWidth: 1000
GlyphClass: 4
Flags: W
LayerCount: 2
Fore
SplineSet
-350 550 m 1,0,-1
 -150 550 l 1,1,-1
 -150 549.75 l 1,2,3
 -139.720645017 549.75 -139.720645017 549.75 -132.411618608 542.507907513 c 128,-1,4
 -125.102592198 535.265815027 -125.102592198 535.265815027 -125 525 c 0,5,6
 -125.102592198 514.734184973 -125.102592198 514.734184973 -132.411618608 507.492092487 c 128,-1,7
 -139.720645017 500.25 -139.720645017 500.25 -150 500.25 c 1,8,-1
 -150 500 l 1,9,-1
 -249.591796875 500 l 1,10,11
 -239.378393007 499.832867575 -239.378393007 499.832867575 -232.189196503 492.534346187 c 128,-1,12
 -225 485.235824799 -225 485.235824799 -225 475 c 0,13,14
 -225 465 -225 465 -232.5 457.5 c 128,-1,15
 -240 450 -240 450 -250 450 c 128,-1,16
 -260 450 -260 450 -267.5 457.5 c 128,-1,17
 -275 465 -275 465 -275 475 c 1,18,-1
 -274.974609375 475.005859375 l 1,19,20
 -274.974609375 484.382058352 -274.974609375 484.382058352 -268.835075306 491.408843292 c 128,-1,21
 -262.695541237 498.435628232 -262.695541237 498.435628232 -253.560546875 499.75 c 0,22,23
 -252.229734788 499.940749732 -252.229734788 499.940749732 -250.89453125 499.98828125 c 0,24,25
 -250.499565972 500.000976562 -250.499565972 500.000976562 -250.08984375 500.000976562 c 0,26,27
 -249.955078125 500.001464844 -249.955078125 500.001464844 -249.8203125 500 c 1,28,-1
 -350 500 l 1,29,-1
 -350 500.25 l 1,30,31
 -360.279354983 500.25 -360.279354983 500.25 -367.588381392 507.492092487 c 128,-1,32
 -374.897407802 514.734184973 -374.897407802 514.734184973 -375 525 c 0,33,34
 -374.897407802 535.265815027 -374.897407802 535.265815027 -367.588381392 542.507907513 c 128,-1,35
 -360.279354983 549.75 -360.279354983 549.75 -350 549.75 c 1,36,-1
 -350 550 l 1,0,-1
EndSplineSet
EndChar

StartChar: u
Encoding: 117 117 34
Width: 0
VWidth: 1000
GlyphClass: 4
Flags: W
LayerCount: 2
Fore
SplineSet
-250.544921875 -0.005859375 m 0,0,-1
 -250 0 l 0,1,2
 -240 0 -240 0 -232.5 -7.5 c 128,-1,3
 -225 -15 -225 -15 -225 -25 c 128,-1,4
 -225 -35 -225 -35 -232.5 -42.5 c 128,-1,5
 -240 -50 -240 -50 -250 -50 c 128,-1,6
 -260 -50 -260 -50 -267.5 -42.5 c 128,-1,7
 -275 -35 -275 -35 -275 -25 c 128,-1,8
 -275 -15.1656491102 -275 -15.1656491102 -268.296024405 -7.98263581147 c 128,-1,9
 -261.592048809 -0.799622512747 -261.592048809 -0.799622512747 -251.869140625 -0.0703125 c 0,10,11
 -251.200190918 -0.0201043541854 -251.200190918 -0.0201043541854 -250.544921875 -0.005859375 c 0,0,-1
EndSplineSet
EndChar

StartChar: underscore
Encoding: 95 95 35
Width: 500
VWidth: 1000
Flags: W
LayerCount: 2
Fore
SplineSet
50 -50 m 1,0,-1
 450 -50 l 1,1,-1
 450 -50.3798828125 l 1,2,3
 460.243811485 -50.3798828125 460.243811485 -50.3798828125 467.544208938 -57.5784445461 c 128,-1,4
 474.844606391 -64.7770062797 474.844606391 -64.7770062797 475 -75 c 0,5,6
 474.844606391 -85.2229937203 474.844606391 -85.2229937203 467.544208938 -92.4215554539 c 128,-1,7
 460.243811485 -99.6201171875 460.243811485 -99.6201171875 450 -99.6201171875 c 1,8,-1
 450 -100 l 1,9,-1
 50 -100 l 1,10,-1
 50 -99.6201171875 l 1,11,12
 39.7561885147 -99.6201171875 39.7561885147 -99.6201171875 32.455791062 -92.4215554539 c 128,-1,13
 25.1553936093 -85.2229937203 25.1553936093 -85.2229937203 25 -75 c 0,14,15
 25.1553936093 -64.7770062797 25.1553936093 -64.7770062797 32.455791062 -57.5784445461 c 128,-1,16
 39.7561885147 -50.3798828125 39.7561885147 -50.3798828125 50 -50.3798828125 c 1,17,-1
 50 -50 l 1,0,-1
EndSplineSet
EndChar

StartChar: K
Encoding: 75 75 36
Width: 500
VWidth: 1000
Flags: W
LayerCount: 2
Fore
SplineSet
444.4375 499.373046875 m 0,0,1
 447.186218116 500 447.186218116 500 450 500 c 0,2,3
 460 500 460 500 467.5 492.5 c 128,-1,4
 475 485 475 485 475 475 c 2,5,-1
 475 125 l 2,6,7
 475 73 475 73 438.5 36.5 c 128,-1,8
 402 0 402 0 350 0 c 2,9,-1
 50 0 l 1,10,-1
 50 0.630859375 l 0,11,-1
 49.9921875 0.6416015625 l 0,12,13
 39.8165703983 0.6416015625 39.8165703983 0.6416015625 32.536249151 7.75137500001 c 128,-1,14
 25.2559279036 14.8611484375 25.2559279036 14.8611484375 25 25 c 0,15,16
 25.2559547481 35.1399150342 25.2559547481 35.1399150342 32.5367894432 42.2545278296 c 128,-1,17
 39.8176241384 49.369140625 39.8176241384 49.369140625 49.9921875 49.369140625 c 0,18,-1
 50 49.369140625 l 1,19,-1
 50 50 l 1,20,-1
 350 50 l 2,21,22
 381 50 381 50 403 72 c 128,-1,23
 425 94 425 94 425 125 c 2,24,-1
 425 475 l 0,25,26
 425 483.826978577 425 483.826978577 430.508323732 490.639130132 c 128,-1,27
 436.016647463 497.451281688 436.016647463 497.451281688 444.4375 499.373046875 c 0,0,1
EndSplineSet
Substitution2: "isol-1" uni004B.isol
Substitution2: "fina-1" uni004B.fina
Substitution2: "medi-1" uni004B.medi
Substitution2: "init-1" uni004B.init
EndChar

StartChar: x
Encoding: 120 120 37
Width: 500
VWidth: 1000
Flags: W
LayerCount: 2
Fore
SplineSet
50 450 m 1,0,-1
 350 450 l 2,1,2
 402 450 402 450 438.5 413.5 c 128,-1,3
 475 377 475 377 475 325 c 2,4,-1
 475 -25 l 2,5,6
 475 -35 475 -35 467.5 -42.5 c 128,-1,7
 460 -50 460 -50 450 -50 c 128,-1,8
 440 -50 440 -50 432.5 -42.5 c 128,-1,9
 425 -35 425 -35 425 -25 c 2,10,-1
 425 14.640625 l 1,11,-1
 32.3203125 407.3203125 l 1,12,-1
 32.919921875 407.3203125 l 1,13,-1
 32.705078125 407.62109375 l 0,14,15
 31.1037049954 409.455207581 31.1037049954 409.455207581 29.880859375 411.576171875 c 0,16,17
 28.3137934734 413.431636759 28.3137934734 413.431636759 27.13671875 415.546875 c 0,18,19
 25.1339765686 420.064476085 25.1339765686 420.064476085 25 425 c 0,20,21
 25.1398033417 429.96662181 25.1398033417 429.96662181 27.169921875 434.50390625 c 0,22,23
 29.020397787 438.550358323 29.020397787 438.550358323 32.15234375 441.708984375 c 0,24,25
 32.4202186661 442.055828197 32.4202186661 442.055828197 32.666015625 442.353515625 c 0,26,27
 36.08288931 445.646923696 36.08288931 445.646923696 40.46875 447.458984375 c 2,28,-1
 40.640625 447.541015625 l 1,29,30
 45.1445564607 449.364833608 45.1445564607 449.364833608 50 449.369140625 c 2,31,-1
 50 450 l 1,0,-1
110.359375 400 m 1,32,-1
 425 85.359375 l 1,33,-1
 425 325 l 2,34,35
 425 356 425 356 403 378 c 128,-1,36
 381 400 381 400 350 400 c 2,37,-1
 110.359375 400 l 1,32,-1
EndSplineSet
Substitution2: "isol-1" uni0078.isol
Substitution2: "fina-1" uni0078.fina
Substitution2: "medi-1" uni0078.medi
Substitution2: "init-1" uni0078.init
EndChar

StartChar: P
Encoding: 80 80 38
Width: 500
VWidth: 1000
Flags: W
LayerCount: 2
Fore
SplineSet
150 450 m 2,0,-1
 350 450 l 2,1,2
 402 450 402 450 438.5 413.5 c 128,-1,3
 475 377 475 377 475 325 c 0,4,5
 475 315 475 315 467.5 307.5 c 128,-1,6
 460 300 460 300 450 300 c 128,-1,7
 440 300 440 300 432.5 307.5 c 128,-1,8
 425 315 425 315 425 325 c 0,9,10
 425 356 425 356 403 378 c 128,-1,11
 381 400 381 400 350 400 c 2,12,-1
 150 400 l 2,13,14
 119 400 119 400 97 378 c 128,-1,15
 75 356 75 356 75 325 c 2,16,-1
 75 125 l 2,17,18
 75 94 75 94 97 72 c 128,-1,19
 119 50 119 50 150 50 c 2,20,-1
 350 50 l 2,21,22
 381 50 381 50 403 72 c 128,-1,23
 425 94 425 94 425 125 c 0,24,25
 425 135 425 135 432.5 142.5 c 128,-1,26
 440 150 440 150 450 150 c 128,-1,27
 460 150 460 150 467.5 142.5 c 128,-1,28
 475 135 475 135 475 125 c 0,29,30
 475 73 475 73 438.5 36.5 c 128,-1,31
 402 0 402 0 350 0 c 2,32,-1
 150 0 l 2,33,34
 98 0 98 0 61.5 36.5 c 128,-1,35
 25 73 25 73 25 125 c 2,36,-1
 25 325 l 2,37,38
 25 377 25 377 61.5 413.5 c 128,-1,39
 98 450 98 450 150 450 c 2,0,-1
EndSplineSet
Substitution2: "isol-1" uni0050.isol
Substitution2: "fina-1" uni0050.fina
Substitution2: "medi-1" uni0050.medi
Substitution2: "init-1" uni0050.init
EndChar

StartChar: D
Encoding: 68 68 39
Width: 500
VWidth: 1000
Flags: W
LayerCount: 2
Fore
SplineSet
44.4375 499.373046875 m 0,0,1
 47.1862181161 500 47.1862181161 500 50 500 c 0,2,3
 60 500 60 500 67.5 492.5 c 128,-1,4
 75 485 75 485 75 475 c 2,5,-1
 75 435.359375 l 1,6,-1
 417.267578125 93.091796875 l 1,7,8
 424.711875752 108.177865786 424.711875752 108.177865786 425 125 c 2,9,-1
 425 475 l 2,10,11
 425 485 425 485 432.5 492.5 c 128,-1,12
 440 500 440 500 450 500 c 128,-1,13
 460 500 460 500 467.5 492.5 c 128,-1,14
 475 485 475 485 475 475 c 2,15,-1
 475 387.5 l 0,16,17
 475 300 475 300 475 212.5 c 0,18,-1
 475 125 l 1,19,20
 474.965335157 87.4406422221 474.965335157 87.4406422221 454.236328125 56.123046875 c 1,21,-1
 467.6796875 42.6796875 l 1,22,-1
 467.6796875 42.6796875 l 0,23,-1
 467.080078125 42.6796875 l 1,24,25
 474.755604306 35.5031257857 474.755604306 35.5031257857 475 25 c 0,26,27
 474.699240084 14.8981346404 474.699240084 14.8981346404 467.425046769 7.81967278895 c 128,-1,28
 460.150853453 0.7412109375 460.150853453 0.7412109375 450.0078125 0.7412109375 c 0,29,30
 439.648112891 0.7412109375 439.648112891 0.7412109375 432.3203125 8.080078125 c 1,31,-1
 432.3203125 7.3203125 l 1,32,-1
 428.930609809 10.6644422743 l 0,33,34
 425.540907118 14.0085720486 425.540907118 14.0085720486 422.180067274 17.3694118924 c 128,-1,35
 418.819227431 20.7302517361 418.819227431 20.7302517361 418.876953125 20.763671875 c 1,36,37
 387.559357778 0.0346648433576 387.559357778 0.0346648433576 350 0 c 2,38,-1
 150 0 l 2,39,40
 98 0 98 0 61.5 36.5 c 128,-1,41
 25 73 25 73 25 125 c 2,42,-1
 25 475 l 0,43,44
 25 483.826978577 25 483.826978577 30.5083237317 490.639130132 c 128,-1,45
 36.0166474634 497.451281688 36.0166474634 497.451281688 44.4375 499.373046875 c 0,0,1
75 364.640625 m 1,46,-1
 75 125 l 2,47,48
 75 94 75 94 97 72 c 128,-1,49
 119 50 119 50 150 50 c 2,50,-1
 200 50 l 0,51,52
 250 50 250 50 300 50 c 0,53,-1
 350 50 l 1,54,55
 366.822134214 50.2881242479 366.822134214 50.2881242479 381.908203125 57.732421875 c 1,56,-1
 75 364.640625 l 1,46,-1
EndSplineSet
Substitution2: "isol-1" uni0044.isol
Substitution2: "fina-1" uni0044.fina
Substitution2: "medi-1" uni0044.medi
Substitution2: "init-1" uni0044.init
EndChar

StartChar: E
Encoding: 69 69 40
Width: 0
VWidth: 1000
GlyphClass: 4
Flags: W
LayerCount: 2
Fore
SplineSet
-250.544921875 499.994140625 m 0,0,-1
 -250 500 l 0,1,2
 -240 500 -240 500 -232.5 492.5 c 128,-1,3
 -225 485 -225 485 -225 475 c 128,-1,4
 -225 465 -225 465 -232.5 457.5 c 128,-1,5
 -240 450 -240 450 -250 450 c 128,-1,6
 -260 450 -260 450 -267.5 457.5 c 128,-1,7
 -275 465 -275 465 -275 475 c 128,-1,8
 -275 484.83435089 -275 484.83435089 -268.296024405 492.017364189 c 128,-1,9
 -261.592048809 499.200377487 -261.592048809 499.200377487 -251.869140625 499.9296875 c 0,10,11
 -251.200190918 499.979895646 -251.200190918 499.979895646 -250.544921875 499.994140625 c 0,0,-1
EndSplineSet
EndChar

StartChar: Q
Encoding: 81 81 41
Width: 500
VWidth: 1000
Flags: W
LayerCount: 2
Fore
SplineSet
150 450 m 2,0,-1
 350 450 l 2,1,2
 402 450 402 450 438.5 413.5 c 128,-1,3
 475 377 475 377 475 325 c 2,4,-1
 475 125 l 2,5,6
 475 73 475 73 438.5 36.5 c 128,-1,7
 402 0 402 0 350 0 c 2,8,-1
 150 0 l 2,9,10
 98 0 98 0 61.5 36.5 c 128,-1,11
 25 73 25 73 25 125 c 0,12,13
 25 135 25 135 32.5 142.5 c 128,-1,14
 40 150 40 150 50 150 c 128,-1,15
 60 150 60 150 67.5 142.5 c 128,-1,16
 75 135 75 135 75 125 c 0,17,18
 75 94 75 94 97 72 c 128,-1,19
 119 50 119 50 150 50 c 2,20,-1
 350 50 l 2,21,22
 381 50 381 50 403 72 c 128,-1,23
 425 94 425 94 425 125 c 2,24,-1
 425 325 l 2,25,26
 425 356 425 356 403 378 c 128,-1,27
 381 400 381 400 350 400 c 2,28,-1
 150 400 l 2,29,30
 119 400 119 400 97 378 c 128,-1,31
 75 356 75 356 75 325 c 0,32,33
 75 315 75 315 67.5 307.5 c 128,-1,34
 60 300 60 300 50 300 c 128,-1,35
 40 300 40 300 32.5 307.5 c 128,-1,36
 25 315 25 315 25 325 c 0,37,38
 25 377 25 377 61.5 413.5 c 128,-1,39
 98 450 98 450 150 450 c 2,0,-1
EndSplineSet
Substitution2: "isol-1" uni0051.isol
Substitution2: "fina-1" uni0051.fina
Substitution2: "medi-1" uni0051.medi
Substitution2: "init-1" uni0051.init
EndChar

StartChar: y
Encoding: 121 121 42
Width: 500
VWidth: 1000
Flags: W
LayerCount: 2
Fore
SplineSet
150 450 m 2,0,-1
 350 450 l 2,1,2
 402 450 402 450 438.5 413.5 c 128,-1,3
 475 377 475 377 475 325 c 2,4,-1
 475 275 l 0,5,6
 475 225 475 225 475 175 c 0,7,-1
 475 125 l 1,8,9
 474.965335157 87.4406422221 474.965335157 87.4406422221 454.236328125 56.123046875 c 1,10,-1
 467.6796875 42.6796875 l 1,11,-1
 467.6796875 42.6796875 l 0,12,-1
 467.080078125 42.6796875 l 1,13,14
 474.755604306 35.5031257857 474.755604306 35.5031257857 475 25 c 0,15,16
 474.699240084 14.8981346404 474.699240084 14.8981346404 467.425046769 7.81967278895 c 128,-1,17
 460.150853453 0.7412109375 460.150853453 0.7412109375 450.0078125 0.7412109375 c 0,18,19
 439.648112891 0.7412109375 439.648112891 0.7412109375 432.3203125 8.080078125 c 1,20,-1
 432.3203125 7.3203125 l 1,21,-1
 428.930609809 10.6644422743 l 0,22,23
 425.540907118 14.0085720486 425.540907118 14.0085720486 422.180067274 17.3694118924 c 128,-1,24
 418.819227431 20.7302517361 418.819227431 20.7302517361 418.876953125 20.763671875 c 1,25,26
 387.559357778 0.0346648433576 387.559357778 0.0346648433576 350 0 c 2,27,-1
 150 0 l 2,28,29
 98 0 98 0 61.5 36.5 c 128,-1,30
 25 73 25 73 25 125 c 0,31,32
 25 135 25 135 32.5 142.5 c 128,-1,33
 40 150 40 150 50 150 c 128,-1,34
 60 150 60 150 67.5 142.5 c 128,-1,35
 75 135 75 135 75 125 c 0,36,37
 75 94 75 94 97 72 c 128,-1,38
 119 50 119 50 150 50 c 2,39,-1
 200 50 l 0,40,41
 250 50 250 50 300 50 c 0,42,-1
 350 50 l 1,43,44
 366.980642096 50.0143757552 366.980642096 50.0143757552 382.298828125 57.341796875 c 1,45,-1
 318.67578125 120.96484375 l 0,46,47
 317.929814214 120.419328508 317.929814214 120.419328508 317.1484375 119.865234375 c 0,48,49
 311.646146877 116.381727403 311.646146877 116.381727403 305.828125 113.49609375 c 0,50,51
 303.705356277 112.376230911 303.705356277 112.376230911 301.513671875 111.326171875 c 0,52,53
 295.532163782 108.664259735 295.532163782 108.664259735 289.314453125 106.64453125 c 0,54,55
 287.113870411 105.836516346 287.113870411 105.836516346 284.88671875 105.11328125 c 0,56,57
 278.28762869 103.247157315 278.28762869 103.247157315 271.51953125 102.11328125 c 0,58,59
 269.553792689 101.682393735 269.553792689 101.682393735 267.59765625 101.318359375 c 0,60,61
 258.843559896 100.035902728 258.843559896 100.035902728 250 100 c 0,62,63
 241.431295533 100.047452131 241.431295533 100.047452131 232.9609375 101.26171875 c 0,64,65
 227.517651788 102.144492995 227.517651788 102.144492995 222.181640625 103.5 c 0,66,67
 219.222934784 104.086741367 219.222934784 104.086741367 216.296875 104.81640625 c 0,68,69
 210.269608781 106.606508726 210.269608781 106.606508726 204.453125 108.9921875 c 0,70,71
 202.409778835 109.734554272 202.409778835 109.734554272 200.384765625 110.55078125 c 0,72,73
 194.245450999 113.283757026 194.245450999 113.283757026 188.42578125 116.666015625 c 0,74,75
 186.941527143 117.472044029 186.941527143 117.472044029 185.453125 118.333984375 c 0,76,77
 164.158653843 131.288231238 164.158653843 131.288231238 149.4609375 151.41796875 c 0,78,79
 148.201993072 153.251455034 148.201993072 153.251455034 147.04296875 155.07421875 c 0,80,81
 145.132074337 157.802185257 145.132074337 157.802185257 143.373046875 160.623046875 c 0,82,83
 140.149661771 166.029254722 140.149661771 166.029254722 137.486328125 171.732421875 c 0,84,85
 135.090618285 176.643775113 135.090618285 176.643775113 133.13671875 181.732421875 c 0,86,87
 130.265219358 189.402661433 130.265219358 189.402661433 128.419921875 197.380859375 c 0,88,89
 127.634862714 200.803064339 127.634862714 200.803064339 127.044921875 204.24609375 c 0,90,91
 126.101229534 209.384631669 126.101229534 209.384631669 125.58984375 214.580078125 c 128,-1,92
 125.077864783 219.770082049 125.077864783 219.770082049 125 225 c 128,-1,93
 125.077864783 230.229917951 125.077864783 230.229917951 125.58984375 235.419921875 c 128,-1,94
 126.101229534 240.615368331 126.101229534 240.615368331 127.044921875 245.75390625 c 0,95,96
 127.634862714 249.196935661 127.634862714 249.196935661 128.419921875 252.619140625 c 0,97,98
 130.265219358 260.597338567 130.265219358 260.597338567 133.13671875 268.267578125 c 0,99,100
 135.090618285 273.356224887 135.090618285 273.356224887 137.486328125 278.267578125 c 0,101,102
 140.148303462 283.967836643 140.148303462 283.967836643 143.37109375 289.373046875 c 0,103,104
 144.716590618 291.498370687 144.716590618 291.498370687 146.115234375 293.525390625 c 2,105,-1
 82.341796875 357.298828125 l 1,106,107
 75.0143757552 341.980642096 75.0143757552 341.980642096 75 325 c 0,108,109
 75 315 75 315 67.5 307.5 c 128,-1,110
 60 300 60 300 50 300 c 128,-1,111
 40 300 40 300 32.5 307.5 c 128,-1,112
 25 315 25 315 25 325 c 0,113,114
 25.0346648434 362.559357778 25.0346648434 362.559357778 45.763671875 393.876953125 c 1,115,-1
 32.3203125 407.3203125 l 1,116,-1
 32.3203125 407.3203125 l 0,117,-1
 32.919921875 407.3203125 l 1,118,119
 25.2443956939 414.496874214 25.2443956939 414.496874214 25 425 c 0,120,121
 25.002197587 435.348437012 25.002197587 435.348437012 32.3207024319 442.671288819 c 128,-1,122
 39.6392072769 449.994140625 39.6392072769 449.994140625 49.9853515625 449.994140625 c 0,123,124
 52.8218833905 449.994140625 52.8218833905 449.994140625 55.560546875 449.369140625 c 0,125,126
 62.7228539456 447.446898377 62.7228539456 447.446898377 67.6796875 441.9296875 c 1,127,-1
 67.6796875 442.6796875 l 1,128,-1
 71.069390191 439.335557726 l 0,129,130
 74.4590928819 435.991427951 74.4590928819 435.991427951 77.8199327257 432.630588108 c 128,-1,131
 81.1807725694 429.269748264 81.1807725694 429.269748264 81.123046875 429.236328125 c 1,132,133
 112.440642222 449.965335157 112.440642222 449.965335157 150 450 c 2,0,-1
150 400 m 2,134,135
 133.019357904 399.985624245 133.019357904 399.985624245 117.701171875 392.658203125 c 1,136,-1
 181.482421875 328.876953125 l 0,137,138
 183.445856408 330.313291139 183.445856408 330.313291139 185.453125 331.666015625 c 0,139,140
 186.941527143 332.527955971 186.941527143 332.527955971 188.42578125 333.333984375 c 0,141,142
 194.245450999 336.716242974 194.245450999 336.716242974 200.384765625 339.44921875 c 0,143,144
 202.409778835 340.265445728 202.409778835 340.265445728 204.453125 341.0078125 c 0,145,146
 210.269608781 343.393491274 210.269608781 343.393491274 216.296875 345.18359375 c 0,147,148
 219.222934784 345.913258633 219.222934784 345.913258633 222.181640625 346.5 c 0,149,150
 227.517651788 347.855507005 227.517651788 347.855507005 232.9609375 348.73828125 c 0,151,152
 241.431295533 349.952547869 241.431295533 349.952547869 250 350 c 0,153,154
 258.843559896 349.964097272 258.843559896 349.964097272 267.59765625 348.681640625 c 0,155,156
 269.553792689 348.317606265 269.553792689 348.317606265 271.51953125 347.88671875 c 0,157,158
 278.28762869 346.752842685 278.28762869 346.752842685 284.88671875 344.88671875 c 0,159,160
 287.113870411 344.163483654 287.113870411 344.163483654 289.314453125 343.35546875 c 0,161,162
 295.532163782 341.335740265 295.532163782 341.335740265 301.513671875 338.673828125 c 0,163,164
 303.705356277 337.623769089 303.705356277 337.623769089 305.828125 336.50390625 c 0,165,166
 311.659255256 333.611033193 311.659255256 333.611033193 317.15234375 330.1328125 c 0,167,168
 336.248355783 318.030408684 336.248355783 318.030408684 349.8984375 300 c 1,169,-1
 349.6015625 300 l 0,170,171
 353.167661103 295.136473398 353.167661103 295.136473398 356.2578125 289.935546875 c 0,172,173
 360.431883635 283.15341927 360.431883635 283.15341927 363.708984375 275.904296875 c 0,174,175
 365.158841385 272.770112632 365.158841385 272.770112632 366.421875 269.58984375 c 0,176,177
 369.656108836 261.142663168 369.656108836 261.142663168 371.640625 252.322265625 c 0,178,179
 372.359375348 249.160944792 372.359375348 249.160944792 372.916015625 245.94921875 c 0,180,181
 373.760433909 241.292391913 373.760433909 241.292391913 374.251953125 236.55859375 c 0,182,183
 374.89335549 230.797714387 374.89335549 230.797714387 375 225 c 0,184,185
 374.89335549 219.202285613 374.89335549 219.202285613 374.251953125 213.44140625 c 0,186,187
 373.760433909 208.707608087 373.760433909 208.707608087 372.916015625 204.05078125 c 0,188,189
 372.359375348 200.839055208 372.359375348 200.839055208 371.640625 197.677734375 c 0,190,191
 369.656108836 188.857336832 369.656108836 188.857336832 366.421875 180.41015625 c 0,192,193
 365.158841385 177.229887368 365.158841385 177.229887368 363.708984375 174.095703125 c 0,194,195
 360.431883635 166.84658073 360.431883635 166.84658073 356.2578125 160.064453125 c 0,196,197
 355.092875163 158.233837309 355.092875163 158.233837309 353.884765625 156.474609375 c 2,198,-1
 417.658203125 92.701171875 l 1,199,200
 424.985624245 108.019357904 424.985624245 108.019357904 425 125 c 2,201,-1
 425 325 l 2,202,203
 425 356 425 356 403 378 c 128,-1,204
 381 400 381 400 350 400 c 2,205,-1
 150 400 l 2,134,135
250 300 m 0,206,207
 242.345148103 299.919498271 242.345148103 299.919498271 234.865234375 298.294921875 c 0,208,209
 234.479651734 298.193040283 234.479651734 298.193040283 234.130859375 298.09765625 c 0,210,211
 232.391003212 297.676273365 232.391003212 297.676273365 230.6640625 297.169921875 c 0,212,-1
 230.375 297.091796875 l 0,213,214
 225.149415272 295.675708905 225.149415272 295.675708905 220.18359375 293.525390625 c 0,215,-1
 220.107421875 293.498046875 l 0,216,-1
 220.095703125 293.494140625 l 0,217,218
 218.880615072 293.094557879 218.880615072 293.094557879 217.69921875 292.66015625 c 1,219,-1
 217.892578125 292.466796875 l 1,220,-1
 317.634765625 192.724609375 l 1,221,222
 317.996613721 193.446810327 317.996613721 193.446810327 318.33203125 194.15234375 c 128,-1,223
 318.714344924 195.009883983 318.714344924 195.009883983 319.052734375 195.8203125 c 0,224,225
 319.856191344 197.725187417 319.856191344 197.725187417 320.55078125 199.662109375 c 0,226,227
 320.837848268 200.434982116 320.837848268 200.434982116 321.07421875 201.115234375 c 0,228,229
 321.974539371 203.770291733 321.974539371 203.770291733 322.677734375 206.49609375 c 0,230,231
 322.726953125 206.71484375 322.726953125 206.71484375 322.80859375 207.0859375 c 0,232,233
 323.404483729 209.519896072 323.404483729 209.519896072 323.8359375 211.98828125 c 0,234,235
 323.980009508 212.839345789 323.980009508 212.839345789 324.103515625 213.677734375 c 0,236,237
 324.41049484 215.688521675 324.41049484 215.688521675 324.609375 217.72265625 c 0,238,239
 324.703011892 218.614509275 324.703011892 218.614509275 324.76953125 219.423828125 c 0,240,241
 324.988503099 222.207690235 324.988503099 222.207690235 325 225 c 128,-1,242
 324.988503099 227.792309765 324.988503099 227.792309765 324.76953125 230.576171875 c 0,243,244
 324.703011892 231.385490725 324.703011892 231.385490725 324.609375 232.27734375 c 0,245,246
 324.41049484 234.311478325 324.41049484 234.311478325 324.103515625 236.322265625 c 0,247,248
 323.980009508 237.160654211 323.980009508 237.160654211 323.8359375 238.01171875 c 0,249,250
 323.404483729 240.480103928 323.404483729 240.480103928 322.80859375 242.9140625 c 0,251,252
 322.726953125 243.28515625 322.726953125 243.28515625 322.677734375 243.50390625 c 0,253,254
 321.974539371 246.229708267 321.974539371 246.229708267 321.07421875 248.884765625 c 0,255,256
 320.837848268 249.565017884 320.837848268 249.565017884 320.55078125 250.337890625 c 0,257,258
 319.856191344 252.274812583 319.856191344 252.274812583 319.052734375 254.1796875 c 0,259,260
 318.714344924 254.990116017 318.714344924 254.990116017 318.33203125 255.84765625 c 0,261,262
 317.400760359 257.905559277 317.400760359 257.905559277 316.349609375 259.900390625 c 0,263,264
 316.129231771 260.341145833 316.129231771 260.341145833 315.84765625 260.884765625 c 0,265,266
 314.508300781 263.332519531 314.508300781 263.332519531 312.998046875 265.666015625 c 0,267,268
 312.565771542 266.315197797 312.565771542 266.315197797 312.166015625 266.890625 c 0,269,270
 311.005518197 268.616901099 311.005518197 268.616901099 309.73046875 270.302734375 c 0,271,272
 309.200617497 271.003047157 309.200617497 271.003047157 308.626953125 271.724609375 c 0,273,274
 307.26366491 273.431298837 307.26366491 273.431298837 305.841796875 275.015625 c 0,275,276
 305.401394521 275.524115875 305.401394521 275.524115875 304.94921875 276.02734375 c 0,277,278
 303.06101632 278.06101632 303.06101632 278.06101632 301.02734375 279.94921875 c 0,279,280
 300.524115875 280.401394521 300.524115875 280.401394521 300.015625 280.841796875 c 0,281,282
 298.431298837 282.26366491 298.431298837 282.26366491 296.724609375 283.626953125 c 0,283,284
 296.003047157 284.200617497 296.003047157 284.200617497 295.302734375 284.73046875 c 0,285,286
 293.616901099 286.005518197 293.616901099 286.005518197 291.890625 287.166015625 c 0,287,288
 291.315197797 287.565771542 291.315197797 287.565771542 290.666015625 287.998046875 c 0,289,290
 288.332519531 289.508789062 288.332519531 289.508789062 285.884765625 290.84765625 c 0,291,292
 285.341145833 291.129231771 285.341145833 291.129231771 284.900390625 291.349609375 c 0,293,294
 282.905559277 292.400760359 282.905559277 292.400760359 280.84765625 293.33203125 c 0,295,296
 279.990116017 293.714344924 279.990116017 293.714344924 279.1796875 294.052734375 c 0,297,298
 277.274812583 294.856191344 277.274812583 294.856191344 275.337890625 295.55078125 c 0,299,300
 274.565017884 295.837848268 274.565017884 295.837848268 273.884765625 296.07421875 c 0,301,302
 271.229708267 296.974539371 271.229708267 296.974539371 268.50390625 297.677734375 c 0,303,304
 268.28515625 297.726953125 268.28515625 297.726953125 267.9140625 297.80859375 c 0,305,306
 265.480103928 298.404483729 265.480103928 298.404483729 263.01171875 298.8359375 c 0,307,308
 262.160654211 298.980009508 262.160654211 298.980009508 261.322265625 299.103515625 c 0,309,310
 259.311478325 299.41049484 259.311478325 299.41049484 257.27734375 299.609375 c 0,311,312
 256.385490725 299.703011892 256.385490725 299.703011892 255.576171875 299.76953125 c 0,313,314
 252.792309765 299.988503099 252.792309765 299.988503099 250 300 c 0,206,207
182.33984375 257.30078125 m 1,315,316
 181.905442121 256.119384928 181.905442121 256.119384928 181.505859375 254.904296875 c 0,317,-1
 181.501953125 254.892578125 l 0,318,-1
 181.474609375 254.81640625 l 0,319,320
 179.324291095 249.850584728 179.324291095 249.850584728 177.908203125 244.625 c 0,321,-1
 177.83203125 244.34375 l 0,322,323
 177.325329245 242.615613838 177.325329245 242.615613838 176.90234375 240.869140625 c 0,324,325
 176.803670613 240.508320944 176.803670613 240.508320944 176.70703125 240.142578125 c 0,326,327
 175.080488687 232.653611722 175.080488687 232.653611722 175 225 c 128,-1,328
 175.080501729 217.345148103 175.080501729 217.345148103 176.705078125 209.865234375 c 0,329,330
 176.806959717 209.479651734 176.806959717 209.479651734 176.90234375 209.130859375 c 0,331,332
 177.323726635 207.391003212 177.323726635 207.391003212 177.830078125 205.6640625 c 0,333,-1
 177.908203125 205.375 l 0,334,335
 179.324291095 200.149415272 179.324291095 200.149415272 181.474609375 195.18359375 c 0,336,-1
 181.501953125 195.107421875 l 0,337,-1
 181.505859375 195.095703125 l 0,338,339
 181.905442121 193.880615072 181.905442121 193.880615072 182.33984375 192.69921875 c 1,340,-1
 182.533203125 192.892578125 l 1,341,342
 183.044553068 191.74347713 183.044553068 191.74347713 183.623046875 190.5546875 c 0,343,344
 185.55876341 187.077404855 185.55876341 187.077404855 187.85546875 183.8203125 c 0,345,346
 188.559213902 182.655289013 188.559213902 182.655289013 189.287109375 181.541015625 c 0,347,348
 189.592218835 181.047909426 189.592218835 181.047909426 189.873046875 180.609375 c 0,349,350
 190.885770264 179.088804984 190.885770264 179.088804984 191.931640625 177.669921875 c 0,351,352
 196.75445788 171.75445788 196.75445788 171.75445788 202.669921875 166.931640625 c 0,353,354
 204.088804984 165.885770264 204.088804984 165.885770264 205.609375 164.873046875 c 0,355,356
 206.047909426 164.592218835 206.047909426 164.592218835 206.541015625 164.287109375 c 0,357,358
 207.655289013 163.559213902 207.655289013 163.559213902 208.8203125 162.85546875 c 0,359,360
 212.077404855 160.55876341 212.077404855 160.55876341 215.5546875 158.623046875 c 0,361,362
 216.712273455 158.059737531 216.712273455 158.059737531 217.88671875 157.537109375 c 1,363,-1
 217.69921875 157.33984375 l 1,364,365
 218.880615072 156.905442121 218.880615072 156.905442121 220.095703125 156.505859375 c 0,366,-1
 220.107421875 156.501953125 l 0,367,-1
 220.18359375 156.474609375 l 0,368,369
 225.149415272 154.324291095 225.149415272 154.324291095 230.375 152.908203125 c 0,370,-1
 230.65625 152.83203125 l 0,371,372
 232.384386162 152.325329245 232.384386162 152.325329245 234.130859375 151.90234375 c 0,373,374
 234.491679056 151.803670613 234.491679056 151.803670613 234.857421875 151.70703125 c 0,375,376
 242.346388278 150.080488687 242.346388278 150.080488687 250 150 c 0,377,378
 252.792309765 150.011496901 252.792309765 150.011496901 255.576171875 150.23046875 c 0,379,380
 256.385490725 150.296988108 256.385490725 150.296988108 257.27734375 150.390625 c 0,381,382
 259.311478325 150.58950516 259.311478325 150.58950516 261.322265625 150.896484375 c 0,383,384
 262.160654211 151.019990492 262.160654211 151.019990492 263.01171875 151.1640625 c 0,385,386
 265.480103928 151.595516271 265.480103928 151.595516271 267.9140625 152.19140625 c 0,387,388
 268.28515625 152.273046875 268.28515625 152.273046875 268.50390625 152.322265625 c 0,389,390
 271.229708267 153.025460629 271.229708267 153.025460629 273.884765625 153.92578125 c 0,391,392
 274.565017884 154.162151732 274.565017884 154.162151732 275.337890625 154.44921875 c 0,393,394
 277.274812583 155.143808656 277.274812583 155.143808656 279.1796875 155.947265625 c 0,395,396
 279.990116017 156.285655076 279.990116017 156.285655076 280.84765625 156.66796875 c 128,-1,397
 281.553189673 157.003386279 281.553189673 157.003386279 282.275390625 157.365234375 c 1,398,-1
 182.533203125 257.107421875 l 1,399,-1
 182.33984375 257.30078125 l 1,315,316
EndSplineSet
Substitution2: "isol-1" uni0079.isol
Substitution2: "fina-1" uni0079.fina
Substitution2: "medi-1" uni0079.medi
Substitution2: "init-1" uni0079.init
EndChar

StartChar: L
Encoding: 76 76 43
Width: 500
VWidth: 1000
Flags: W
LayerCount: 2
Fore
SplineSet
150 450 m 2,0,-1
 350 450 l 2,1,2
 402 450 402 450 438.5 413.5 c 128,-1,3
 475 377 475 377 475 325 c 2,4,-1
 475 275 l 0,5,6
 475 225 475 225 475 175 c 0,7,-1
 475 125 l 1,8,9
 474.965335157 87.4406422221 474.965335157 87.4406422221 454.236328125 56.123046875 c 1,10,-1
 467.6796875 42.6796875 l 1,11,-1
 467.6796875 42.6796875 l 0,12,-1
 467.080078125 42.6796875 l 1,13,14
 474.755604306 35.5031257857 474.755604306 35.5031257857 475 25 c 0,15,16
 474.699240084 14.8981346404 474.699240084 14.8981346404 467.425046769 7.81967278895 c 128,-1,17
 460.150853453 0.7412109375 460.150853453 0.7412109375 450.0078125 0.7412109375 c 0,18,19
 439.648112891 0.7412109375 439.648112891 0.7412109375 432.3203125 8.080078125 c 1,20,-1
 432.3203125 7.3203125 l 1,21,-1
 428.930609809 10.6644422743 l 0,22,23
 425.540907118 14.0085720486 425.540907118 14.0085720486 422.180067274 17.3694118924 c 128,-1,24
 418.819227431 20.7302517361 418.819227431 20.7302517361 418.876953125 20.763671875 c 1,25,26
 387.559357778 0.0346648433576 387.559357778 0.0346648433576 350 0 c 2,27,-1
 150 0 l 2,28,29
 98 0 98 0 61.5 36.5 c 128,-1,30
 25 73 25 73 25 125 c 2,31,-1
 25 175 l 0,32,33
 25 225 25 225 25 275 c 0,34,-1
 25 325 l 1,35,36
 25.0346648434 362.559357778 25.0346648434 362.559357778 45.763671875 393.876953125 c 1,37,-1
 32.3203125 407.3203125 l 1,38,-1
 32.3203125 407.3203125 l 0,39,-1
 32.919921875 407.3203125 l 1,40,41
 25.2443956939 414.496874214 25.2443956939 414.496874214 25 425 c 0,42,43
 25.002197587 435.348437012 25.002197587 435.348437012 32.3207024319 442.671288819 c 128,-1,44
 39.6392072769 449.994140625 39.6392072769 449.994140625 49.9853515625 449.994140625 c 0,45,46
 52.8218833905 449.994140625 52.8218833905 449.994140625 55.560546875 449.369140625 c 0,47,48
 62.7228539456 447.446898377 62.7228539456 447.446898377 67.6796875 441.9296875 c 1,49,-1
 67.6796875 442.6796875 l 1,50,-1
 71.069390191 439.335557726 l 0,51,52
 74.4590928819 435.991427951 74.4590928819 435.991427951 77.8199327257 432.630588108 c 128,-1,53
 81.1807725694 429.269748264 81.1807725694 429.269748264 81.123046875 429.236328125 c 1,54,55
 112.440642222 449.965335157 112.440642222 449.965335157 150 450 c 2,0,-1
150 400 m 2,56,57
 133.019357904 399.985624245 133.019357904 399.985624245 117.701171875 392.658203125 c 1,58,-1
 417.658203125 92.701171875 l 1,59,60
 424.985624245 108.019357904 424.985624245 108.019357904 425 125 c 2,61,-1
 425 325 l 2,62,63
 425 356 425 356 403 378 c 128,-1,64
 381 400 381 400 350 400 c 2,65,-1
 150 400 l 2,56,57
82.341796875 357.298828125 m 1,66,67
 75.0143757552 341.980642096 75.0143757552 341.980642096 75 325 c 2,68,-1
 75 125 l 2,69,70
 75 94 75 94 97 72 c 128,-1,71
 119 50 119 50 150 50 c 2,72,-1
 200 50 l 0,73,74
 250 50 250 50 300 50 c 0,75,-1
 350 50 l 1,76,77
 366.980642096 50.0143757552 366.980642096 50.0143757552 382.298828125 57.341796875 c 1,78,-1
 82.341796875 357.298828125 l 1,66,67
EndSplineSet
Substitution2: "isol-1" uni004C.isol
Substitution2: "fina-1" uni004C.fina
Substitution2: "medi-1" uni004C.medi
Substitution2: "init-1" uni004C.init
EndChar

StartChar: J
Encoding: 74 74 44
Width: 500
VWidth: 1000
Flags: W
LayerCount: 2
Fore
SplineSet
44.4375 499.373046875 m 0,0,1
 47.1862181161 500 47.1862181161 500 50 500 c 0,2,3
 60 500 60 500 67.5 492.5 c 128,-1,4
 75 485 75 485 75 475 c 2,5,-1
 75 435.359375 l 1,6,-1
 181.482421875 328.876953125 l 0,7,8
 183.445856408 330.313291139 183.445856408 330.313291139 185.453125 331.666015625 c 0,9,10
 186.941527143 332.527955971 186.941527143 332.527955971 188.42578125 333.333984375 c 0,11,12
 194.245450999 336.716242974 194.245450999 336.716242974 200.384765625 339.44921875 c 0,13,14
 202.409778835 340.265445728 202.409778835 340.265445728 204.453125 341.0078125 c 0,15,16
 210.269608781 343.393491274 210.269608781 343.393491274 216.296875 345.18359375 c 0,17,18
 219.222934784 345.913258633 219.222934784 345.913258633 222.181640625 346.5 c 0,19,20
 227.517651788 347.855507005 227.517651788 347.855507005 232.9609375 348.73828125 c 0,21,22
 241.431295533 349.952547869 241.431295533 349.952547869 250 350 c 0,23,24
 258.843559896 349.964097272 258.843559896 349.964097272 267.59765625 348.681640625 c 0,25,26
 269.553792689 348.317606265 269.553792689 348.317606265 271.51953125 347.88671875 c 0,27,28
 278.28762869 346.752842685 278.28762869 346.752842685 284.88671875 344.88671875 c 0,29,30
 287.113870411 344.163483654 287.113870411 344.163483654 289.314453125 343.35546875 c 0,31,32
 295.532163782 341.335740265 295.532163782 341.335740265 301.513671875 338.673828125 c 0,33,34
 303.705356277 337.623769089 303.705356277 337.623769089 305.828125 336.50390625 c 0,35,36
 311.659255256 333.611033193 311.659255256 333.611033193 317.15234375 330.1328125 c 0,37,38
 336.248355783 318.030408684 336.248355783 318.030408684 349.8984375 300 c 1,39,-1
 349.6015625 300 l 0,40,41
 353.167661103 295.136473398 353.167661103 295.136473398 356.2578125 289.935546875 c 0,42,43
 360.431883635 283.15341927 360.431883635 283.15341927 363.708984375 275.904296875 c 0,44,45
 365.158841385 272.770112632 365.158841385 272.770112632 366.421875 269.58984375 c 0,46,47
 369.656108836 261.142663168 369.656108836 261.142663168 371.640625 252.322265625 c 0,48,49
 372.359375348 249.160944792 372.359375348 249.160944792 372.916015625 245.94921875 c 0,50,51
 373.760433909 241.292391913 373.760433909 241.292391913 374.251953125 236.55859375 c 0,52,53
 374.89335549 230.797714387 374.89335549 230.797714387 375 225 c 0,54,55
 374.89335549 219.202285613 374.89335549 219.202285613 374.251953125 213.44140625 c 0,56,57
 373.760433909 208.707608087 373.760433909 208.707608087 372.916015625 204.05078125 c 0,58,59
 372.359375348 200.839055208 372.359375348 200.839055208 371.640625 197.677734375 c 0,60,61
 369.656108836 188.857336832 369.656108836 188.857336832 366.421875 180.41015625 c 0,62,63
 365.158841385 177.229887368 365.158841385 177.229887368 363.708984375 174.095703125 c 0,64,65
 360.431883635 166.84658073 360.431883635 166.84658073 356.2578125 160.064453125 c 0,66,67
 355.092875163 158.233837309 355.092875163 158.233837309 353.884765625 156.474609375 c 2,68,-1
 467.6796875 42.6796875 l 1,69,-1
 467.6796875 42.6796875 l 0,70,-1
 467.080078125 42.6796875 l 0,71,-1
 467.294921875 42.37890625 l 0,72,73
 468.884117338 40.5530221006 468.884117338 40.5530221006 470.08984375 38.46484375 c 0,74,75
 471.672932068 36.5956551336 471.672932068 36.5956551336 472.865234375 34.44921875 c 0,76,77
 474.86593689 29.9358289185 474.86593689 29.9358289185 475 25 c 0,78,79
 474.744045252 14.8600849658 474.744045252 14.8600849658 467.463210557 7.7454721704 c 128,-1,80
 460.182375862 0.630859375 460.182375862 0.630859375 450.0078125 0.630859375 c 0,81,-1
 450 0.630859375 l 1,82,-1
 450 0 l 1,83,-1
 150 0 l 2,84,85
 98 0 98 0 61.5 36.5 c 128,-1,86
 25 73 25 73 25 125 c 2,87,-1
 25 425 l 1,88,-1
 25 475 l 0,89,90
 25 483.826978577 25 483.826978577 30.5083237317 490.639130132 c 128,-1,91
 36.0166474634 497.451281688 36.0166474634 497.451281688 44.4375 499.373046875 c 0,0,1
75 364.640625 m 1,92,-1
 75 125 l 2,93,94
 75 94 75 94 97 72 c 128,-1,95
 119 50 119 50 150 50 c 2,96,-1
 389.640625 50 l 1,97,-1
 318.67578125 120.96484375 l 0,98,99
 317.929814214 120.419328508 317.929814214 120.419328508 317.1484375 119.865234375 c 0,100,101
 311.646146877 116.381727403 311.646146877 116.381727403 305.828125 113.49609375 c 0,102,103
 303.705356277 112.376230911 303.705356277 112.376230911 301.513671875 111.326171875 c 0,104,105
 295.532163782 108.664259735 295.532163782 108.664259735 289.314453125 106.64453125 c 0,106,107
 287.113870411 105.836516346 287.113870411 105.836516346 284.88671875 105.11328125 c 0,108,109
 278.28762869 103.247157315 278.28762869 103.247157315 271.51953125 102.11328125 c 0,110,111
 269.553792689 101.682393735 269.553792689 101.682393735 267.59765625 101.318359375 c 0,112,113
 258.843559896 100.035902728 258.843559896 100.035902728 250 100 c 0,114,115
 241.431295533 100.047452131 241.431295533 100.047452131 232.9609375 101.26171875 c 0,116,117
 227.517651788 102.144492995 227.517651788 102.144492995 222.181640625 103.5 c 0,118,119
 219.222934784 104.086741367 219.222934784 104.086741367 216.296875 104.81640625 c 0,120,121
 210.269608781 106.606508726 210.269608781 106.606508726 204.453125 108.9921875 c 0,122,123
 202.409778835 109.734554272 202.409778835 109.734554272 200.384765625 110.55078125 c 0,124,125
 194.245450999 113.283757026 194.245450999 113.283757026 188.42578125 116.666015625 c 0,126,127
 186.941527143 117.472044029 186.941527143 117.472044029 185.453125 118.333984375 c 0,128,129
 164.158653843 131.288231238 164.158653843 131.288231238 149.4609375 151.41796875 c 0,130,131
 148.201993072 153.251455034 148.201993072 153.251455034 147.04296875 155.07421875 c 0,132,133
 145.132074337 157.802185257 145.132074337 157.802185257 143.373046875 160.623046875 c 0,134,135
 140.149661771 166.029254722 140.149661771 166.029254722 137.486328125 171.732421875 c 0,136,137
 135.090618285 176.643775113 135.090618285 176.643775113 133.13671875 181.732421875 c 0,138,139
 130.265219358 189.402661433 130.265219358 189.402661433 128.419921875 197.380859375 c 0,140,141
 127.634862714 200.803064339 127.634862714 200.803064339 127.044921875 204.24609375 c 0,142,143
 126.101229534 209.384631669 126.101229534 209.384631669 125.58984375 214.580078125 c 128,-1,144
 125.077864783 219.770082049 125.077864783 219.770082049 125 225 c 128,-1,145
 125.077864783 230.229917951 125.077864783 230.229917951 125.58984375 235.419921875 c 128,-1,146
 126.101229534 240.615368331 126.101229534 240.615368331 127.044921875 245.75390625 c 0,147,148
 127.634862714 249.196935661 127.634862714 249.196935661 128.419921875 252.619140625 c 0,149,150
 130.265219358 260.597338567 130.265219358 260.597338567 133.13671875 268.267578125 c 0,151,152
 135.090618285 273.356224887 135.090618285 273.356224887 137.486328125 278.267578125 c 0,153,154
 140.148303462 283.967836643 140.148303462 283.967836643 143.37109375 289.373046875 c 0,155,156
 144.716590618 291.498370687 144.716590618 291.498370687 146.115234375 293.525390625 c 2,157,-1
 75 364.640625 l 1,92,-1
250 300 m 0,158,159
 242.345148103 299.919498271 242.345148103 299.919498271 234.865234375 298.294921875 c 0,160,161
 234.479651734 298.193040283 234.479651734 298.193040283 234.130859375 298.09765625 c 0,162,163
 232.391003212 297.676273365 232.391003212 297.676273365 230.6640625 297.169921875 c 0,164,-1
 230.375 297.091796875 l 0,165,166
 225.149415272 295.675708905 225.149415272 295.675708905 220.18359375 293.525390625 c 0,167,-1
 220.107421875 293.498046875 l 0,168,-1
 220.095703125 293.494140625 l 0,169,170
 218.880615072 293.094557879 218.880615072 293.094557879 217.69921875 292.66015625 c 1,171,-1
 217.892578125 292.466796875 l 1,172,-1
 317.634765625 192.724609375 l 1,173,174
 317.996613721 193.446810327 317.996613721 193.446810327 318.33203125 194.15234375 c 128,-1,175
 318.714344924 195.009883983 318.714344924 195.009883983 319.052734375 195.8203125 c 0,176,177
 319.856191344 197.725187417 319.856191344 197.725187417 320.55078125 199.662109375 c 0,178,179
 320.837848268 200.434982116 320.837848268 200.434982116 321.07421875 201.115234375 c 0,180,181
 321.974539371 203.770291733 321.974539371 203.770291733 322.677734375 206.49609375 c 0,182,183
 322.726953125 206.71484375 322.726953125 206.71484375 322.80859375 207.0859375 c 0,184,185
 323.404483729 209.519896072 323.404483729 209.519896072 323.8359375 211.98828125 c 0,186,187
 323.980009508 212.839345789 323.980009508 212.839345789 324.103515625 213.677734375 c 0,188,189
 324.41049484 215.688521675 324.41049484 215.688521675 324.609375 217.72265625 c 0,190,191
 324.703011892 218.614509275 324.703011892 218.614509275 324.76953125 219.423828125 c 0,192,193
 324.988503099 222.207690235 324.988503099 222.207690235 325 225 c 128,-1,194
 324.988503099 227.792309765 324.988503099 227.792309765 324.76953125 230.576171875 c 0,195,196
 324.703011892 231.385490725 324.703011892 231.385490725 324.609375 232.27734375 c 0,197,198
 324.41049484 234.311478325 324.41049484 234.311478325 324.103515625 236.322265625 c 0,199,200
 323.980009508 237.160654211 323.980009508 237.160654211 323.8359375 238.01171875 c 0,201,202
 323.404483729 240.480103928 323.404483729 240.480103928 322.80859375 242.9140625 c 0,203,204
 322.726953125 243.28515625 322.726953125 243.28515625 322.677734375 243.50390625 c 0,205,206
 321.974539371 246.229708267 321.974539371 246.229708267 321.07421875 248.884765625 c 0,207,208
 320.837848268 249.565017884 320.837848268 249.565017884 320.55078125 250.337890625 c 0,209,210
 319.856191344 252.274812583 319.856191344 252.274812583 319.052734375 254.1796875 c 0,211,212
 318.714344924 254.990116017 318.714344924 254.990116017 318.33203125 255.84765625 c 0,213,214
 317.400760359 257.905559277 317.400760359 257.905559277 316.349609375 259.900390625 c 0,215,216
 316.129231771 260.341145833 316.129231771 260.341145833 315.84765625 260.884765625 c 0,217,218
 314.508300781 263.332519531 314.508300781 263.332519531 312.998046875 265.666015625 c 0,219,220
 312.565771542 266.315197797 312.565771542 266.315197797 312.166015625 266.890625 c 0,221,222
 311.005518197 268.616901099 311.005518197 268.616901099 309.73046875 270.302734375 c 0,223,224
 309.200617497 271.003047157 309.200617497 271.003047157 308.626953125 271.724609375 c 0,225,226
 307.26366491 273.431298837 307.26366491 273.431298837 305.841796875 275.015625 c 0,227,228
 305.401394521 275.524115875 305.401394521 275.524115875 304.94921875 276.02734375 c 0,229,230
 303.06101632 278.06101632 303.06101632 278.06101632 301.02734375 279.94921875 c 0,231,232
 300.524115875 280.401394521 300.524115875 280.401394521 300.015625 280.841796875 c 0,233,234
 298.431298837 282.26366491 298.431298837 282.26366491 296.724609375 283.626953125 c 0,235,236
 296.003047157 284.200617497 296.003047157 284.200617497 295.302734375 284.73046875 c 0,237,238
 293.616901099 286.005518197 293.616901099 286.005518197 291.890625 287.166015625 c 0,239,240
 291.315197797 287.565771542 291.315197797 287.565771542 290.666015625 287.998046875 c 0,241,242
 288.332519531 289.508789062 288.332519531 289.508789062 285.884765625 290.84765625 c 0,243,244
 285.341145833 291.129231771 285.341145833 291.129231771 284.900390625 291.349609375 c 0,245,246
 282.905559277 292.400760359 282.905559277 292.400760359 280.84765625 293.33203125 c 0,247,248
 279.990116017 293.714344924 279.990116017 293.714344924 279.1796875 294.052734375 c 0,249,250
 277.274812583 294.856191344 277.274812583 294.856191344 275.337890625 295.55078125 c 0,251,252
 274.565017884 295.837848268 274.565017884 295.837848268 273.884765625 296.07421875 c 0,253,254
 271.229708267 296.974539371 271.229708267 296.974539371 268.50390625 297.677734375 c 0,255,256
 268.28515625 297.726953125 268.28515625 297.726953125 267.9140625 297.80859375 c 0,257,258
 265.480103928 298.404483729 265.480103928 298.404483729 263.01171875 298.8359375 c 0,259,260
 262.160654211 298.980009508 262.160654211 298.980009508 261.322265625 299.103515625 c 0,261,262
 259.311478325 299.41049484 259.311478325 299.41049484 257.27734375 299.609375 c 0,263,264
 256.385490725 299.703011892 256.385490725 299.703011892 255.576171875 299.76953125 c 0,265,266
 252.792309765 299.988503099 252.792309765 299.988503099 250 300 c 0,158,159
182.33984375 257.30078125 m 1,267,268
 181.905442121 256.119384928 181.905442121 256.119384928 181.505859375 254.904296875 c 0,269,-1
 181.501953125 254.892578125 l 0,270,-1
 181.474609375 254.81640625 l 0,271,272
 179.324291095 249.850584728 179.324291095 249.850584728 177.908203125 244.625 c 0,273,-1
 177.83203125 244.34375 l 0,274,275
 177.325329245 242.615613838 177.325329245 242.615613838 176.90234375 240.869140625 c 0,276,277
 176.803670613 240.508320944 176.803670613 240.508320944 176.70703125 240.142578125 c 0,278,279
 175.080488687 232.653611722 175.080488687 232.653611722 175 225 c 128,-1,280
 175.080501729 217.345148103 175.080501729 217.345148103 176.705078125 209.865234375 c 0,281,282
 176.806959717 209.479651734 176.806959717 209.479651734 176.90234375 209.130859375 c 0,283,284
 177.323726635 207.391003212 177.323726635 207.391003212 177.830078125 205.6640625 c 0,285,-1
 177.908203125 205.375 l 0,286,287
 179.324291095 200.149415272 179.324291095 200.149415272 181.474609375 195.18359375 c 0,288,-1
 181.501953125 195.107421875 l 0,289,-1
 181.505859375 195.095703125 l 0,290,291
 181.905442121 193.880615072 181.905442121 193.880615072 182.33984375 192.69921875 c 1,292,-1
 182.533203125 192.892578125 l 1,293,294
 183.044553068 191.74347713 183.044553068 191.74347713 183.623046875 190.5546875 c 0,295,296
 185.55876341 187.077404855 185.55876341 187.077404855 187.85546875 183.8203125 c 0,297,298
 188.559213902 182.655289013 188.559213902 182.655289013 189.287109375 181.541015625 c 0,299,300
 189.592218835 181.047909426 189.592218835 181.047909426 189.873046875 180.609375 c 0,301,302
 190.885770264 179.088804984 190.885770264 179.088804984 191.931640625 177.669921875 c 0,303,304
 196.75445788 171.75445788 196.75445788 171.75445788 202.669921875 166.931640625 c 0,305,306
 204.088804984 165.885770264 204.088804984 165.885770264 205.609375 164.873046875 c 0,307,308
 206.047909426 164.592218835 206.047909426 164.592218835 206.541015625 164.287109375 c 0,309,310
 207.655289013 163.559213902 207.655289013 163.559213902 208.8203125 162.85546875 c 0,311,312
 212.077404855 160.55876341 212.077404855 160.55876341 215.5546875 158.623046875 c 0,313,314
 216.712273455 158.059737531 216.712273455 158.059737531 217.88671875 157.537109375 c 1,315,-1
 217.69921875 157.33984375 l 1,316,317
 218.880615072 156.905442121 218.880615072 156.905442121 220.095703125 156.505859375 c 0,318,-1
 220.107421875 156.501953125 l 0,319,-1
 220.18359375 156.474609375 l 0,320,321
 225.149415272 154.324291095 225.149415272 154.324291095 230.375 152.908203125 c 0,322,-1
 230.65625 152.83203125 l 0,323,324
 232.384386162 152.325329245 232.384386162 152.325329245 234.130859375 151.90234375 c 0,325,326
 234.491679056 151.803670613 234.491679056 151.803670613 234.857421875 151.70703125 c 0,327,328
 242.346388278 150.080488687 242.346388278 150.080488687 250 150 c 0,329,330
 252.792309765 150.011496901 252.792309765 150.011496901 255.576171875 150.23046875 c 0,331,332
 256.385490725 150.296988108 256.385490725 150.296988108 257.27734375 150.390625 c 0,333,334
 259.311478325 150.58950516 259.311478325 150.58950516 261.322265625 150.896484375 c 0,335,336
 262.160654211 151.019990492 262.160654211 151.019990492 263.01171875 151.1640625 c 0,337,338
 265.480103928 151.595516271 265.480103928 151.595516271 267.9140625 152.19140625 c 0,339,340
 268.28515625 152.273046875 268.28515625 152.273046875 268.50390625 152.322265625 c 0,341,342
 271.229708267 153.025460629 271.229708267 153.025460629 273.884765625 153.92578125 c 0,343,344
 274.565017884 154.162151732 274.565017884 154.162151732 275.337890625 154.44921875 c 0,345,346
 277.274812583 155.143808656 277.274812583 155.143808656 279.1796875 155.947265625 c 0,347,348
 279.990116017 156.285655076 279.990116017 156.285655076 280.84765625 156.66796875 c 128,-1,349
 281.553189673 157.003386279 281.553189673 157.003386279 282.275390625 157.365234375 c 1,350,-1
 182.533203125 257.107421875 l 1,351,-1
 182.33984375 257.30078125 l 1,267,268
EndSplineSet
Substitution2: "isol-1" uni004A.isol
Substitution2: "fina-1" uni004A.fina
Substitution2: "medi-1" uni004A.medi
Substitution2: "init-1" uni004A.init
EndChar

StartChar: asciicircum
Encoding: 94 94 45
Width: 500
VWidth: 1000
Flags: W
LayerCount: 2
Fore
SplineSet
150 550 m 2,0,-1
 350 550 l 2,1,2
 402 550 402 550 438.5 513.5 c 128,-1,3
 475 477 475 477 475 425 c 0,4,5
 475 415 475 415 467.5 407.5 c 128,-1,6
 460 400 460 400 450 400 c 128,-1,7
 440 400 440 400 432.5 407.5 c 128,-1,8
 425 415 425 415 425 425 c 0,9,10
 425 456 425 456 403 478 c 128,-1,11
 381 500 381 500 350 500 c 2,12,-1
 150 500 l 2,13,14
 119 500 119 500 97 478 c 128,-1,15
 75 456 75 456 75 425 c 0,16,17
 75 415 75 415 67.5 407.5 c 128,-1,18
 60 400 60 400 50 400 c 128,-1,19
 40 400 40 400 32.5 407.5 c 128,-1,20
 25 415 25 415 25 425 c 0,21,22
 25 477 25 477 61.5 513.5 c 128,-1,23
 98 550 98 550 150 550 c 2,0,-1
EndSplineSet
EndChar

StartChar: G
Encoding: 71 71 46
Width: 500
VWidth: 1000
Flags: W
LayerCount: 2
Fore
SplineSet
444.4375 499.373046875 m 0,0,1
 447.186218116 500 447.186218116 500 450 500 c 0,2,3
 460 500 460 500 467.5 492.5 c 128,-1,4
 475 485 475 485 475 475 c 2,5,-1
 475 387.5 l 0,6,7
 475 300 475 300 475 212.5 c 0,8,-1
 475 125 l 1,9,10
 474.965335157 87.4406422221 474.965335157 87.4406422221 454.236328125 56.123046875 c 1,11,-1
 467.6796875 42.6796875 l 1,12,-1
 467.6796875 42.6796875 l 0,13,-1
 467.080078125 42.6796875 l 1,14,15
 474.755604306 35.5031257857 474.755604306 35.5031257857 475 25 c 0,16,17
 474.699240084 14.8981346404 474.699240084 14.8981346404 467.425046769 7.81967278895 c 128,-1,18
 460.150853453 0.7412109375 460.150853453 0.7412109375 450.0078125 0.7412109375 c 0,19,20
 439.648112891 0.7412109375 439.648112891 0.7412109375 432.3203125 8.080078125 c 1,21,-1
 432.3203125 7.3203125 l 1,22,-1
 428.930609809 10.6644422743 l 0,23,24
 425.540907118 14.0085720486 425.540907118 14.0085720486 422.180067274 17.3694118924 c 128,-1,25
 418.819227431 20.7302517361 418.819227431 20.7302517361 418.876953125 20.763671875 c 1,26,27
 387.559357778 0.0346648433576 387.559357778 0.0346648433576 350 0 c 2,28,-1
 50 0 l 1,29,-1
 50 0.630859375 l 0,30,-1
 49.9921875 0.6416015625 l 0,31,32
 39.8165703983 0.6416015625 39.8165703983 0.6416015625 32.536249151 7.75137500001 c 128,-1,33
 25.2559279036 14.8611484375 25.2559279036 14.8611484375 25 25 c 0,34,35
 25.2559547481 35.1399150342 25.2559547481 35.1399150342 32.5367894432 42.2545278296 c 128,-1,36
 39.8176241384 49.369140625 39.8176241384 49.369140625 49.9921875 49.369140625 c 0,37,-1
 50 49.369140625 l 1,38,-1
 50 50 l 1,39,-1
 125 50 l 0,40,41
 200 50 200 50 275 50 c 0,42,-1
 350 50 l 1,43,44
 366.822134214 50.2881242479 366.822134214 50.2881242479 381.908203125 57.732421875 c 1,45,-1
 32.3203125 407.3203125 l 1,46,-1
 32.3203125 407.3203125 l 0,47,-1
 32.919921875 407.3203125 l 1,48,49
 25.2443956939 414.496874214 25.2443956939 414.496874214 25 425 c 0,50,51
 25.002197587 435.348437012 25.002197587 435.348437012 32.3207024319 442.671288819 c 128,-1,52
 39.6392072769 449.994140625 39.6392072769 449.994140625 49.9853515625 449.994140625 c 0,53,54
 52.8218833905 449.994140625 52.8218833905 449.994140625 55.560546875 449.369140625 c 0,55,56
 62.7228539456 447.446898377 62.7228539456 447.446898377 67.6796875 441.9296875 c 1,57,-1
 67.6796875 442.6796875 l 1,58,-1
 417.267578125 93.091796875 l 1,59,60
 424.711875752 108.177865786 424.711875752 108.177865786 425 125 c 2,61,-1
 425 475 l 0,62,63
 425 483.826978577 425 483.826978577 430.508323732 490.639130132 c 128,-1,64
 436.016647463 497.451281688 436.016647463 497.451281688 444.4375 499.373046875 c 0,0,1
67.6796875 408.0703125 m 1,65,-1
 67.6796875 407.3203125 l 1,66,-1
 67.080078125 407.3203125 l 1,67,-1
 67.6796875 408.0703125 l 1,65,-1
EndSplineSet
Substitution2: "isol-1" uni0047.isol
Substitution2: "fina-1" uni0047.fina
Substitution2: "medi-1" uni0047.medi
Substitution2: "init-1" uni0047.init
EndChar

StartChar: S
Encoding: 83 83 47
Width: 500
VWidth: 1000
Flags: W
LayerCount: 2
Fore
SplineSet
44.4375 499.373046875 m 0,0,1
 47.1862181161 500 47.1862181161 500 50 500 c 0,2,3
 60 500 60 500 67.5 492.5 c 128,-1,4
 75 485 75 485 75 475 c 2,5,-1
 75 125 l 2,6,7
 75 94 75 94 97 72 c 128,-1,8
 119 50 119 50 150 50 c 2,9,-1
 450 50 l 1,10,-1
 450 49.369140625 l 0,11,-1
 450.0078125 49.3583984375 l 0,12,13
 460.183429602 49.3583984375 460.183429602 49.3583984375 467.463750849 42.248625 c 128,-1,14
 474.744072096 35.1388515625 474.744072096 35.1388515625 475 25 c 0,15,16
 474.744045252 14.8600849658 474.744045252 14.8600849658 467.463210557 7.7454721704 c 128,-1,17
 460.182375862 0.630859375 460.182375862 0.630859375 450.0078125 0.630859375 c 0,18,-1
 450 0.630859375 l 1,19,-1
 450 0 l 1,20,-1
 150 0 l 2,21,22
 98 0 98 0 61.5 36.5 c 128,-1,23
 25 73 25 73 25 125 c 2,24,-1
 25 475 l 0,25,26
 25 483.826978577 25 483.826978577 30.5083237317 490.639130132 c 128,-1,27
 36.0166474634 497.451281688 36.0166474634 497.451281688 44.4375 499.373046875 c 0,0,1
EndSplineSet
Substitution2: "isol-1" uni0053.isol
Substitution2: "fina-1" uni0053.fina
Substitution2: "medi-1" uni0053.medi
Substitution2: "init-1" uni0053.init
EndChar

StartChar: R
Encoding: 82 82 48
Width: 500
VWidth: 1000
Flags: W
LayerCount: 2
Fore
SplineSet
150 450 m 2,0,-1
 350 450 l 2,1,2
 402 450 402 450 438.5 413.5 c 128,-1,3
 475 377 475 377 475 325 c 2,4,-1
 475 125 l 2,5,6
 475 73 475 73 438.5 36.5 c 128,-1,7
 402 0 402 0 350 0 c 2,8,-1
 150 0 l 2,9,10
 98 0 98 0 61.5 36.5 c 128,-1,11
 25 73 25 73 25 125 c 2,12,-1
 25 325 l 2,13,14
 25 377 25 377 61.5 413.5 c 128,-1,15
 98 450 98 450 150 450 c 2,0,-1
150 400 m 2,16,17
 119 400 119 400 97 378 c 128,-1,18
 75 356 75 356 75 325 c 2,19,-1
 75 125 l 2,20,21
 75 94 75 94 97 72 c 128,-1,22
 119 50 119 50 150 50 c 2,23,-1
 350 50 l 2,24,25
 381 50 381 50 403 72 c 128,-1,26
 425 94 425 94 425 125 c 2,27,-1
 425 325 l 2,28,29
 425 356 425 356 403 378 c 128,-1,30
 381 400 381 400 350 400 c 2,31,-1
 150 400 l 2,16,17
EndSplineSet
Substitution2: "isol-1" uni0052.isol
Substitution2: "fina-1" uni0052.fina
Substitution2: "medi-1" uni0052.medi
Substitution2: "init-1" uni0052.init
EndChar

StartChar: F
Encoding: 70 70 49
Width: 500
VWidth: 1000
Flags: W
LayerCount: 2
Fore
SplineSet
150 450 m 2,0,-1
 350 450 l 2,1,2
 402 450 402 450 438.5 413.5 c 128,-1,3
 475 377 475 377 475 325 c 2,4,-1
 475 -25 l 2,5,6
 475 -35 475 -35 467.5 -42.5 c 128,-1,7
 460 -50 460 -50 450 -50 c 128,-1,8
 440 -50 440 -50 432.5 -42.5 c 128,-1,9
 425 -35 425 -35 425 -25 c 2,10,-1
 425 325 l 2,11,12
 425 356 425 356 403 378 c 128,-1,13
 381 400 381 400 350 400 c 2,14,-1
 150 400 l 2,15,16
 119 400 119 400 97 378 c 128,-1,17
 75 356 75 356 75 325 c 2,18,-1
 75 -25 l 2,19,20
 75 -35 75 -35 67.5 -42.5 c 128,-1,21
 60 -50 60 -50 50 -50 c 128,-1,22
 40 -50 40 -50 32.5 -42.5 c 128,-1,23
 25 -35 25 -35 25 -25 c 2,24,-1
 25 325 l 2,25,26
 25 377 25 377 61.5 413.5 c 128,-1,27
 98 450 98 450 150 450 c 2,0,-1
EndSplineSet
Substitution2: "isol-1" uni0046.isol
Substitution2: "fina-1" uni0046.fina
Substitution2: "medi-1" uni0046.medi
Substitution2: "init-1" uni0046.init
EndChar

StartChar: bracketright
Encoding: 93 93 50
Width: 500
VWidth: 1000
Flags: W
LayerCount: 2
Fore
SplineSet
150 500 m 2,0,-1
 250 500 l 2,1,2
 302 500 302 500 338.5 463.5 c 128,-1,3
 375 427 375 427 375 375 c 2,4,-1
 375 75 l 2,5,6
 375 23 375 23 338.5 -13.5 c 128,-1,7
 302 -50 302 -50 250 -50 c 2,8,-1
 150 -50 l 2,9,10
 140 -50 140 -50 132.5 -42.5 c 128,-1,11
 125 -35 125 -35 125 -25 c 128,-1,12
 125 -15 125 -15 132.5 -7.5 c 128,-1,13
 140 0 140 0 150 0 c 2,14,-1
 250 0 l 2,15,16
 281 0 281 0 303 22 c 128,-1,17
 325 44 325 44 325 75 c 2,18,-1
 325 375 l 2,19,20
 325 406 325 406 303 428 c 128,-1,21
 281 450 281 450 250 450 c 2,22,-1
 150 450 l 2,23,24
 140 450 140 450 132.5 457.5 c 128,-1,25
 125 465 125 465 125 475 c 128,-1,26
 125 485 125 485 132.5 492.5 c 128,-1,27
 140 500 140 500 150 500 c 2,0,-1
EndSplineSet
EndChar

StartChar: B
Encoding: 66 66 51
Width: 500
VWidth: 1000
Flags: W
LayerCount: 2
Fore
SplineSet
150 450 m 2,0,-1
 350 450 l 2,1,2
 402 450 402 450 438.5 413.5 c 128,-1,3
 475 377 475 377 475 325 c 0,4,5
 475 315 475 315 467.5 307.5 c 128,-1,6
 460 300 460 300 450 300 c 128,-1,7
 440 300 440 300 432.5 307.5 c 128,-1,8
 425 315 425 315 425 325 c 0,9,10
 425 356 425 356 403 378 c 128,-1,11
 381 400 381 400 350 400 c 2,12,-1
 300 400 l 0,13,14
 250 400 250 400 200 400 c 0,15,-1
 150 400 l 1,16,17
 133.019357904 399.985624245 133.019357904 399.985624245 117.701171875 392.658203125 c 1,18,-1
 417.658203125 92.701171875 l 1,19,20
 424.985624245 108.019357904 424.985624245 108.019357904 425 125 c 0,21,22
 425 135 425 135 432.5 142.5 c 128,-1,23
 440 150 440 150 450 150 c 128,-1,24
 460 150 460 150 467.5 142.5 c 128,-1,25
 475 135 475 135 475 125 c 0,26,27
 474.965335157 87.4406422221 474.965335157 87.4406422221 454.236328125 56.123046875 c 1,28,-1
 467.6796875 42.6796875 l 1,29,-1
 467.6796875 42.6796875 l 0,30,-1
 467.080078125 42.6796875 l 1,31,32
 474.755604306 35.5031257857 474.755604306 35.5031257857 475 25 c 0,33,34
 474.699240084 14.8981346404 474.699240084 14.8981346404 467.425046769 7.81967278895 c 128,-1,35
 460.150853453 0.7412109375 460.150853453 0.7412109375 450.0078125 0.7412109375 c 0,36,37
 439.648112891 0.7412109375 439.648112891 0.7412109375 432.3203125 8.080078125 c 1,38,-1
 432.3203125 7.3203125 l 1,39,-1
 428.930609809 10.6644422743 l 0,40,41
 425.540907118 14.0085720486 425.540907118 14.0085720486 422.180067274 17.3694118924 c 128,-1,42
 418.819227431 20.7302517361 418.819227431 20.7302517361 418.876953125 20.763671875 c 1,43,44
 387.559357778 0.0346648433576 387.559357778 0.0346648433576 350 0 c 2,45,-1
 150 0 l 2,46,47
 98 0 98 0 61.5 36.5 c 128,-1,48
 25 73 25 73 25 125 c 2,49,-1
 25 175 l 0,50,51
 25 225 25 225 25 275 c 0,52,-1
 25 325 l 1,53,54
 25.0346648434 362.559357778 25.0346648434 362.559357778 45.763671875 393.876953125 c 1,55,-1
 32.3203125 407.3203125 l 1,56,-1
 32.3203125 407.3203125 l 0,57,-1
 32.919921875 407.3203125 l 1,58,59
 25.2443956939 414.496874214 25.2443956939 414.496874214 25 425 c 0,60,61
 25.002197587 435.348437012 25.002197587 435.348437012 32.3207024319 442.671288819 c 128,-1,62
 39.6392072769 449.994140625 39.6392072769 449.994140625 49.9853515625 449.994140625 c 0,63,64
 52.8218833905 449.994140625 52.8218833905 449.994140625 55.560546875 449.369140625 c 0,65,66
 62.7228539456 447.446898377 62.7228539456 447.446898377 67.6796875 441.9296875 c 1,67,-1
 67.6796875 442.6796875 l 1,68,-1
 71.069390191 439.335557726 l 0,69,70
 74.4590928819 435.991427951 74.4590928819 435.991427951 77.8199327257 432.630588108 c 128,-1,71
 81.1807725694 429.269748264 81.1807725694 429.269748264 81.123046875 429.236328125 c 1,72,73
 112.440642222 449.965335157 112.440642222 449.965335157 150 450 c 2,0,-1
82.341796875 357.298828125 m 1,74,75
 75.0143757552 341.980642096 75.0143757552 341.980642096 75 325 c 2,76,-1
 75 125 l 2,77,78
 75 94 75 94 97 72 c 128,-1,79
 119 50 119 50 150 50 c 2,80,-1
 200 50 l 0,81,82
 250 50 250 50 300 50 c 0,83,-1
 350 50 l 1,84,85
 366.980642096 50.0143757552 366.980642096 50.0143757552 382.298828125 57.341796875 c 1,86,-1
 82.341796875 357.298828125 l 1,74,75
EndSplineSet
Substitution2: "isol-1" uni0042.isol
Substitution2: "fina-1" uni0042.fina
Substitution2: "medi-1" uni0042.medi
Substitution2: "init-1" uni0042.init
EndChar

StartChar: V
Encoding: 86 86 52
Width: 500
VWidth: 1000
Flags: W
LayerCount: 2
Fore
SplineSet
150 450 m 2,0,-1
 350 450 l 2,1,2
 402 450 402 450 438.5 413.5 c 128,-1,3
 475 377 475 377 475 325 c 2,4,-1
 475 -25 l 2,5,6
 475 -35 475 -35 467.5 -42.5 c 128,-1,7
 460 -50 460 -50 450 -50 c 128,-1,8
 440 -50 440 -50 432.5 -42.5 c 128,-1,9
 425 -35 425 -35 425 -25 c 2,10,-1
 425 14.640625 l 1,11,-1
 82.732421875 356.908203125 l 1,12,13
 75.2881242479 341.822134214 75.2881242479 341.822134214 75 325 c 2,14,-1
 75 -25 l 2,15,16
 75 -35 75 -35 67.5 -42.5 c 128,-1,17
 60 -50 60 -50 50 -50 c 128,-1,18
 40 -50 40 -50 32.5 -42.5 c 128,-1,19
 25 -35 25 -35 25 -25 c 2,20,-1
 25 62.5 l 0,21,22
 25 150 25 150 25 237.5 c 0,23,-1
 25 325 l 1,24,25
 25.0346648434 362.559357778 25.0346648434 362.559357778 45.763671875 393.876953125 c 1,26,-1
 32.3203125 407.3203125 l 1,27,-1
 32.3203125 407.3203125 l 0,28,-1
 32.919921875 407.3203125 l 1,29,30
 25.2443956939 414.496874214 25.2443956939 414.496874214 25 425 c 0,31,32
 25.002197587 435.348437012 25.002197587 435.348437012 32.3207024319 442.671288819 c 128,-1,33
 39.6392072769 449.994140625 39.6392072769 449.994140625 49.9853515625 449.994140625 c 0,34,35
 52.8218833905 449.994140625 52.8218833905 449.994140625 55.560546875 449.369140625 c 0,36,37
 62.7228539456 447.446898377 62.7228539456 447.446898377 67.6796875 441.9296875 c 1,38,-1
 67.6796875 442.6796875 l 1,39,-1
 71.069390191 439.335557726 l 0,40,41
 74.4590928819 435.991427951 74.4590928819 435.991427951 77.8199327257 432.630588108 c 128,-1,42
 81.1807725694 429.269748264 81.1807725694 429.269748264 81.123046875 429.236328125 c 1,43,44
 112.440642222 449.965335157 112.440642222 449.965335157 150 450 c 2,0,-1
150 400 m 2,45,46
 133.177865786 399.711875752 133.177865786 399.711875752 118.091796875 392.267578125 c 1,47,-1
 425 85.359375 l 1,48,-1
 425 325 l 2,49,50
 425 356 425 356 403 378 c 128,-1,51
 381 400 381 400 350 400 c 2,52,-1
 150 400 l 2,45,46
EndSplineSet
Substitution2: "isol-1" uni0056.isol
Substitution2: "fina-1" uni0056.fina
Substitution2: "medi-1" uni0056.medi
Substitution2: "init-1" uni0056.init
EndChar

StartChar: M
Encoding: 77 77 53
Width: 500
VWidth: 1000
Flags: W
LayerCount: 2
Fore
SplineSet
150 450 m 2,0,-1
 450 450 l 1,1,-1
 450 449.369140625 l 0,2,-1
 450.0078125 449.358398438 l 0,3,4
 460.183429602 449.358398438 460.183429602 449.358398438 467.463750849 442.248625 c 128,-1,5
 474.744072096 435.138851562 474.744072096 435.138851562 475 425 c 0,6,7
 474.744045252 414.860084966 474.744045252 414.860084966 467.463210557 407.74547217 c 128,-1,8
 460.182375862 400.630859375 460.182375862 400.630859375 450.0078125 400.630859375 c 0,9,-1
 450 400.630859375 l 1,10,-1
 450 400 l 1,11,-1
 150 400 l 2,12,13
 119 400 119 400 97 378 c 128,-1,14
 75 356 75 356 75 325 c 2,15,-1
 75 -25 l 2,16,17
 75 -35 75 -35 67.5 -42.5 c 128,-1,18
 60 -50 60 -50 50 -50 c 128,-1,19
 40 -50 40 -50 32.5 -42.5 c 128,-1,20
 25 -35 25 -35 25 -25 c 2,21,-1
 25 325 l 2,22,23
 25 377 25 377 61.5 413.5 c 128,-1,24
 98 450 98 450 150 450 c 2,0,-1
EndSplineSet
Substitution2: "isol-1" uni004D.isol
Substitution2: "fina-1" uni004D.fina
Substitution2: "medi-1" uni004D.medi
Substitution2: "init-1" uni004D.init
EndChar

StartChar: Z
Encoding: 90 90 54
Width: 500
VWidth: 1000
Flags: W
LayerCount: 2
Fore
SplineSet
44.4375 499.373046875 m 0,0,1
 47.1862181161 500 47.1862181161 500 50 500 c 0,2,3
 60 500 60 500 67.5 492.5 c 128,-1,4
 75 485 75 485 75 475 c 2,5,-1
 75 435.359375 l 1,6,-1
 467.6796875 42.6796875 l 1,7,-1
 467.080078125 42.6796875 l 1,8,-1
 467.294921875 42.37890625 l 0,9,10
 468.896295005 40.5447924187 468.896295005 40.5447924187 470.119140625 38.423828125 c 0,11,12
 471.686206527 36.5683632406 471.686206527 36.5683632406 472.86328125 34.453125 c 0,13,14
 474.866023431 29.9355239151 474.866023431 29.9355239151 475 25 c 0,15,16
 474.744045252 14.8600849658 474.744045252 14.8600849658 467.463210557 7.7454721704 c 128,-1,17
 460.182375862 0.630859375 460.182375862 0.630859375 450.0078125 0.630859375 c 0,18,-1
 450 0.630859375 l 1,19,-1
 450 0 l 1,20,-1
 150 0 l 2,21,22
 98 0 98 0 61.5 36.5 c 128,-1,23
 25 73 25 73 25 125 c 2,24,-1
 25 475 l 0,25,26
 25 483.826978577 25 483.826978577 30.5083237317 490.639130132 c 128,-1,27
 36.0166474634 497.451281688 36.0166474634 497.451281688 44.4375 499.373046875 c 0,0,1
75 364.640625 m 1,28,-1
 75 125 l 2,29,30
 75 94 75 94 97 72 c 128,-1,31
 119 50 119 50 150 50 c 2,32,-1
 389.640625 50 l 1,33,-1
 75 364.640625 l 1,28,-1
EndSplineSet
Substitution2: "isol-1" uni005A.isol
Substitution2: "fina-1" uni005A.fina
Substitution2: "medi-1" uni005A.medi
Substitution2: "init-1" uni005A.init
EndChar

StartChar: N
Encoding: 78 78 55
Width: 500
VWidth: 1000
Flags: W
LayerCount: 2
Fore
SplineSet
150 450 m 2,0,-1
 450 450 l 1,1,-1
 450 449.369140625 l 0,2,-1
 450.0078125 449.358398438 l 0,3,4
 460.183429602 449.358398438 460.183429602 449.358398438 467.463750849 442.248625 c 128,-1,5
 474.744072096 435.138851562 474.744072096 435.138851562 475 425 c 0,6,7
 474.744045252 414.860084966 474.744045252 414.860084966 467.463210557 407.74547217 c 128,-1,8
 460.182375862 400.630859375 460.182375862 400.630859375 450.0078125 400.630859375 c 0,9,-1
 450 400.630859375 l 1,10,-1
 450 400 l 1,11,-1
 375 400 l 0,12,13
 300 400 300 400 225 400 c 0,14,-1
 150 400 l 1,15,16
 133.177865786 399.711875752 133.177865786 399.711875752 118.091796875 392.267578125 c 1,17,-1
 467.6796875 42.6796875 l 1,18,-1
 467.6796875 42.6796875 l 0,19,-1
 467.080078125 42.6796875 l 1,20,21
 474.755604306 35.5031257857 474.755604306 35.5031257857 475 25 c 0,22,23
 474.699240084 14.8981346404 474.699240084 14.8981346404 467.425046769 7.81967278895 c 128,-1,24
 460.150853453 0.7412109375 460.150853453 0.7412109375 450.0078125 0.7412109375 c 0,25,26
 439.648112891 0.7412109375 439.648112891 0.7412109375 432.3203125 8.080078125 c 1,27,-1
 432.3203125 7.3203125 l 1,28,-1
 82.732421875 356.908203125 l 1,29,30
 75.2881242479 341.822134214 75.2881242479 341.822134214 75 325 c 2,31,-1
 75 -25 l 2,32,33
 75 -35 75 -35 67.5 -42.5 c 128,-1,34
 60 -50 60 -50 50 -50 c 128,-1,35
 40 -50 40 -50 32.5 -42.5 c 128,-1,36
 25 -35 25 -35 25 -25 c 2,37,-1
 25 62.5 l 0,38,39
 25 150 25 150 25 237.5 c 0,40,-1
 25 325 l 1,41,42
 25.0346648434 362.559357778 25.0346648434 362.559357778 45.763671875 393.876953125 c 1,43,-1
 32.3203125 407.3203125 l 1,44,-1
 32.3203125 407.3203125 l 0,45,-1
 32.919921875 407.3203125 l 1,46,47
 25.2443956939 414.496874214 25.2443956939 414.496874214 25 425 c 0,48,49
 25.002197587 435.348437012 25.002197587 435.348437012 32.3207024319 442.671288819 c 128,-1,50
 39.6392072769 449.994140625 39.6392072769 449.994140625 49.9853515625 449.994140625 c 0,51,52
 52.8218833905 449.994140625 52.8218833905 449.994140625 55.560546875 449.369140625 c 0,53,54
 62.7228539456 447.446898377 62.7228539456 447.446898377 67.6796875 441.9296875 c 1,55,-1
 67.6796875 442.6796875 l 1,56,-1
 71.069390191 439.335557726 l 0,57,58
 74.4590928819 435.991427951 74.4590928819 435.991427951 77.8199327257 432.630588108 c 128,-1,59
 81.1807725694 429.269748264 81.1807725694 429.269748264 81.123046875 429.236328125 c 1,60,61
 112.440642222 449.965335157 112.440642222 449.965335157 150 450 c 2,0,-1
432.3203125 42.669921875 m 1,62,-1
 432.919921875 42.669921875 l 1,63,-1
 432.3203125 41.919921875 l 1,64,-1
 432.3203125 42.669921875 l 1,62,-1
EndSplineSet
Substitution2: "isol-1" uni004E.isol
Substitution2: "fina-1" uni004E.fina
Substitution2: "medi-1" uni004E.medi
Substitution2: "init-1" uni004E.init
EndChar

StartChar: W
Encoding: 87 87 56
Width: 0
VWidth: 1000
GlyphClass: 4
Flags: W
LayerCount: 2
Fore
SplineSet
-350 -50 m 1,0,-1
 -150 -50 l 1,1,-1
 -150 -50.25390625 l 1,2,3
 -139.721510201 -50.25390625 -139.721510201 -50.25390625 -132.412784679 -57.4947115851 c 128,-1,4
 -125.104059156 -64.7355169202 -125.104059156 -64.7355169202 -125 -75 c 0,5,6
 -125.104059156 -85.2644830798 -125.104059156 -85.2644830798 -132.412784679 -92.5052884149 c 128,-1,7
 -139.721510201 -99.74609375 -139.721510201 -99.74609375 -150 -99.74609375 c 1,8,-1
 -150 -100 l 1,9,-1
 -350 -100 l 1,10,-1
 -350 -99.74609375 l 1,11,12
 -360.278489799 -99.74609375 -360.278489799 -99.74609375 -367.587215321 -92.5052884149 c 128,-1,13
 -374.895940844 -85.2644830798 -374.895940844 -85.2644830798 -375 -75 c 0,14,15
 -374.895940844 -64.7355169202 -374.895940844 -64.7355169202 -367.587215321 -57.4947115851 c 128,-1,16
 -360.278489799 -50.25390625 -360.278489799 -50.25390625 -350 -50.25390625 c 1,17,-1
 -350 -50 l 1,0,-1
EndSplineSet
EndChar

StartChar: C
Encoding: 67 67 57
Width: 500
VWidth: 1000
Flags: W
LayerCount: 2
Fore
SplineSet
150 450 m 2,0,-1
 350 450 l 2,1,2
 402 450 402 450 438.5 413.5 c 128,-1,3
 475 377 475 377 475 325 c 2,4,-1
 475 275 l 0,5,6
 475 225 475 225 475 175 c 0,7,-1
 475 125 l 1,8,9
 474.965335157 87.4406422221 474.965335157 87.4406422221 454.236328125 56.123046875 c 1,10,-1
 467.6796875 42.6796875 l 1,11,-1
 467.6796875 42.6796875 l 0,12,-1
 467.080078125 42.6796875 l 1,13,14
 474.755604306 35.5031257857 474.755604306 35.5031257857 475 25 c 0,15,16
 474.699240084 14.8981346404 474.699240084 14.8981346404 467.425046769 7.81967278895 c 128,-1,17
 460.150853453 0.7412109375 460.150853453 0.7412109375 450.0078125 0.7412109375 c 0,18,19
 439.648112891 0.7412109375 439.648112891 0.7412109375 432.3203125 8.080078125 c 1,20,-1
 432.3203125 7.3203125 l 1,21,-1
 428.930609809 10.6644422743 l 0,22,23
 425.540907118 14.0085720486 425.540907118 14.0085720486 422.180067274 17.3694118924 c 128,-1,24
 418.819227431 20.7302517361 418.819227431 20.7302517361 418.876953125 20.763671875 c 1,25,26
 387.559357778 0.0346648433576 387.559357778 0.0346648433576 350 0 c 2,27,-1
 150 0 l 2,28,29
 98 0 98 0 61.5 36.5 c 128,-1,30
 25 73 25 73 25 125 c 0,31,32
 25 135 25 135 32.5 142.5 c 128,-1,33
 40 150 40 150 50 150 c 128,-1,34
 60 150 60 150 67.5 142.5 c 128,-1,35
 75 135 75 135 75 125 c 0,36,37
 75 94 75 94 97 72 c 128,-1,38
 119 50 119 50 150 50 c 2,39,-1
 200 50 l 0,40,41
 250 50 250 50 300 50 c 0,42,-1
 350 50 l 1,43,44
 366.980642096 50.0143757552 366.980642096 50.0143757552 382.298828125 57.341796875 c 1,45,-1
 82.341796875 357.298828125 l 1,46,47
 75.0143757552 341.980642096 75.0143757552 341.980642096 75 325 c 0,48,49
 75 315 75 315 67.5 307.5 c 128,-1,50
 60 300 60 300 50 300 c 128,-1,51
 40 300 40 300 32.5 307.5 c 128,-1,52
 25 315 25 315 25 325 c 0,53,54
 25.0346648434 362.559357778 25.0346648434 362.559357778 45.763671875 393.876953125 c 1,55,-1
 32.3203125 407.3203125 l 1,56,-1
 32.3203125 407.3203125 l 0,57,-1
 32.919921875 407.3203125 l 1,58,59
 25.2443956939 414.496874214 25.2443956939 414.496874214 25 425 c 0,60,61
 25.002197587 435.348437012 25.002197587 435.348437012 32.3207024319 442.671288819 c 128,-1,62
 39.6392072769 449.994140625 39.6392072769 449.994140625 49.9853515625 449.994140625 c 0,63,64
 52.8218833905 449.994140625 52.8218833905 449.994140625 55.560546875 449.369140625 c 0,65,66
 62.7228539456 447.446898377 62.7228539456 447.446898377 67.6796875 441.9296875 c 1,67,-1
 67.6796875 442.6796875 l 1,68,-1
 71.069390191 439.335557726 l 0,69,70
 74.4590928819 435.991427951 74.4590928819 435.991427951 77.8199327257 432.630588108 c 128,-1,71
 81.1807725694 429.269748264 81.1807725694 429.269748264 81.123046875 429.236328125 c 1,72,73
 112.440642222 449.965335157 112.440642222 449.965335157 150 450 c 2,0,-1
150 400 m 2,74,75
 133.019357904 399.985624245 133.019357904 399.985624245 117.701171875 392.658203125 c 1,76,-1
 417.658203125 92.701171875 l 1,77,78
 424.985624245 108.019357904 424.985624245 108.019357904 425 125 c 2,79,-1
 425 325 l 2,80,81
 425 356 425 356 403 378 c 128,-1,82
 381 400 381 400 350 400 c 2,83,-1
 150 400 l 2,74,75
EndSplineSet
Substitution2: "isol-1" uni0043.isol
Substitution2: "fina-1" uni0043.fina
Substitution2: "medi-1" uni0043.medi
Substitution2: "init-1" uni0043.init
EndChar

StartChar: U
Encoding: 85 85 58
Width: 0
VWidth: 1000
GlyphClass: 4
Flags: W
LayerCount: 2
Fore
SplineSet
-250.544921875 -0.005859375 m 0,0,-1
 -250 0 l 0,1,2
 -240 0 -240 0 -232.5 -7.5 c 128,-1,3
 -225 -15 -225 -15 -225 -25 c 128,-1,4
 -225 -35 -225 -35 -232.5 -42.5 c 128,-1,5
 -240 -50 -240 -50 -250 -50 c 128,-1,6
 -260 -50 -260 -50 -267.5 -42.5 c 128,-1,7
 -275 -35 -275 -35 -275 -25 c 128,-1,8
 -275 -15.1656491102 -275 -15.1656491102 -268.296024405 -7.98263581147 c 128,-1,9
 -261.592048809 -0.799622512747 -261.592048809 -0.799622512747 -251.869140625 -0.0703125 c 0,10,11
 -251.200190918 -0.0201043541854 -251.200190918 -0.0201043541854 -250.544921875 -0.005859375 c 0,0,-1
EndSplineSet
EndChar

StartChar: A
Encoding: 65 65 59
Width: 0
VWidth: 1000
GlyphClass: 4
Flags: W
LayerCount: 2
Fore
SplineSet
-350 550 m 1,0,-1
 -150 550 l 1,1,-1
 -150 549.75 l 1,2,3
 -139.720645017 549.75 -139.720645017 549.75 -132.411618608 542.507907513 c 128,-1,4
 -125.102592198 535.265815027 -125.102592198 535.265815027 -125 525 c 0,5,6
 -125.102592198 514.734184973 -125.102592198 514.734184973 -132.411618608 507.492092487 c 128,-1,7
 -139.720645017 500.25 -139.720645017 500.25 -150 500.25 c 1,8,-1
 -150 500 l 1,9,-1
 -249.591796875 500 l 1,10,11
 -239.378393007 499.832867575 -239.378393007 499.832867575 -232.189196503 492.534346187 c 128,-1,12
 -225 485.235824799 -225 485.235824799 -225 475 c 0,13,14
 -225 465 -225 465 -232.5 457.5 c 128,-1,15
 -240 450 -240 450 -250 450 c 128,-1,16
 -260 450 -260 450 -267.5 457.5 c 128,-1,17
 -275 465 -275 465 -275 475 c 1,18,-1
 -274.974609375 475.005859375 l 1,19,20
 -274.974609375 484.382058352 -274.974609375 484.382058352 -268.835075306 491.408843292 c 128,-1,21
 -262.695541237 498.435628232 -262.695541237 498.435628232 -253.560546875 499.75 c 0,22,23
 -252.229734788 499.940749732 -252.229734788 499.940749732 -250.89453125 499.98828125 c 0,24,25
 -250.499565972 500.000976562 -250.499565972 500.000976562 -250.08984375 500.000976562 c 0,26,27
 -249.955078125 500.001464844 -249.955078125 500.001464844 -249.8203125 500 c 1,28,-1
 -350 500 l 1,29,-1
 -350 500.25 l 1,30,31
 -360.279354983 500.25 -360.279354983 500.25 -367.588381392 507.492092487 c 128,-1,32
 -374.897407802 514.734184973 -374.897407802 514.734184973 -375 525 c 0,33,34
 -374.897407802 535.265815027 -374.897407802 535.265815027 -367.588381392 542.507907513 c 128,-1,35
 -360.279354983 549.75 -360.279354983 549.75 -350 549.75 c 1,36,-1
 -350 550 l 1,0,-1
EndSplineSet
EndChar

StartChar: i
Encoding: 105 105 60
Width: 0
VWidth: 1000
GlyphClass: 4
Flags: W
LayerCount: 2
Fore
SplineSet
-350 550 m 1,0,-1
 -150 550 l 1,1,-1
 -150 549.75 l 1,2,3
 -139.720645017 549.75 -139.720645017 549.75 -132.411618608 542.507907513 c 128,-1,4
 -125.102592198 535.265815027 -125.102592198 535.265815027 -125 525 c 0,5,6
 -125.102592198 514.734184973 -125.102592198 514.734184973 -132.411618608 507.492092487 c 128,-1,7
 -139.720645017 500.25 -139.720645017 500.25 -150 500.25 c 1,8,-1
 -150 500 l 1,9,-1
 -350 500 l 1,10,-1
 -350 500.25 l 1,11,12
 -360.279354983 500.25 -360.279354983 500.25 -367.588381392 507.492092487 c 128,-1,13
 -374.897407802 514.734184973 -374.897407802 514.734184973 -375 525 c 0,14,15
 -374.897407802 535.265815027 -374.897407802 535.265815027 -367.588381392 542.507907513 c 128,-1,16
 -360.279354983 549.75 -360.279354983 549.75 -350 549.75 c 1,17,-1
 -350 550 l 1,0,-1
EndSplineSet
EndChar

StartChar: backslash
Encoding: 92 92 61
Width: 500
VWidth: 1000
Flags: W
LayerCount: 2
Fore
SplineSet
55.5595703125 449.370117188 m 0,0,1
 62.7233370825 447.447879111 62.7233370825 447.447879111 67.6796875 441.9296875 c 0,2,3
 67.6796875 442.6796875 l 0,4,-1
 67.6796875 442.6796875 l 1,5,-1
 467.6796875 42.6796875 l 1,6,-1
 467.080078125 42.6796875 l 1,7,8
 474.755604306 35.5031257857 474.755604306 35.5031257857 475 25 c 0,9,10
 474.699280219 14.8994826893 474.699280219 14.8994826893 467.427321174 7.82815931341 c 128,-1,11
 460.155362128 0.7568359375 460.155362128 0.7568359375 450.01171875 0.7568359375 c 0,12,13
 439.632511453 0.7568359375 439.632511453 0.7568359375 432.3203125 8.080078125 c 0,14,15
 432.3203125 7.3203125 l 0,16,-1
 432.3203125 7.3203125 l 1,17,-1
 32.3203125 407.3203125 l 1,18,-1
 32.919921875 407.3203125 l 1,19,20
 25.2443956939 414.496874214 25.2443956939 414.496874214 25 425 c 0,21,22
 25.0014648627 435.34705741 25.0014648627 435.34705741 32.3269710967 442.67157558 c 128,-1,23
 39.6524773308 449.99609375 39.6524773308 449.99609375 50 449.99609375 c 0,24,25
 52.8181216438 449.99609375 52.8181216438 449.99609375 55.5595703125 449.370117188 c 0,0,1
67.6796875 408.0703125 m 1,26,-1
 67.080078125 407.3203125 l 1,27,-1
 67.6796875 407.3203125 l 1,28,-1
 67.6796875 408.0703125 l 1,26,-1
432.919921875 42.669921875 m 1,29,-1
 432.3203125 42.669921875 l 1,30,-1
 432.3203125 41.919921875 l 1,31,-1
 432.919921875 42.669921875 l 1,29,-1
EndSplineSet
EndChar

